<?xml version="1.0" encoding="utf-8"?>
<!-- Generator: Adobe Illustrator 25.1.0, SVG Export Plug-In . SVG Version: 6.00 Build 0)  -->
<svg version="1.1" id="Capa_1" xmlns="http://www.w3.org/2000/svg" xmlns:xlink="http://www.w3.org/1999/xlink" x="0px" y="0px"
	 viewBox="0 0 55.4 8.9" style="enable-background:new 0 0 55.4 8.9;" xml:space="preserve">
<style type="text/css">
	.st0{fill-rule:evenodd;clip-rule:evenodd;}
</style>
<path class="st0" d="M7,5.6c0,0.2-0.1,0.5-0.1,0.7C6.8,6.4,6.7,6.6,6.5,6.7C6.3,6.9,6.1,7,5.9,7c-0.3,0.1-0.6,0.1-1,0.1H2.7V1.8h2.3
	c0.3,0,0.6,0.1,0.8,0.1C6,2,6.2,2.1,6.4,2.2c0.2,0.1,0.2,0.2,0.4,0.4C6.8,2.8,6.8,3,6.8,3.3c0,0.3-0.1,0.5-0.2,0.7
	C6.5,4.1,6.3,4.2,6.1,4.3l0,0C6.7,4.5,7,4.9,7,5.6 M5.4,3.5c0-0.2-0.1-0.3-0.1-0.4C5.2,3.1,5.1,3,4.9,3H4.1v0.9h0.8
	c0.2,0,0.3-0.1,0.4-0.1S5.4,3.6,5.4,3.5 M5.5,5.5c0-0.2-0.1-0.3-0.1-0.4C5.3,5,5.2,5,4.9,5H4.1v1H5c0.2,0,0.3-0.1,0.4-0.1
	C5.5,5.8,5.5,5.7,5.5,5.5 M7.7,1.8h1.5v5.3H7.7V1.8z M11.7,1.8l1.1,2.7l0.2,0.5l0,0l0.2-0.5l1.1-2.7h1.6v5.3h-1.4V4.9V4.3l0,0
	l-0.2,0.5l-0.8,2.3h-1l-0.9-2.3l-0.2-0.5l0,0v0.6v2.3h-1.3V1.8H11.7z M20.9,5.6c0,0.2-0.1,0.5-0.1,0.7c-0.1,0.2-0.2,0.4-0.4,0.5
	C20.3,6.8,20.1,7,19.8,7c-0.2,0.1-0.5,0.1-0.9,0.1h-2.3V1.8h2.3c0.3,0,0.6,0.1,0.8,0.1C20,2,20.1,2.1,20.3,2.2
	c0.2,0.1,0.3,0.2,0.4,0.4s0.1,0.4,0.1,0.6c0,0.3-0.1,0.5-0.2,0.7c-0.1,0.2-0.3,0.3-0.5,0.4l0,0C20.6,4.5,20.9,4.9,20.9,5.6
	 M19.3,3.5c0-0.2-0.1-0.3-0.1-0.4C19.1,3.1,19,3,18.8,3h-0.8v0.9h0.8c0.2,0,0.3-0.1,0.4-0.1C19.3,3.7,19.3,3.6,19.3,3.5 M19.4,5.5
	c0-0.2-0.1-0.3-0.1-0.4C19.2,5,19.1,5,18.9,5h-0.8v1h0.9c0.2,0,0.3-0.1,0.4-0.1C19.4,5.8,19.4,5.7,19.4,5.5 M24.5,6.2h-1.7l-0.2,0.9
	H21l1.8-5.3h1.8l1.8,5.3h-1.7L24.5,6.2z M23.5,3.6L23.1,5h1.1l-0.4-1.5L23.7,3l0,0L23.5,3.6z M29.4,1.8l0.7,1.8l0.2,0.5l0,0l0.2-0.5
	l0.7-1.8h1.6l-1.8,3.7v1.7h-1.6V5.5l-1.8-3.7H29.4z M38.6,5.9v1.3h-3.5V1.8h1.5v4.1H38.6z M43.7,4.5c0,0.5-0.1,0.9-0.1,1.3
	c-0.1,0.4-0.2,0.7-0.4,0.8C43,6.8,42.7,7,42.4,7.1c-0.3,0.1-0.7,0.2-1.1,0.2c-0.8,0-1.5-0.2-1.8-0.7c-0.4-0.5-0.6-1.1-0.6-2.1
	c0-0.5,0.1-0.9,0.1-1.2c0.1-0.4,0.2-0.7,0.4-0.9c0.2-0.2,0.5-0.4,0.8-0.5c0.3-0.1,0.7-0.2,1.1-0.2s0.8,0.1,1.1,0.2
	c0.3,0.1,0.5,0.3,0.8,0.5c0.2,0.2,0.4,0.5,0.4,0.8C43.6,3.6,43.7,4,43.7,4.5 M42.1,4.5c0-0.3,0-0.5-0.1-0.7c0-0.2-0.1-0.4-0.1-0.4
	c-0.1-0.1-0.2-0.2-0.3-0.2C41.5,3,41.4,3,41.2,3S41,3,40.8,3.1c-0.1,0.1-0.2,0.1-0.2,0.2c-0.1,0.1-0.1,0.2-0.1,0.5
	c0,0.2-0.1,0.4-0.1,0.7s0,0.5,0.1,0.7c0,0.2,0.1,0.4,0.1,0.5c0.1,0.1,0.2,0.2,0.3,0.2C41,5.9,41.1,6,41.2,6c0.2,0,0.3,0,0.4-0.1
	c0.1-0.1,0.2-0.1,0.2-0.2c0.1-0.1,0.2-0.3,0.2-0.5C42.1,5,42.1,4.8,42.1,4.5 M47.7,5.9v1.3h-3.5V1.8h1.5v4.1H47.7z M51.5,6.2h-1.7
	l-0.2,0.9H48l1.8-5.3h1.8l1.8,5.3h-1.7L51.5,6.2z M50.6,3.6L50.2,5h1.1l-0.4-1.5L50.8,3l0,0L50.6,3.6z"/>
</svg>
