<?xml version="1.0" encoding="utf-8"?>
<!-- Generator: Adobe Illustrator 25.1.0, SVG Export Plug-In . SVG Version: 6.00 Build 0)  -->
<svg version="1.1" xmlns="http://www.w3.org/2000/svg" xmlns:xlink="http://www.w3.org/1999/xlink" x="0px" y="0px"
	 viewBox="0 0 258.85 272.24" style="enable-background:new 0 0 258.85 272.24;" xml:space="preserve">
<style type="text/css">
	.st0{display:none;}
	.st1{display:inline;fill:none;stroke:#253241;stroke-width:12;stroke-linecap:round;stroke-linejoin:round;stroke-miterlimit:10;}
	.st2{fill:none;stroke:#253241;stroke-width:12;stroke-linecap:round;stroke-linejoin:round;stroke-miterlimit:10;}
</style>
<g id="Layer_2" class="st0">
	<path class="st1" d="M163.7,87.24c0,0,1.74-55.13-43.33-55.13c-42.42,0-41.28,36.65-46.29,51.85c-7.56,22.95-9.6,64.93-9.6,64.93
		s28.09-0.49,34.2,3.1c3.3,1.94,1.68,9.21-0.65,14.07c-2.73,5.68-60.1,16.68-59.47,30.08c0.7,14.73,1.6,21.96,1.6,21.96l68.37,0.48"
		/>
	<path class="st1" d="M148.75,182.33l0.5,26.84l9.43,9.44h21.84l8.65-10.85l-0.09-26.01c0,0,21.05-14.36,21.05-35.86
		c0-20.59-16.2-40.02-40.83-40.02c-9.89,0-39.99,7.69-39.99,42.34C129.31,170.97,148.75,182.33,148.75,182.33z"/>
	<polyline class="st1" points="170.2,148.19 169.72,193.24 187.67,193.33 150.45,193.43 	"/>
</g>
<g id="Layer_5" class="st0">
	<polygon class="st1" points="112.6,169.74 112.84,233.24 137.85,233 137.6,169.74 	"/>
	<polyline class="st1" points="48.02,71.54 64.48,71.53 64.24,48.14 186.15,48.64 185.9,96.43 64.76,96.44 64.51,70.66 	"/>
	<polyline class="st1" points="125.23,169.74 125.23,133.78 211.82,121.02 211.62,72.54 186.65,72.89 	"/>
</g>
<g id="Layer_7">
	<g>
		<path class="st2" d="M162.53,112.87l-0.26-44.88c-0.06-10.14-8.29-18.34-18.44-18.35l-87.36-0.07
			C46.27,49.57,38,57.82,37.99,68.01l-0.15,147.52C37.83,225.73,46.09,234,56.29,234h87.48"/>
		<line class="st2" x1="61.39" y1="73.5" x2="137.86" y2="73.5"/>
		<line class="st2" x1="100.18" y1="208.04" x2="100.18" y2="210.34"/>
		<line class="st2" x1="193.09" y1="205.37" x2="193.09" y2="207.66"/>
		<path class="st2" d="M162.88,150.08v68.8c0,8.36,6.8,15.12,15.16,15.07l31.42-0.2c8.28-0.05,14.97-6.78,14.97-15.07v-68.61
			c0-8.32-6.75-15.07-15.07-15.07h-31.42C169.63,135.02,162.88,141.76,162.88,150.08z"/>
	</g>
</g>
</svg>
