<?xml version="1.0" encoding="utf-8"?>
<!-- Generator: Adobe Illustrator 25.1.0, SVG Export Plug-In . SVG Version: 6.00 Build 0)  -->
<svg version="1.1" id="Layer_1" xmlns="http://www.w3.org/2000/svg" xmlns:xlink="http://www.w3.org/1999/xlink" x="0px" y="0px"
	 viewBox="0 0 365 71.3" style="enable-background:new 0 0 365 71.3;" xml:space="preserve">
<g id="XMLID_60_">
	<path id="XMLID_54_" d="M200.7,23.7c-5.5-0.6-10.2,1.1-14.2,5.9v-1.5V2V1.8V0l-14.5,1.8v68.5h14.5v-4.1c2,1.4,3.9,3.1,6.1,3.9
		c8.5,3,19.6,0.6,23.5-10.8c2.5-7.3,2.4-14.7,0.6-22.1C214.5,29.1,209.1,24.6,200.7,23.7z M202.8,53.3c-0.6,4.5-4.2,6.9-8.5,6.5
		c-1.1-0.1-2-0.3-2.9-0.6c-3.4-2-4.5-5.3-4.8-7.4l0,0c-0.2-3.2-0.5-9.9,1.1-13.1c1.3-2.4,3.7-3.8,6.7-3.9c4.4-0.1,7.7,2,8.3,6.5
		C203.4,45.3,203.4,49.4,202.8,53.3z"/>
	<path id="XMLID_50_" d="M252.1,24.5c-5-1.4-10.1-1.3-15.2,0c-7.5,2-12.6,6.8-14.2,14.4c-0.9,4.1-1.1,8.5-0.8,12.8
		c0.5,9.7,6.5,16.6,15.9,18.8l0.4,0.1h0l0.1,0c0.4,0.1,0.7,0.1,1.1,0.2l0.4,0h0c0.5,0.1,1,0.1,1.6,0.2c1.8,0.2,4.1,0.3,6.1,0.1l0,0
		l0.3,0c9.6-0.5,16.9-6.6,19.1-15.9c1.2-5.1,1.2-10.2,0-15.4C265,31.8,260.1,26.7,252.1,24.5z M252.8,52.6c0,0.3-0.1,0.6-0.2,0.9
		c-1,4.3-4.1,6.6-8.2,6.4c-4.5-0.2-7.5-2.8-8-7.3c-0.3-3.3-0.3-6.6-0.1-9.8c0.4-5.1,3.6-8,8.5-7.9c4,0.1,6.8,2.3,7.8,6.1
		C253.5,44.9,252.8,51.7,252.8,52.6z"/>
	<path id="XMLID_49_" d="M34.1,24.3H23.7v-6.9c0.8-6.5,11.5-5.3,11.5-5.3l0-0.4l0-0.1V0.9h0v0h0C34.8,0.8,13.8-4.2,9.6,11.8l0,0
		l0,0.1C8.9,14,9,23.1,9,24.3H0v12.3h9.5v33.4h13.9V36.6h10.6l1.2-12.3H34.1z"/>
	<path id="XMLID_46_" d="M67.2,30.2c-0.2-0.2-0.3-0.4-0.5-0.5v0l-0.1-0.1c-0.2-0.2-0.3-0.4-0.3-0.4c-3.3-3.3-4.5-4.2-7.1-4.9
		c-9.9-2.9-19.5,2.3-22.5,12.2C34.9,42.6,34.9,48.9,36,55c2.4,13.4,12.3,17.8,22.9,15.6c3.3-0.7,5.7-2.7,7.9-5.5
		c0,0,0.2-0.2,0.4-0.7v5.9h13.6V24.3H67.2L67.2,30.2L67.2,30.2z M66,53.3c-0.5,4.2-3.9,6.8-8,6.6c-4.2-0.2-6.9-2.4-7.8-6.4
		c-1.1-5.7,0.2-12.4,0.3-13c1.1-3.8,3.9-5.7,7.9-5.6c4,0.1,7.1,2.5,7.5,6.6C66.4,45.4,66.4,49.4,66,53.3z"/>
	<path id="XMLID_45_" d="M122.2,67c-0.6-2.3-1.3-4.6-2-6.8l-0.7-2.4c0,0-17,8.2-19.6-7.3c-0.2-2.6-0.2-5.2,0.2-7.7
		c0.7-4.8,3.6-7.3,8.2-7.8c1.6-0.1,3.2-0.1,4.7,0.2c2.1,0.4,4.2,1,6.5,1.6c0.8-2.5,1.6-4.9,2.4-7.3c0.1-0.4,0.2-0.7,0.3-1h0l0.4-1.5
		c-0.1-0.2-0.3-0.4-0.6-0.6v0c-0.4-0.3-1.1-0.6-2.1-1c-0.4-0.2-0.8-0.3-1.2-0.4c-0.4-0.1-0.6-0.2-0.6-0.2h0c-4.5-1.3-9-1.4-13.7-0.9
		c-9.8,1-16.5,6.8-18.3,16.4c-1,5-0.9,10.1,0.2,15.2C87.7,63,92.3,67.9,99.7,70c4.9,1.4,9.8,1.5,14.8,0.7c2.1-0.3,5.1-1.4,7.2-2.2
		l0.8-0.3L122.2,67L122.2,67z"/>
	<path id="XMLID_42_" d="M166.9,49c-0.1-3.2,0-6.4-0.5-9.5c-1.2-8.6-6.5-14-14.9-15.4c-3.2-0.5-6.6-0.5-9.9-0.2
		c-9,0.9-15.8,6.4-17.1,14.8c-0.8,5.1-1,10.5-0.3,15.6c1,7.7,4.8,12.6,11.3,14.9h0l0.1,0l0,0c3,0.9,17.4,4.7,30.2-1.7l-0.5-1.9l0,0
		c-0.6-2.5-1.3-5-2-7.5l-0.1-0.2c0,0-0.3,0.1-0.7,0.2l0,0c-0.6,0.1-1.1,0.3-1.7,0.5l-0.3,0.1c-1.9,0.5-4.7,1.2-7.6,1.6
		c-2.4,0.2-4.9,0.3-7.4,0c-4.1-0.7-7.2-2.8-7-8h2.3c7.9,0,15.9,0,23.8,0c0.2,0,0.4,0,0.6,0l0,0l1.8,0V52L166.9,49z M153.8,42.8
		h-15.7c0.1-3.1,0.5-6,3.2-7.8c2.9-1.9,6.2-1.9,9.2-0.3C153.7,36.4,153.9,39.5,153.8,42.8z"/>
	<polygon id="XMLID_41_" points="365,24.8 349.6,24.8 336.2,45.7 336.2,2.1 336.2,1.8 336.2,0 321.7,1.8 321.7,70.3 336.2,70.3 
		336.2,49.3 349.6,70.3 365,70.3 350.5,47.5 	"/>
	<path id="XMLID_35_" d="M301.7,24.5c-5-1.4-10.1-1.3-15.2,0c-7.5,2-12.6,6.8-14.2,14.4c-0.9,4.1-1.1,8.5-0.8,12.8
		c0.5,9.7,6.5,16.6,15.9,18.8l0.4,0.1h0l0.1,0c0.4,0.1,0.7,0.1,1.1,0.2l0.4,0l0,0c0.5,0.1,1,0.1,1.6,0.2c1.8,0.2,4.2,0.3,6.1,0.1
		l0,0l0.3,0c9.6-0.5,16.9-6.6,19.1-15.9c1.2-5.1,1.2-10.2,0-15.4C314.5,31.8,309.7,26.7,301.7,24.5z M302.3,52.6
		c0,0.3-0.1,0.6-0.2,0.9c-1,4.3-4.1,6.6-8.2,6.4c-4.5-0.2-7.5-2.8-8-7.3c-0.3-3.3-0.3-6.6-0.1-9.8c0.4-5.1,3.6-8,8.5-7.9
		c4,0.1,6.8,2.3,7.8,6.1C303.1,44.9,302.4,51.7,302.3,52.6z"/>
</g>
</svg>
