<?xml version="1.0" encoding="utf-8"?>
<!-- Generator: Adobe Illustrator 25.1.0, SVG Export Plug-In . SVG Version: 6.00 Build 0)  -->
<svg version="1.1" id="layer" xmlns="http://www.w3.org/2000/svg" xmlns:xlink="http://www.w3.org/1999/xlink" x="0px" y="0px"
	 viewBox="0 0 600.1 75" style="enable-background:new 0 0 600.1 75;" xml:space="preserve">
<g>
	<path d="M70.9,22.2l9.7-5.2c0,0-13.2-19.4-42.4-16.8C9.1,2.9,1.6,27,1.6,27s-9.4,28.7,17.8,44.2c0,0,27.7,14.8,52.7-3.2
		c0,0,14.9-10.6,14.4-31.1H57l0.2,9.7h16.5c0,0-5.3,20.5-30.4,20.3S12.6,48.4,12.6,48.4S3.5,21.8,31.2,12C31.2,12,54,4,70.9,22.2"/>
	<path d="M136,76.2c38.2,0.4,36.9-23.5,36.9-23.5V6.1h-9.7v43.1c0,0,1.8,18.6-27.2,17.8c-29.1,0.8-27.2-17.8-27.2-17.8V6.1h-9.7
		v46.6C99.1,52.6,97.8,76.6,136,76.2"/>
	<polygon points="188.3,7.1 247.7,7.1 247.7,16.1 198.2,16.1 198.2,34.8 237.1,34.8 237.1,44.1 198.2,44.1 198.2,65.5 247.7,65.5 
		247.7,74.9 188.3,74.9 	"/>
	<path d="M314.1,47.8c17.1-3.5,16.1-20,16.1-20c0-21.5-18.7-21.4-18.7-21.4l-49.8,0.1L261.6,75h9l0.1-26.5h32.2L319.6,75h10.5
		L314.1,47.8z M308.1,38.8h-37.3V15.6l38.2-0.1c0,0,11.7-1.2,11.7,11.7S308.1,38.8,308.1,38.8"/>
	<polygon points="343.3,6.4 353.1,6.4 353.1,65.4 403.7,65.4 403.7,74.9 343.3,74.9 	"/>
	<path d="M458.7,6.4h-12.6l-32.6,68.5h10.1l7.2-15.8l43,0.1l7.2,15.7h10.3L458.7,6.4z M435.6,49.6l16.7-34.8L469,49.6H435.6z"/>
	<rect x="502" y="6.4" width="9.2" height="68.5"/>
	<polygon points="527,6.4 539.9,6.4 590.1,63.9 590.1,6.4 600.1,6.4 600.1,74.9 587.4,74.9 536.9,17.2 536.9,74.9 527,74.9 	"/>
</g>
</svg>
