<?xml version="1.0" encoding="utf-8"?>
<!-- Generator: Adobe Illustrator 25.1.0, SVG Export Plug-In . SVG Version: 6.00 Build 0)  -->
<svg version="1.1" id="Layer_1" xmlns="http://www.w3.org/2000/svg" xmlns:xlink="http://www.w3.org/1999/xlink" x="0px" y="0px"
	 viewBox="0 0 258.9 272.2" style="enable-background:new 0 0 258.9 272.2;" xml:space="preserve">
<style type="text/css">
	.st0{fill:none;stroke:#253241;stroke-width:11;stroke-linecap:round;stroke-linejoin:round;stroke-miterlimit:10;}
</style>
<g>
	<path class="st0" d="M173.1,97.3c0,0,1.9-56.1-47.9-56.1C78.4,41.4,79.7,78.6,74,94.1c-8.3,23.3-10.6,65.9-10.6,65.9
		s31.1-0.6,37.7,3.2c3.6,1.9,1.9,9.3-0.8,14.2c-3,5.7-66.3,16.9-65.8,30.5c0.8,15,1.7,22.4,1.7,22.4l75.4,0.6"/>
	<path class="st0" d="M156.6,194l0.6,27.3l10.4,9.7h24.1l9.5-11l-0.2-26.3c0,0,23.3-14.6,23.3-36.4c0-20.8-17.8-40.7-45.1-40.7
		c-11,0-44.2,7.8-44.2,43C135,182.4,156.6,194,156.6,194z"/>
	<polyline class="st0" points="180.3,159.3 179.8,205.2 199.7,205.2 158.5,205.4 	"/>
</g>
</svg>
