<?xml version="1.0" encoding="utf-8"?>
<!-- Generator: Adobe Illustrator 25.1.0, SVG Export Plug-In . SVG Version: 6.00 Build 0)  -->
<svg version="1.1" id="Layer_1" xmlns="http://www.w3.org/2000/svg" xmlns:xlink="http://www.w3.org/1999/xlink" x="0px" y="0px"
	 viewBox="0 0 187.1 34.2" style="enable-background:new 0 0 187.1 34.2;" xml:space="preserve">
<style type="text/css">
	.st0{fill-rule:evenodd;clip-rule:evenodd;}
</style>
<g>
	<polygon class="st0" points="24.8,27.9 24.8,31.9 0,31.9 0,4.6 4.5,4.6 4.5,27.9 24.8,27.9 	"/>
	<polygon class="st0" points="21.4,14.5 26.3,5.1 21.6,5.1 17.9,14.5 21.4,14.5 	"/>
	<path class="st0" d="M62,9.1c-1.6-2.5-4-4.7-6.7-6.1c-2.8-1.5-6-2.2-9.1-2.2c-3.2,0-6.4,0.8-9.1,2.2c-2.8,1.5-5.1,3.6-6.7,6.1
		c-1.6,2.5-2.5,5.5-2.5,8.4c0,2.9,0.9,5.9,2.5,8.4c1.6,2.5,4,4.7,6.7,6.1c2.8,1.5,6,2.2,9.1,2.2c3.2,0,6.4-0.8,9.1-2.2
		c2.8-1.5,5.1-3.6,6.7-6.1c1.6-2.5,2.5-5.5,2.5-8.4C64.5,14.5,63.6,11.6,62,9.1L62,9.1L62,9.1L62,9.1z M58.1,24.2
		c-1.2,2-3,3.7-5,4.8c-2.1,1.1-4.5,1.8-6.9,1.8c-2.4,0-4.8-0.6-6.9-1.8c-2.1-1.1-3.8-2.8-5-4.8c-1.2-2-1.8-4.3-1.8-6.6
		c0-2.3,0.6-4.6,1.8-6.6c1.2-2,3-3.7,5-4.8c2.1-1.1,4.5-1.8,6.9-1.8c2.4,0,4.8,0.6,6.9,1.8c2.1,1.1,3.8,2.8,5,4.8
		c1.2,2,1.8,4.3,1.8,6.6C60,19.9,59.3,22.2,58.1,24.2L58.1,24.2L58.1,24.2L58.1,24.2z"/>
	<path class="st0" d="M95.7,16.4c-0.8,1.8-2.3,2.8-3.5,3.4c-1.2,0.6-2.1,0.8-2.9,0.8l0,0l8.7,11.3h-5L84.5,21h-11v10.9h-4.5V4.6H87
		l0,0c1.8,0,3.6,0.4,5.3,1.3c1.6,0.9,3,2.3,3.7,4.2C96.6,12.1,96.5,14.6,95.7,16.4L95.7,16.4z M90.7,16.2c0.9-0.8,1.5-2.1,1.5-3.4
		c0-1.3-0.7-2.6-1.6-3.4c-0.9-0.8-2.1-0.8-3.3-0.8l0,0H73.5V17h13.7l0,0C88.4,17,89.7,17,90.7,16.2L90.7,16.2z"/>
	<polygon class="st0" points="121.5,16.3 121.5,20 106.3,20 106.3,27.9 126.7,27.9 126.7,31.9 101.9,31.9 101.9,4.6 126.7,4.6 
		126.7,8.6 106.3,8.6 106.3,16.3 121.5,16.3 	"/>
	<polygon class="st0" points="121.7,0.4 115,0.4 112.3,3.8 121.7,0.4 	"/>
	<path class="st0" d="M135.5,25l-3.5,7h-4.5l13.9-27.3h4.5l13.9,27.3h-4.5l-3.5-7H135.5L135.5,25z M143.6,9l-6.4,12.5H150L143.6,9
		L143.6,9z"/>
	<polygon class="st0" points="186.8,27.9 186.8,31.9 162,31.9 162,4.6 166.5,4.6 166.5,27.9 186.8,27.9 	"/>
	<path class="st0" d="M184.9,10.1l0-0.7l0,0c0-0.1,0-0.2,0-0.4c0-0.1-0.1-0.3-0.2-0.4c-0.1-0.1-0.2-0.1-0.3-0.2
		c0.2-0.1,0.3-0.2,0.5-0.4c0.1-0.2,0.2-0.4,0.2-0.7c0-0.3-0.1-0.5-0.2-0.8c-0.3-0.4-0.8-0.5-1.3-0.5l0,0h-2v4.6h0.8V8.9h1.1l0,0
		c0.1,0,0.3,0,0.5,0.1c0.3,0.3,0.2,0.8,0.2,1.1c0,0.2,0,0.4,0.1,0.6l0,0h0.9v-0.1l0,0C184.9,10.5,184.9,10.3,184.9,10.1L184.9,10.1
		L184.9,10.1L184.9,10.1z M184,8.1c-0.2,0.2-0.5,0.2-0.7,0.1l0,0h-1.1V6.8l0,0c0.5,0,0.9,0,1.4,0c0.2,0,0.4,0.1,0.5,0.4
		C184.2,7.5,184.2,7.8,184,8.1L184,8.1L184,8.1L184,8.1z"/>
	<path class="st0" d="M186.6,6.5c-0.3-0.6-0.8-1.1-1.4-1.4c-0.6-0.3-1.3-0.5-1.9-0.5c-0.7,0-1.3,0.2-1.9,0.5
		c-0.6,0.3-1.1,0.8-1.4,1.4c-0.3,0.6-0.5,1.3-0.5,1.9c0,0.7,0.2,1.3,0.5,1.9c0.3,0.6,0.8,1.1,1.4,1.4c0.6,0.3,1.3,0.5,1.9,0.5
		c0.7,0,1.3-0.2,1.9-0.5c0.6-0.3,1.1-0.8,1.4-1.4c0.3-0.6,0.5-1.3,0.5-1.9C187.1,7.8,186.9,7.1,186.6,6.5L186.6,6.5L186.6,6.5
		L186.6,6.5z M186.1,10.1c-0.3,0.5-0.7,0.9-1.2,1.2c-0.5,0.3-1.1,0.4-1.6,0.4c-0.6,0-1.1-0.2-1.6-0.4c-0.5-0.3-0.9-0.7-1.2-1.2
		C180.2,9.6,180,9,180,8.5s0.2-1.1,0.4-1.6c0.3-0.5,0.7-0.9,1.2-1.2c0.5-0.3,1.1-0.4,1.6-0.4c0.6,0,1.1,0.2,1.6,0.4
		c0.5,0.3,0.9,0.7,1.2,1.2c0.3,0.5,0.4,1.1,0.4,1.6S186.4,9.6,186.1,10.1L186.1,10.1L186.1,10.1L186.1,10.1z"/>
</g>
</svg>
