<?xml version="1.0" encoding="utf-8"?>
<!-- Generator: Adobe Illustrator 25.1.0, SVG Export Plug-In . SVG Version: 6.00 Build 0)  -->
<svg version="1.1" id="Layer_1" xmlns="http://www.w3.org/2000/svg" xmlns:xlink="http://www.w3.org/1999/xlink" x="0px" y="0px"
	 viewBox="0 0 1824 328" style="enable-background:new 0 0 1824 328;" xml:space="preserve">
<path d="M747.9,150.5c4.7,2.3,9.9,3.5,15.8,3.5s11.7-1.2,16.4-3.5s7-5.2,7-8.2c0-3.5-2.3-5.8-7-8.2s-9.9-3.5-16.4-3.5
	s-11.7,1.2-15.8,3.5c-4.7,2.3-6.4,4.7-6.4,8.2S743.8,148.7,747.9,150.5z M1073.5,150.5c4.7,2.3,9.9,3.5,16.4,3.5s11.7-1.2,15.8-3.5
	c4.7-2.3,6.5-5.2,6.5-8.2c0-3.5-2.3-6.5-6.5-8.2c-4.1-1.7-9.9-3.5-15.8-3.5c-6.4,0-11.7,1.2-16.4,3.5s-6.5,5.2-6.5,8.2
	C1067,145.2,1069.4,148.1,1073.5,150.5L1073.5,150.5z"/>
<path d="M1493.2,214.2h-278.8c-58.5-7.6-63.7-32.7-65.5-42.1v-7v-0.6c5.2-27.5,26.3-42.7,64.9-46.8h278.8c6.5,0,11.7-5.2,11.7-11.7
	s-5.2-11.7-11.7-11.7h-281.2c-62.5,6.4-81.2,39.2-86.5,66c-0.6,1.2-1.2,2.9-0.6,4.7l0.6,10.5v1.2c1.8,10.5,5.8,19.9,11.7,27.5
	L1084,175L934.3,90.8c-3.5-2.9-9.4-3.5-13.5-1.2L719.1,207.1V102c0-6.5-5.2-11.7-11.7-11.7c-1.2,0-2.3,0-3.5,0.6
	c-1.8,0-3.5,0.6-4.7,1.2l-178.9,85.3c-1.2,0.6-1.8,1.2-2.3,1.8l-19.3,9.4l20.5,10.5c1.8,1.2,3.5,1.2,5.2,1.2c1.8,0,4.1,0,5.8-1.2
	L695,119.6V226c0,3.5,1.8,6.5,4.1,8.8c3.5,4.7,10,5.2,15.2,2.9l71.3-41.5h0.6l40.3-23.9L927,113.8l105.8,58.5H846.9L806,196.2h268.9
	l77.2,43.3c5.8,2.9,12.9,1.2,16.4-4.7c1.2-2.3,1.8-4.7,1.2-7c11.7,4.7,25.7,8.2,42.1,9.9h281.8c6.5,0,11.7-5.2,11.7-11.7
	s-5.2-11.7-11.7-11.7L1493.2,214.2L1493.2,214.2z M353.9,88.6c-5.8-2.9-12.9-0.6-15.8,5.2c-0.6,1.8-1.2,3.5-1.2,5.2
	c-0.6,1.2-0.6,2.4-0.6,3.6v124.5c0,6.5,5.2,11.7,11.7,11.7s11.7-5.2,11.7-11.7V118.4l127.4,64.3l26.9-13.5L353.9,88.6z"/>
</svg>
