<?xml version="1.0" encoding="utf-8"?>
<!-- Generator: Adobe Illustrator 21.0.0, SVG Export Plug-In . SVG Version: 6.00 Build 0)  -->
<svg version="1.1" id="Calque_1" xmlns="http://www.w3.org/2000/svg" xmlns:xlink="http://www.w3.org/1999/xlink" x="0px" y="0px"
	 viewBox="0 0 408.1 74.2" style="enable-background:new 0 0 408.1 74.2;" xml:space="preserve">
<g>
	<path d="M371.3,11.7l-0.2,0l-0.2,0c-5.7,0-24.4,1.8-24.5,25.2c0,24.4,20.5,25.6,24.6,25.6h0.2c2.6,0,11.5-0.5,17.9-6.8
		c4.5-4.4,6.7-10.8,6.7-18.8C395.7,13.5,377,11.7,371.3,11.7z M378.6,52.6c-1.4,1.2-3.7,2.6-7.2,2.6h-0.7c-3.5,0-5.8-1.4-7.2-2.6
		c-3.5-3.1-5.3-8.7-5.3-16.6c0.1-15.5,7.8-17.8,12.4-17.8h0.7c4.6,0,12.3,2.3,12.4,17.8C383.9,43.9,382.1,49.5,378.6,52.6z"/>
	<path d="M75.8,70.1c-4.5-1.7-11.1-6.6-15-11.2C56,53.4,44.4,38,44.3,37.9c-1.6-2.1-3.4-4.5-5.3-7c-5.1-7-10.9-14.8-16.7-19.5v51h7
		V36l0.1,0.2c1.9,2.4,3.9,5,5.9,7.6c3.3,4.2,6.6,8.6,9.4,11.8c1.9,2.2,6.9,7.5,8.3,8.7c6.4,6.1,16.8,10,27.1,10
		c4.5,0,8.8-0.7,12.8-2v-0.3c-1.6,0.3-3.4,0.5-5.2,0.5C83.8,72.3,79.7,71.6,75.8,70.1z"/>
	<path d="M31.7,15.4c4.8,5.4,16.8,20.8,17,21c1.6,2.1,3.4,4.5,5.3,7c5.1,7,10.9,14.8,16.6,19.5V11.7h-6.9v26.5L63.5,38
		c-1.9-2.4-3.9-5-5.9-7.6c-3.3-4.2-6.6-8.6-9.4-11.8c-1.9-2.2-7.3-7.5-8.7-8.7C33.1,3.8,22.7,0,12.4,0C7.9,0,4,0.7,0,2.1v0.3
		C1.6,2,3.4,1.9,5.3,1.9c3.9,0,7.7,0.8,11.5,2.3C21.3,5.8,27.9,10.7,31.7,15.4z"/>
	<path d="M302.1,37.7c-5.7-4.9-12-6.1-16.8-9.4c-3.3-2.7-3.2-6.3-1.4-8.1c4.1-4.5,12.3-2.7,14.4-2.2c2.5,0.6,3.8,1.3,6.1,2.4v-5.7
		c-10-3-26-5.8-32.2,4.4c-2.3,4.2-2.9,11.8,3.8,16.3c6.7,5.3,18.3,7.8,19.6,12.2c0.9,2.4-0.1,4.7-1.7,6.3
		c-5.9,5.6-16.1,2.2-22.2-0.6v6.1c6.7,3,15.1,3.8,22.6,2.2c5.1-1.3,10.9-5.8,11.7-11.5C306.9,44.4,305.8,40.8,302.1,37.7z"/>
	<path d="M339.1,37.7c-5.7-4.9-12-6.1-16.8-9.4c-3.3-2.7-3.2-6.3-1.4-8.1c4.1-4.5,12.3-2.7,14.4-2.2c2.5,0.6,3.8,1.3,6.1,2.4v-5.7
		c-10-3-26-5.8-32.2,4.4c-2.3,4.2-2.9,11.8,3.8,16.3c6.7,5.3,18.3,7.8,19.6,12.2c0.9,2.4-0.1,4.7-1.7,6.3c-6,5.6-16.1,2.2-22.2-0.6
		v6.1c6.7,3,15.1,3.8,22.6,2.2c5.1-1.3,10.9-5.8,11.8-11.5C343.8,44.4,342.7,40.8,339.1,37.7z"/>
	<polygon points="235.8,61.1 267.9,61.1 267.9,55.3 246.9,55.3 246.9,39.3 263.7,39.3 263.7,33.7 246.9,33.7 246.9,18.9 267.9,18.9 
		267.9,13.1 235.8,13.1 	"/>
	<path d="M143.6,37.7c-5.7-4.9-12-6.1-16.8-9.4c-3.3-2.7-3.2-6.3-1.4-8.1c4.1-4.5,12.3-2.7,14.4-2.2c2.5,0.6,3.8,1.3,6.1,2.4v-5.7
		c-10-3-26-5.8-32.2,4.4c-2.3,4.2-2.9,11.8,3.8,16.3c6.7,5.3,18.3,7.8,19.6,12.2c0.9,2.4-0.1,4.7-1.7,6.3
		c-5.9,5.6-16.1,2.2-22.2-0.6v6.1c6.7,3,15.1,3.8,22.6,2.2c5.1-1.3,10.9-5.8,11.8-11.5C148.3,44.4,147.2,40.8,143.6,37.7z"/>
	<polygon points="77.4,61.1 109.6,61.1 109.6,55.3 88.5,55.3 88.5,39.3 105.3,39.3 105.3,33.7 88.5,33.7 88.5,18.9 109.6,18.9 
		109.6,13.1 77.4,13.1 	"/>
	<path d="M173.6,12.6h-21.1v49.1h11.2c0,0,0-1.1,0-3l-0.2-15c0,0,16.8,1.1,21.9-5.7c3.7-4.3,4-11,2.4-16.4
		C185.7,15.5,179.8,12.7,173.6,12.6z M176,34.7c-3,3.3-8.1,2.8-12.5,2.5V18.9c0,0,9-2,12.8,3C178.4,24.6,178.5,31.3,176,34.7z"/>
	<path d="M225,37.9c3.6-4.2,3.9-10.8,2.4-16.1c-2-5.9-7.8-8.7-13.9-8.8h-20.7v48.1h11l-0.1-17.7c0,0,2,0.2,5.3,0l10.6,17.8h12.1
		l-12.2-19.8C221.5,40.6,223.8,39.5,225,37.9z M216.1,34.7c-3,3.2-8,2.8-12.2,2.5v-18c0,0,8.8-2,12.5,2.9
		C218.5,24.8,218.6,31.4,216.1,34.7z"/>
	<path d="M402,50.4c-3.5,0-6.3,2.7-6.3,6.1c0,3.4,2.8,6.1,6.3,6.1c3.3,0,6.1-2.6,6.1-6.1C408.1,53.1,405.3,50.4,402,50.4z M402,61.9
		c-3.1,0-5.7-2.3-5.7-5.4c0-3,2.5-5.4,5.7-5.4c3,0,5.5,2.5,5.5,5.4C407.5,59.6,405,61.9,402,61.9z"/>
	<path d="M403.7,56.5c0.2-0.2,1.1-0.5,1.1-1.7c0-1.2-0.8-1.9-2.2-1.9h-3.3v6.8h1.1V57h1.9c1.1,0,1.4,0.5,1.4,1.7
		c0,0.5,0,0.8,0.2,1.1h1.3c-0.3-0.3-0.3-1.1-0.3-1.9C404.8,56.8,404.2,56.5,403.7,56.5z M402.5,56h-2v-2.2h2c0.6,0,1.3,0.1,1.3,1.1
		C403.7,55.6,403.3,56,402.5,56z"/>
</g>
</svg>
