<?xml version="1.0" encoding="utf-8"?>
<!-- Generator: Adobe Illustrator 25.1.0, SVG Export Plug-In . SVG Version: 6.00 Build 0)  -->
<svg version="1.1" id="Calque_1" xmlns="http://www.w3.org/2000/svg" xmlns:xlink="http://www.w3.org/1999/xlink" x="0px" y="0px"
	 viewBox="0 0 571.4 85.8" style="enable-background:new 0 0 571.4 85.8;" xml:space="preserve">
<g>
	<g>
		<path d="M3.6,60c2.9,12.3,11.9,18.6,23.8,18.6c8.9,0,18.9-5,18.9-16.3c0-10.2-5.8-12.3-14.2-14C11.3,43.9,0,40,0,24.4
			C0,11.7,12.6,0.8,32.1,0.8c5.1,0,15.8,1.4,20.1,4.2c-0.1,5.9,0.1,11.9,0.5,17.7h-2.4C48.6,11.6,38.7,7.9,30.2,7.9
			c-13.1,0-19.8,6.5-19.8,14.6c0,9.2,4.7,10.6,19.7,13.8c15.2,3.2,26.7,6.4,26.7,23.4c0,14.2-10.2,26.2-32.8,26.2
			c-7.5,0-15.2-1.5-22.1-6c0-6.6-0.2-13.2-0.7-19.8H3.6z"/>
		<path d="M61.8,12c-1.5-4.6-3-7.7-7.5-8.2V2c3.8,0,7.3,0.8,10.9,0.8c4.5,0,9-0.8,13.5-0.8v1.8C76,4,72.4,4.6,72.4,7.1
			c0,1.5,0.4,3.4,1.5,6.9l17.3,55.7h0.2c3.8-13.2,11.3-37,11.3-39.3c0-2.3-5.5-18.1-6.4-20.8c-1.6-4.3-5-5-9.5-5.7V2
			c5.6,0,11.3,0.8,16.9,0.8c3.9,0,7.8-0.8,11.5-0.8v1.8c-4.9,0.1-7.2,1.9-7.2,4.1c0,1.4,0.4,3.3,1.7,7.4l16.6,55.2h0.2L141.5,17
			c1-3.4,1.7-6.8,1.7-7.8c0-2.8-1-4.6-7.5-5.4V2c3.8,0,7.5,0.8,11.3,0.8c3.3,0,6.6-0.8,9.8-0.8v1.8c-3.9,0.9-5.5,3.2-7,8.8
			l-20.9,71.9h-9l-13.6-46.1h-0.2L93.6,84.5H85L61.8,12z"/>
		<path d="M139.4,82.7c4.1-0.1,5.2-1.4,7.6-8.4L168.7,12c0.4-1.3,0.7-2.7,0.7-4.2c0-2.9-1.2-3.3-3.9-4V2c3,0.4,6.2,0.8,9.2,0.8
			c2.1,0,4.2-0.4,6.3-0.8c0.5,3.6,1.9,8,4.1,14l20.5,56.3c3.2,8.6,3.8,9.5,8.1,10.3v1.8c-3.2,0-6.2-0.8-9.3-0.8
			c-4.7,0-9.5,0.8-14.2,0.8v-1.8c4.2-0.4,5.6-1.4,5.6-3.8c0-2.3-0.7-4.5-3.3-11.5l-5-14h-26.1L155.6,71c-1.2,3.4-1.9,6.8-1.9,8.6
			c0,1.9,1.2,3.1,6.3,3.2v1.8c-3.2,0-6.4-0.8-9.6-0.8c-3.6,0-7.3,0.8-10.9,0.8V82.7z M185.4,47l-10.8-31.7h-0.2L163.6,47H185.4z"/>
		<path d="M220.3,10c0-3.6-1.5-4.6-6.2-5.4V2.8h35.2c16.1,0,21.8,8.8,21.8,19.4c0,13-10.4,20.7-22.1,21.7l22.3,30.4
			c3.6,4.9,6.7,8,10.2,8.4v1.8c-2.2,0-4.2-0.8-6.3-0.8c-3.2,0-6.3,0.8-9.3,0.8c-1.3-0.4-2.5-2.4-12.4-16.9l-15.6-22.1
			c-1.5-2-2.4-3.2-2.4-3.7c0-0.8,1.3-1.3,2.3-1.3c12.6,0,21.5-5.5,21.5-16.7c0-12.1-10.3-13.9-20.5-13.9h-6.6v67.4
			c0,3.6,1.5,4.6,6.2,5.4l0,1.8c-2.5,0-7.5-0.8-12.1-0.8c-4.6,0-9.6,0.8-12.1,0.8v-1.8c4.7-0.8,6.2-1.8,6.2-5.4V10z"/>
		<path d="M315.7,0.8c26.9,0,37.6,22.9,37.6,41.5c0,22-15.4,43.5-39.4,43.5c-24.4,0-38-19.2-38-42.3C275.9,18.5,296.9,0.8,315.7,0.8
			z M316.8,77.1c12.9,0,25.4-10,25.4-30.3c0-22.3-14.6-37.4-30-37.4c-8.9,0-25.1,7.4-25.1,30.9C287.1,58.4,298.1,77.1,316.8,77.1z"
			/>
		<path d="M347,2c4.9,0,9.8,0.8,14.7,0.8c3.5,0,6.9-0.8,10.6-0.8v1.8c-4.6,0.1-6.2,1.3-6.2,3.7c0,1.4,0.8,4.1,1.3,5.5l19.4,56.7h0.2
			l17.3-54.9c1-3.2,1.6-5.6,1.6-7.2c0-2.6-3.3-3.3-5.7-3.8V2c3.6,0,7.4,0.8,11,0.8c3,0,6.1-0.8,9.1-0.8v1.8
			c-3.9,0.5-6.1,3.1-7.3,6.9l-23.8,73.8h-8.1l-26.7-75c-1.1-2.8-2.1-5.2-7.5-5.7V2z"/>
		<path d="M420.6,60c2.9,12.3,11.9,18.6,23.8,18.6c8.9,0,18.9-5,18.9-16.3c0-10.2-5.8-12.3-14.2-14C428.3,43.9,417,40,417,24.4
			c0-12.6,12.6-23.6,32.1-23.6c5.1,0,15.8,1.4,20.1,4.2c-0.1,5.9,0.1,11.9,0.5,17.7h-2.4c-1.7-11.1-11.6-14.8-20.1-14.8
			c-13.1,0-19.8,6.5-19.8,14.6c0,9.2,4.7,10.6,19.7,13.8c15.2,3.2,26.7,6.4,26.7,23.4c0,14.2-10.2,26.2-32.8,26.2
			c-7.5,0-15.2-1.5-22.1-6c0-6.6-0.2-13.2-0.7-19.8H420.6z"/>
		<path d="M504.8,39.2c5,5.2,10.1,9.8,15,15.8l18.8,22.7c2.5,3.1,4.4,4.6,8.1,5v1.8c-3.4-0.4-6.9-0.8-9.5-0.8
			c-3.2,0-5.7,0.4-7.6,0.8l-14.4-18c-6.8-8.4-14.4-15.8-22.1-23.4v34.2c0,3.6,1.5,4.6,6.2,5.4v1.8c-2.5,0-7.5-0.8-12.1-0.8
			c-4.6,0-9.6,0.8-12.1,0.8v-1.8c4.7-0.8,6.2-1.8,6.2-5.4V9.2c0-3.6-1.5-4.6-6.2-5.4V2c2.5,0,7.5,0.8,12.1,0.8
			c4.6,0,9.6-0.8,12.1-0.8v1.8c-4.7,0.8-6.2,1.8-6.2,5.4v32.2h0.2l25.7-29c3.3-3.7,3.9-4.7,3.9-5.9c0-1.7-1.6-2.4-5.3-2.7V2
			c4.5,0,8.9,0.8,13.3,0.8c3.6,0,7.2-0.8,10.9-0.8v1.8c-5,0.8-6.7,2.2-9.1,4.9L504.8,39.2z"/>
		<path d="M547.2,82.7c4.7-0.8,6.2-1.8,6.2-5.4V9.2c0-3.6-1.5-4.6-6.2-5.4V2c2.5,0,7.5,0.8,12.1,0.8c4.6,0,9.6-0.8,12.1-0.8v1.8
			c-4.7,0.8-6.2,1.8-6.2,5.4v68.2c0,3.6,1.5,4.6,6.2,5.4v1.8c-2.5,0-7.5-0.8-12.1-0.8c-4.6,0-9.6,0.8-12.1,0.8V82.7z"/>
	</g>
</g>
</svg>
