<?xml version="1.0" encoding="utf-8"?>
<!-- Generator: Adobe Illustrator 25.1.0, SVG Export Plug-In . SVG Version: 6.00 Build 0)  -->
<svg version="1.1" id="Layer_1" xmlns="http://www.w3.org/2000/svg" xmlns:xlink="http://www.w3.org/1999/xlink" x="0px" y="0px"
	 viewBox="0 0 187.1 101.8" style="enable-background:new 0 0 187.1 101.8;" xml:space="preserve">
<style type="text/css">
	.st0{fill-rule:evenodd;clip-rule:evenodd;}
	.st1{fill:#010101;}
</style>
<g>
	<path class="st0" d="M168.8,65.3h18.3v2.9c-0.5-0.2-1.1-0.3-1.7-0.3h-10.5v13.6h10.2c0.7,0,1.4-0.1,1.9-0.2v2.9
		c-0.5-0.1-1.1-0.2-1.9-0.2h-10.3v14.1h10.2c0.6,0,1.2-0.1,2-0.3v3.1h-18.3c0.1-0.5,0.2-1.1,0.2-1.7V67
		C169,66.3,168.9,65.7,168.8,65.3L168.8,65.3z"/>
	<path class="st0" d="M164.5,74.6l-5.3,0c-0.3-3-2-5.9-5.7-6.4c-8-0.7-10.3,8.1-10.1,14.6c0.2,6.2,1.2,15.8,9.5,15.8
		c3.5,0,6.8-3.6,6.7-6.6l4.9,0c-0.4,6.2-7.5,9.8-10.9,9.9c-11.6,0.4-16.5-7.3-16.7-18.4c-0.2-10,3.9-18.9,15.3-18.9
		C162.1,64.7,164,70.5,164.5,74.6L164.5,74.6z"/>
	<path class="st0" d="M82,97l3.5-2.9c1.8,3,3.3,4.4,7,4.4c3.7,0,6.8-2.2,6.8-6.2c0-2-0.8-3.5-2.4-4.7c-0.7-0.6-2.5-1.5-5.3-2.9
		c-4.2-2-8.4-4.7-8.4-10c0-6.7,5.7-9.7,11.7-9.9c3.6-0.1,8,1.8,9.8,4l-3.6,2.7c-1.6-2.8-4.3-3.9-6.5-3.9c-4.5,0-8.1,5.3-4.4,8.9
		c1,0.9,2.9,2.1,5.9,3.4c4.7,2.2,8.8,4.9,8.8,10.8c0,2-0.5,3.9-1.6,5.7c-2.1,3.5-5.6,5.2-10.6,5.2C87,101.6,85.8,100.3,82,97L82,97z
		"/>
	<path class="st0" d="M32,65.3h18.3v2.9c-0.5-0.2-1.1-0.3-1.7-0.3H38.1v13.6h10.2c0.7,0,1.4-0.1,1.9-0.2v2.9
		c-0.5-0.1-1.1-0.2-1.9-0.2H38.1v14.1h10.2c0.6,0,1.2-0.1,2-0.3v3.1H32c0.1-0.5,0.2-1.1,0.2-1.7V67C32.2,66.3,32.2,65.7,32,65.3
		L32,65.3z"/>
	<path class="st0" d="M0,65.3h6.7c0,0.1,0,0.2,0,0.3c0,0.3,0.1,0.7,0.3,1.2l9.4,28.3l9.6-28.4c0.1-0.5,0.2-0.9,0.2-1.4h3.2
		c-0.3,0.6-0.6,1.1-0.7,1.5l-11,32.8c-0.1,0.3-0.2,0.8-0.3,1.5h-5.5c-0.1-0.4-0.2-0.9-0.4-1.5L0.8,67.1C0.7,66.8,0.4,66.2,0,65.3
		L0,65.3L0,65.3z"/>
	<path class="st0" d="M70.7,83.9c4.4-0.9,7.7-4.2,7.7-9c0-6.3-5.2-9.7-11.1-9.7H56.6c0.1,0.5,0.2,1.1,0.2,1.7v32.4
		c0,0.7-0.1,1.3-0.2,1.7H63c-0.1-0.5-0.2-1.1-0.2-1.7V84.5l2,0.2l10.7,16.4h6.4L70.7,83.9L70.7,83.9z M69.6,81.2
		c-1.2,0.8-2.6,1.2-4.1,1.2h-2.7V67.9h2.4c2.1,0,3.7,0.5,4.9,1.6c1.6,1.4,2.4,3.4,2.4,5.8C72.4,77.9,71.5,79.8,69.6,81.2L69.6,81.2z
		"/>
	<path class="st0" d="M135.9,99.6l-11.9-33.1c-0.1-0.4-0.2-0.8-0.2-1.2h-5.2c0,0.4-0.1,0.9-0.2,1.3l-11.6,33c-0.2,0.5-0.4,1-0.7,1.5
		h3.3c0-0.5,0.1-1.1,0.2-1.5l3.4-9.7h13.2l3.4,9.7c0.2,0.5,0.3,1,0.3,1.5h6.9C136.3,100.5,136,100,135.9,99.6L135.9,99.6z
		 M113.9,87.2l5.6-16.2l5.7,16.2H113.9L113.9,87.2z"/>
</g>
<path class="st1" d="M65.1,29.1c0-0.3,0-0.7,0-1c0-0.2,0-0.4,0-0.7c0.2-6.2,2.4-11.7,6.1-16.5C77.4,3.1,86.4-0.8,96.4,0.1
	c6.4,0.7,12.1,3.4,16.8,8c5.2,5.2,8.1,12,8.4,19.3c0,0.3,0,0.7,0,1c0,0.2,0,0.4,0,0.7c-0.2,6.2-2.4,11.7-6.1,16.5
	c-6.2,7.7-15.2,11.7-25.3,10.7c-6.4-0.7-12.1-3.4-16.8-8C68.2,43.1,65.4,36.4,65.1,29.1L65.1,29.1z M121,29.1
	c0.4-11.2-6.3-21.8-16.8-26.3c-3.3-1.4-6.8-2.2-10.7-2.3c-1,0-2.1,0.1-3.1,0.2c-9.1,0.9-17.8,6.9-21.9,15.3
	c-1.8,3.5-2.8,7.3-2.9,11.5c-0.3,11.2,6.3,21.8,16.8,26.3c3.3,1.4,6.8,2.2,10.7,2.3c1,0,2.1-0.1,3.1-0.2c9.1-0.9,17.8-6.9,21.9-15.3
	C119.9,37,120.9,33.2,121,29.1L121,29.1L121,29.1L121,29.1z M115.4,13.2l-1.5,1l-0.3-0.1c-0.4-0.5-0.8-1.2-1.3-1.7h-0.1l-0.7,0.7
	l0.2,0.2c-0.1,0-0.3-0.1-0.4-0.1c-0.1,0-0.2,0-0.4-0.1l-0.1-0.1l1.5-1.4c0.6,0.6,1,1.3,1.6,1.9c0.3-0.1,0.6-0.3,0.9-0.6
	c-0.7-1.1-1.6-2.2-2.5-3.1l-0.1,0c-0.8,0.7-1.4,1.5-2.2,2.1c-1-0.9-2-1.9-3.1-2.6l-0.1-0.1c0.4-0.6,0.8-1.1,1.2-1.7
	c0.6,0.4,1.2,0.9,1.9,1.4c0.2-0.2,0.4-0.5,0.6-0.7V8.2c-0.9-0.8-1.9-1.5-2.9-2.1h-0.1c-0.5,0.8-1.1,1.7-1.6,2.5l-0.1,0.1
	c-1.1-0.7-2.3-1.4-3.6-1.9c0.3-0.6,0.5-1.3,0.8-1.9c0.7,0.3,1.4,0.7,2.2,1l0.5-0.9c-0.2-0.2-0.5-0.3-0.7-0.5
	c-0.8-0.4-1.7-0.8-2.6-1.1l-0.1,0l-1,2.9l-0.1,0c-0.7-0.2-1.3-0.4-2-0.6c-0.6-0.2-1.3-0.3-1.9-0.4c0.1-0.7,0.2-1.4,0.3-2.1l0.1,0
	c0.7,0.2,1.5,0.3,2.3,0.5c0.1-0.3,0.2-0.7,0.3-1c-1.2-0.3-2.3-0.6-3.5-0.7c-0.1,0.9-0.2,1.9-0.4,2.8c-0.1-0.2-0.2-0.4-0.3-0.6
	c0-0.1,0-0.1,0-0.1C96,3.3,96,2.4,96.1,1.6c0.2-0.1,0.3,0,0.4,0c1.4,0.2,2.9,0.5,4.2,0.9c-0.2,0.6-0.4,1.3-0.6,1.9
	c-0.4,0-0.9-0.2-1.3-0.3C98.6,4,98.3,4,98,3.9c-0.1,0.3-0.1,0.7-0.2,1c0.3,0.1,0.6,0.1,0.8,0.2c0.8,0.2,1.5,0.4,2.3,0.6
	c0.4-1,0.6-2,1-3c1.6,0.5,3,1.1,4.4,1.9l0,0c-0.3,0.6-0.7,1.2-1,1.8c-0.7-0.3-1.3-0.7-2.1-1c-0.1,0-0.1,0.1-0.2,0.2l-0.3,0.7
	c0.9,0.5,1.9,0.9,2.8,1.5c0.6-0.9,1.1-1.8,1.7-2.7c1.4,0.8,2.7,1.8,3.9,2.9l0,0.1l-1.3,1.4h-0.1c-0.5-0.5-1-0.9-1.6-1.3l-0.1,0
	l-0.6,0.8c0.8,0.7,1.7,1.4,2.5,2.2l2.2-2.2c1.2,1.2,2.3,2.5,3.3,3.9L115.4,13.2L115.4,13.2z M116,15.1l-0.3,0.2
	c-0.1-0.1-0.3-0.2-0.4-0.3c0.3-0.2,0.7-0.4,1-0.6c0.7,1,1.2,2.1,1.7,3.2c-0.1-0.1-0.2-0.2-0.3-0.3c-0.2-0.4-0.6-0.8-0.9-1.1
	C116.6,15.8,116.4,15.5,116,15.1L116,15.1L116,15.1L116,15.1z M70.8,14.9l1.6,0.9c-0.1,0.1-0.2,0.2-0.3,0.4
	c-0.6-0.4-1.3-0.7-1.9-1.1c0.2-0.4,0.4-0.8,0.7-1.2c0.7-1.1,1.5-2.1,2.4-3.1h0.1c0.4,0.4,1,0.9,1.4,1.3c-0.4,0.7-1,1.4-1.5,2l0,0.1
	l0.1,0.1c-0.1,0.1-0.3,0.2-0.4,0.4c-0.1-0.1-0.3-0.2-0.4-0.3v-0.1c0.5-0.7,1-1.4,1.5-2c-0.2-0.3-0.5-0.4-0.7-0.6h-0.1
	C72.2,12.6,71.4,13.7,70.8,14.9z M70.3,25.4c0,0.3-0.1,0.6-0.1,0.9c-0.2,0.1-0.4,0-0.7,0l-1.4-0.1c0-0.7,0.2-1.4,0.3-2.1l0.1,0
	c0.1,0.3,0.2,0.6,0.3,0.9c0,0.3-0.1,0.5-0.1,0.8c0.3,0.1,0.7,0.1,1,0.1l0.1-0.3h0.1C70.1,25.5,70.2,25.4,70.3,25.4L70.3,25.4z
	 M70.2,17.4c-0.1,0-0.2-0.1-0.3-0.2c-0.1,0-0.2-0.1-0.3-0.1c-0.2,0.4-0.4,0.9-0.6,1.3c-0.3,0.3-0.6,0.6-0.9,0.9c0.4-1,0.8-2,1.3-3
	l0.1,0c0.4,0.2,0.9,0.4,1.3,0.7C70.6,17.1,70.4,17.3,70.2,17.4L70.2,17.4z M94.8,5.1c-0.8,0-1.7,0-2.5,0c-0.1-0.7-0.1-1.4-0.1-2.1
	c0.8-0.1,1.5,0,2.3,0c0.1-0.3,0.1-0.7,0-1l0,0c-1.1-0.1-2.3-0.1-3.4,0.1L91,2.1c0.1,1,0.2,2,0.3,3l-0.1,0.1
	c-1.3,0.1-2.6,0.4-3.8,0.7c-0.2-0.7-0.4-1.3-0.6-2l0.1-0.1c0.7-0.1,1.4-0.3,2-0.5c0-0.3-0.1-0.7-0.2-1c-1.2,0.2-2.2,0.5-3.3,0.8v0.2
	c0.3,1,0.7,1.9,0.9,2.8c-0.9,0.3-1.8,0.7-2.7,1.1c-0.1-0.1-0.3-0.1-0.4,0c-0.2,0.2-0.4,0.4-0.6,0.5c-0.4-0.6-0.7-1.2-1-1.8
	c0.7-0.4,1.4-0.7,2.1-1c0-0.3-0.2-0.7-0.4-1c-1.1,0.5-2.2,1-3.3,1.7c0.5,0.9,1.1,1.8,1.6,2.7c-1.1,0.7-2.2,1.4-3.1,2.3L78,11
	c-0.5-0.5-0.9-1-1.4-1.5c0.3-0.4,0.8-0.7,1.2-1.1c0.2-0.2,0.6-0.4,0.8-0.6C78.5,7.5,78.2,7.2,78,7c-1.2,0.7-2.2,1.6-3.2,2.7
	c0.7,0.7,1.5,1.5,2.2,2.2l-0.3,0.3c-0.1,0-0.2,0.1-0.3,0.1c-0.3,0.1-0.5,0.2-0.8,0.4c0.1-0.2,0.3-0.3,0.4-0.5l0.3-0.3
	c-0.7-0.8-1.5-1.4-2.2-2.2c1.2-1.3,2.6-2.4,4-3.4h0.1l1.1,1.6v0.1c-0.7,0.5-1.3,1-1.9,1.5v0.1c0.2,0.3,0.4,0.5,0.7,0.7
	c0.9-0.7,1.8-1.5,2.8-2.1c-0.6-0.9-1.1-1.8-1.6-2.6c1.4-0.9,2.9-1.7,4.4-2.3c0.3,0.6,0.5,1.2,0.7,1.9l0,0.1c-0.7,0.3-1.4,0.6-2.1,1
	c0.1,0.3,0.3,0.6,0.5,0.9c1-0.5,2-0.9,3-1.3c-0.3-1-0.7-2-1-3c1.5-0.4,3-0.9,4.5-1.1c0.1,0.6,0.2,1.3,0.4,2
	c-0.4,0.2-0.9,0.2-1.3,0.3c-0.3,0-0.6,0.1-0.9,0.3l0.2,1c0.5,0,0.9-0.2,1.3-0.2c0.6-0.1,1.2-0.2,1.8-0.3c0-1-0.2-2.1-0.3-3.1l0-0.1
	c1.5-0.1,3.1-0.2,4.6-0.1C95.1,2.1,95,2.8,95,3.4c0,0.1-0.1,0.1-0.1,0.1c-0.7,0-1.5-0.1-2.1,0c0,0.3,0,0.7,0,1
	c0.8,0,1.6,0.1,2.3,0.1l0,0.1C95,4.9,94.9,5,94.8,5.1L94.8,5.1z M118.5,25.4l0.1,0.3c0.4,0,0.7,0,1-0.1l0-0.2c0.1,0,0.2-0.1,0.3-0.1
	c0-0.1,0.1-0.2,0.1-0.2c0.1,0.4,0.1,0.7,0.1,1.1c-0.7,0-1.4,0.2-2,0.1c0-0.4-0.1-0.7-0.1-1.1c0,0,0.1,0,0.1,0
	C118.1,25.2,118.3,25.3,118.5,25.4z M116.5,28c0-1.1-0.1-2.3-0.3-3.4c0.2,0.2,0.4,0.3,0.6,0.4c0.1,0.8,0.2,1.6,0.2,2.4l0.1,0.8
	l0.1,0l2.9,0c0,0,0.1,0,0.2,0.1c0,1.8-0.3,3.6-0.6,5.2l0,0c-0.6-0.2-1.3-0.3-1.9-0.4c-0.1-0.2,0.1-0.4,0-0.6
	c0.1-0.6,0.2-1.3,0.3-1.9c-0.3-0.1-0.7-0.1-1-0.1c-0.2,1.2-0.4,2.4-0.7,3.6c0.2,0.2,0.6,0.2,0.9,0.3c0.7,0.2,1.4,0.4,2,0.6l0,0
	c-0.5,1.7-1.1,3.3-1.9,4.9l-0.1,0c-0.6-0.3-1.2-0.6-1.7-0.9c0.3-0.7,0.7-1.4,0.9-2.2c-0.3-0.1-0.7-0.3-1-0.4c-0.4,1.1-1,2.1-1.5,3.2
	c0.9,0.5,1.8,1,2.7,1.5c-0.2,0.4-0.4,0.8-0.7,1.2c-0.7,1.1-1.5,2.1-2.4,3.1h-0.1c-0.4-0.4-1-0.9-1.4-1.3c0.4-0.7,1-1.3,1.5-2l0-0.1
	l-0.8-0.6c-0.7,0.8-1.4,1.7-2.1,2.5l-0.3,0.3c0.7,0.8,1.5,1.4,2.2,2.2c-1.2,1.3-2.6,2.4-4,3.4h-0.1l-1.1-1.6v-0.1
	c0.7-0.5,1.3-1,1.9-1.5V47c-0.2-0.3-0.4-0.5-0.7-0.7c-0.9,0.7-1.8,1.5-2.8,2.1c0.6,0.9,1.1,1.8,1.6,2.6c-1.4,0.9-2.9,1.7-4.4,2.3
	c-0.3-0.6-0.5-1.2-0.7-1.9l0-0.1c0.7-0.3,1.4-0.6,2.1-1c-0.1-0.3-0.3-0.6-0.5-0.9c-1,0.5-2,0.9-3,1.3c0.3,1,0.7,2,1,3
	c-1.5,0.4-3,0.9-4.5,1.1c-0.1-0.6-0.2-1.3-0.4-2c0.4-0.2,0.9-0.2,1.3-0.3c0.3,0,0.6-0.1,0.9-0.3l-0.2-1c-0.5,0-0.9,0.2-1.3,0.2
	c-0.6,0.1-1.2,0.2-1.8,0.3c0,1,0.2,2.1,0.3,3.1l0,0.1c-1.5,0.1-3.1,0.2-4.6,0.1c-0.1-0.6,0.1-1.3,0.1-1.9c0-0.1,0.1-0.1,0.1-0.1
	c0.7,0,1.5,0.1,2.1,0c0-0.3,0-0.7,0-1c-1,0-2-0.1-3-0.1c-0.2,1-0.2,2.1-0.4,3.1c-0.2,0.1-0.3,0-0.4,0c-1.4-0.2-2.9-0.5-4.2-0.9
	c0.2-0.6,0.4-1.3,0.6-1.9c0.4,0,0.9,0.2,1.3,0.3c0.3,0.1,0.6,0.1,1,0.2c0.1-0.3,0.1-0.7,0.2-1c-0.3-0.1-0.6-0.1-0.8-0.2
	c-0.8-0.2-1.5-0.4-2.3-0.6c-0.4,1-0.6,2-1,3c-1.6-0.5-3-1.1-4.4-1.9l0,0l1-1.8c0.7,0.3,1.4,0.7,2.1,1c0.1,0,0.1-0.1,0.2-0.2l0.3-0.7
	c-0.9-0.5-1.9-0.9-2.8-1.5c-0.6,0.9-1.1,1.8-1.7,2.7c-1.4-0.8-2.7-1.8-3.9-2.9l0-0.1l1.3-1.4h0.1c0.5,0.5,1.1,0.9,1.6,1.3l0.1,0
	l0.6-0.8c-0.8-0.7-1.7-1.4-2.5-2.2l-2.2,2.2c-1.2-1.2-2.3-2.5-3.3-3.9l0-0.1l1.6-1.1c0.5,0.5,0.9,1.4,1.5,1.8h0.1l0.7-0.7
	c-0.7-0.9-1.5-1.9-2-2.9l-0.1,0c-0.9,0.5-1.8,1-2.7,1.6c-0.9-1.5-1.7-3-2.2-4.7c0.1-0.1,0.3-0.1,0.4-0.2c0.5-0.2,1-0.3,1.4-0.5
	c0.3,0.7,0.6,1.5,1,2.2c0.4,0,0.7-0.3,1-0.4c-0.5-1.1-0.9-2.2-1.3-3.4c-1,0.3-2,0.6-3,0.9c-0.6-1.8-0.9-3.7-1.1-5.7
	c0.7,0,1.4-0.2,2-0.1c0.1,0.9,0.2,1.8,0.4,2.6l0,0.1c0.4,0,0.7-0.1,1-0.2c-0.2-1.2-0.4-2.4-0.4-3.7l-0.1-0.8l-0.1,0l-2.9,0
	c0,0-0.1,0-0.2-0.1c0-1.2,0.1-2.3,0.3-3.4c0.2,0,0.4-0.1,0.5-0.1c-0.1,0.5-0.1,1-0.2,1.5c0,0.5-0.1,1.1,0,1.6c1,0.1,2,0,3,0.1l0,0.8
	c0,1.6,0.2,3.1,0.6,4.6l-0.1,0.1c-0.7,0.1-1.3,0.2-2,0.4c-0.2-0.9-0.3-1.9-0.5-2.8c-0.3,0-0.7,0-1,0.1c0.1,1.5,0.4,2.9,0.8,4.4
	c0.9-0.1,1.7-0.4,2.6-0.7c0.2,0,0.4-0.2,0.5-0.1c0.3,1.5,1,2.8,1.6,4.2l0,0.1l-1.8,0.9l-0.1,0c-0.4-0.8-0.7-1.5-1.1-2.3l-1,0.3
	c0.2,0.8,0.6,1.5,0.9,2.2c0.3,0.5,0.5,1,0.9,1.5h0.1l2.6-1.5l0,0c0.7,1.3,1.6,2.5,2.6,3.6l-1.5,1.4c-0.6-0.6-1-1.3-1.6-1.9
	c-0.3,0.1-0.6,0.3-0.9,0.6c0.7,1.1,1.6,2.2,2.5,3.1l0.1,0c0.8-0.7,1.4-1.5,2.2-2.1c1,0.9,2,1.9,3.1,2.6l0.1,0.1
	c-0.4,0.6-0.8,1.1-1.2,1.7c-0.6-0.5-1.2-0.9-1.9-1.4c-0.2,0.2-0.4,0.5-0.6,0.7v0.1c0.9,0.8,1.9,1.5,2.9,2.1h0.1
	c0.5-0.8,1.1-1.7,1.6-2.5l0.1-0.1c0.2,0.1,0.5,0.3,0.7,0.4c0.1,0.1,0.1,0.2,0.2,0.3c0.1,0,0.1,0.1,0.2,0.2c0,0,0.1,0,0.1,0.1
	c0.4,0.3,0.9,0.6,1.4,0.8c0.3,0.1,0.6,0.1,0.8,0.2l0.1,0c-0.2,0.6-0.4,1.3-0.7,1.9c-0.7-0.3-1.4-0.7-2.2-1L81,51.4
	c0.2,0.2,0.5,0.3,0.7,0.5c0.8,0.4,1.7,0.8,2.6,1.1l0.1,0l1-2.9l0.1,0c0.7,0.2,1.3,0.4,2,0.6c0.6,0.2,1.3,0.3,1.9,0.4
	c-0.1,0.7-0.2,1.4-0.3,2.1l-0.1,0c-0.7-0.2-1.5-0.3-2.3-0.5c-0.1,0.3-0.2,0.7-0.3,1c1.2,0.3,2.3,0.6,3.5,0.7c0.1-1,0.3-2.1,0.4-3.1
	c1.3,0.1,2.6,0.2,3.9,0.1c0.1,0.7,0.1,1.4,0.1,2.1c-0.8,0.1-1.5,0-2.3,0c-0.1,0.3-0.1,0.7,0,1l0,0c1.1,0.1,2.3,0.1,3.4-0.1l0.1-0.1
	c-0.1-1-0.2-2-0.3-3l0.1-0.1c1.3-0.1,2.6-0.4,3.8-0.7c0.2,0.7,0.4,1.3,0.6,2l-0.1,0.1c-0.7,0.1-1.4,0.3-2,0.5c0,0.4,0.1,0.7,0.2,1
	c1.2-0.2,2.2-0.5,3.3-0.8v-0.2c-0.3-1-0.7-1.9-0.9-2.8c0.6-0.2,1.2-0.4,1.8-0.7c0.1,0,0.3,0,0.4-0.1c0.2,0,0.4-0.2,0.7-0.2
	c0.3-0.1,0.6-0.3,0.9-0.5c0.3,0.6,0.6,1.2,0.9,1.8c-0.7,0.4-1.4,0.7-2.1,1c0,0.3,0.2,0.7,0.4,1c1.1-0.5,2.2-1,3.3-1.7
	c-0.5-0.9-1.1-1.8-1.6-2.7c1.1-0.7,2.2-1.4,3.1-2.3l0.4-0.4c0.5,0.5,0.9,1,1.4,1.5c-0.3,0.4-0.8,0.7-1.2,1.1
	c-0.2,0.2-0.6,0.4-0.8,0.6c0.2,0.3,0.4,0.5,0.6,0.8c1.2-0.7,2.2-1.6,3.2-2.7c-0.7-0.7-1.5-1.5-2.2-2.2c1-1.1,2-2.2,2.9-3.5h0.1
	c0.5,0.4,1.1,0.7,1.6,1.1v0.1c-0.5,0.7-1,1.4-1.5,2c0.2,0.3,0.5,0.4,0.7,0.6h0.1c0.9-1.1,1.7-2.2,2.3-3.4l-2.6-1.5v-0.1
	c0.8-1.2,1.3-2.5,1.9-3.9l0.1,0c0.6,0.3,1.3,0.4,1.9,0.7c-0.2,0.8-0.6,1.5-0.9,2.2c0.1,0.2,0.4,0.2,0.6,0.3c0.1,0,0.2,0.1,0.3,0.1
	c0.6-1.2,1.1-2.5,1.5-3.8c-1-0.3-2-0.6-3-0.9c0.4-1.5,0.7-2.9,0.8-4.4c0.2-0.1,0.4,0,0.7,0l1.4,0.1c0,0.8-0.2,1.7-0.3,2.5
	c0.3,0.1,0.6,0.1,1,0.2c0.3-0.8,0.3-1.7,0.4-2.6c0-0.5,0.1-1.1,0-1.6c-1-0.1-2,0-3.1-0.1L116.5,28L116.5,28z M87.3,49.1
	c3.8,1,8.1,1.1,11.8,0c0,0,0.1,0,0.1,0.1c0.2,0,0.4,0.2,0.6,0.2c-3.8,1.2-7.8,1.3-12,0.4c-0.5-0.1-0.9-0.2-1.4-0.4
	C86.8,49.3,87.1,49.2,87.3,49.1L87.3,49.1z M71.7,27.4c-0.3,7.3,3.2,14.3,9,18.5c0,0.1,0,0.2,0.1,0.3c0,0.1,0,0.3,0,0.4
	c-3.6-2.5-6.6-6.2-8.1-10.2c-0.9-2.3-1.4-4.7-1.5-7.3h0c0-0.8,0-1.5,0.1-2.3c0.2,0.1,0.3,0.2,0.5,0.3L71.7,27.4L71.7,27.4z
	 M115,29.1c0.1-1.4,0-2.8-0.2-4.1c0.2,0,0.3-0.1,0.5-0.2c0.1,0.9,0.2,1.8,0.3,2.7h0c0.1,5.4-1.6,10.3-4.8,14.5
	c-1.6,1.9-3.3,3.6-5.3,4.8c0-0.1,0.1-0.2,0.1-0.3c0-0.2,0.1-0.3,0.1-0.5c0.3-0.2,0.7-0.5,1-0.7C111.8,41.2,114.7,35.5,115,29.1
	L115,29.1L115,29.1z M89,7c-1.5,0.3-2.9,0.7-4.2,1.4c-0.1,0-0.2,0.1-0.3,0.2c-0.1,0-0.2-0.1-0.2-0.1c0,0-0.1-0.1-0.1-0.1
	c0,0-0.1,0-0.1-0.1c1.9-0.9,4-1.6,6.2-1.9c-0.3,0.2-0.6,0.3-0.8,0.5C89.2,6.8,89.1,6.9,89,7z M101.9,27.3c-0.1,0-0.2,0.1-0.3,0.2
	c0,0,0,0.1-0.1,0.1l0,0.1c-0.3,0.3-0.5,0.5-0.9,0.6c-0.4-0.1-0.8-0.3-1.1-0.5c-0.1,0-0.1-0.1-0.2-0.1c-0.1,0-0.2-0.1-0.2-0.1
	c-0.6-0.4-1.5-0.3-2.2-0.2c-0.4,0-0.7,0.2-0.9,0.3c-0.1,0-0.2,0.1-0.3,0.1c-0.1,0.1-0.1,0.1-0.2,0.2c0,0-0.1,0.1-0.1,0.1
	c0,0-0.1,0.1-0.1,0.1l0,0c0,0,0,0,0,0.1c0,0.1,0.1,0.1,0.2,0.1l0,0l0.1,0l0.1,0.1l0-0.2c0,0,0,0,0.1,0c0,0,0.1,0,0.1-0.1
	c0.2-0.2,0.4-0.2,0.6-0.3c0.2-0.1,0.5-0.1,0.8-0.2c0.6,0,0.9,0.1,1.3,0.2c0.3,0.1,0.5,0.3,0.6,0.4l0.1,0.1l-0.1,0
	c-0.1,0-0.1,0-0.2-0.1c-0.7-0.2-1.4-0.3-2.1-0.3c-0.6,0.1-1.2,0.4-1.6,0.9c0,0,0,0,0,0.1c0,0-0.1,0.1-0.1,0.1c0,0.1,0,0.1,0,0.2
	c0,0-0.1,0-0.1,0c0,0.1,0,0.1,0,0.2c0,0,0,0.1,0,0.1c0,0.1,0.1,0.2,0.2,0.2c0,0,0.1,0,0.1,0c0,0,0.1,0,0.1,0.1
	c0.4,0.1,0.8,0.2,1.2,0.3c0.8,0.2,1.6,0.1,2.3-0.2c0.4-0.2,0.8-0.4,1.1-0.6l0.1-0.1l0.1,0c0,0,0,0,0.1-0.1l0.1-0.1
	c0-0.1,0-0.1-0.1-0.2l0,0l-0.1,0l0,0l-0.1-0.1l0,0c0.2,0,0.5,0,0.6,0c0.2-0.1,0.3-0.1,0.4-0.2c0.1-0.1,0.3-0.1,0.4-0.3
	c0,0,0,0,0.1,0l0-0.1c0,0,0-0.1,0.1-0.1c0-0.1,0.1-0.1,0.1-0.2c0-0.1,0.1-0.1,0.1-0.2C102.1,27.5,102.1,27.3,101.9,27.3L101.9,27.3
	L101.9,27.3z M96,29.4c-0.1,0-0.1,0-0.2,0c-0.1,0-0.2-0.1-0.2-0.1l0,0c0.1-0.1,0.2-0.2,0.3-0.3l0.1-0.1c0,0.1,0,0.2,0,0.3
	C96,29.2,96,29.3,96,29.4L96,29.4L96,29.4z M99.4,29.4C99.3,29.4,99.3,29.4,99.4,29.4l-0.2,0.1c0,0-0.1,0-0.1,0l-0.1,0
	c-0.6,0.4-1.4,0.3-2.1,0.2c-0.2,0-0.4-0.2-0.5-0.5c0,0,0-0.1,0-0.1c0-0.1,0-0.1,0-0.2c0-0.1,0-0.2-0.2-0.3c0.8-0.5,1.9-0.4,2.7-0.1
	c0,0,0.1,0.1,0.1,0.1c0,0,0.1,0,0.1,0.1c0.1,0,0.1,0.1,0.2,0.1c0,0.1,0,0.3,0,0.4C99.4,29.3,99.4,29.4,99.4,29.4L99.4,29.4z
	 M99.9,29.1C99.8,29.1,99.8,29.1,99.9,29.1C99.7,28.9,99.9,29,99.9,29.1C99.9,29,99.9,29.1,99.9,29.1z M102.1,26.5
	c-0.2,0-0.3,0.1-0.5,0.1s-0.3,0-0.5,0c-0.2,0-0.5,0-0.7-0.1c-0.1,0-0.1-0.1-0.2-0.1c-0.1,0-0.2,0-0.2-0.1c-0.2,0-0.3-0.1-0.4-0.2
	c-0.4-0.2-0.8-0.2-1.2-0.4c-0.3,0-0.6,0-0.9,0c-0.2,0.1-0.4,0.1-0.6,0.2c-0.2,0.1-0.4,0.2-0.6,0.3c0,0.1-0.1,0.1-0.2,0.2l-0.1,0
	c0,0,0,0-0.1,0c0,0-0.1,0.1-0.1,0.1c-0.1,0.1-0.3,0.3-0.4,0.4c-0.1,0.1-0.3,0.2-0.5,0.3c0,0-0.1,0.1-0.1,0.1c0,0.1,0.1,0.1,0.2,0.1
	h0.1c0,0,0.1,0,0.1,0c0.2-0.1,0.3-0.2,0.4-0.3c0.1-0.1,0.2-0.2,0.4-0.4c0.2-0.3,0.5-0.5,0.9-0.6c0.1,0,0.2,0,0.3-0.1l0.1-0.1
	c0,0,0.1,0,0.1-0.1c0.1,0,0.2,0,0.3,0c0.1,0,0.2,0,0.3,0c0.2,0,0.3,0,0.5,0.1c0.3,0.1,0.6,0.2,1,0.3c0.1,0.1,0.2,0.1,0.3,0.1
	c0.1,0,0.2,0.1,0.3,0.1l0,0h0c0,0,0,0,0.1,0c0.3,0,0.6,0.1,0.9,0.1c0.3,0,0.5,0,0.8-0.2c0,0,0.1,0,0.1,0l0,0l0-0.1
	C102.2,26.6,102.2,26.6,102.1,26.5C102.2,26.6,102.2,26.5,102.1,26.5L102.1,26.5z M90.5,35.9c0.1,0,0.3-0.1,0.4-0.1
	c0.1,0,0.3-0.1,0.4-0.1c0.1,0,0.3,0,0.4,0c0.1,0,0.3,0.1,0.4,0.1c0.1,0,0.1-0.1,0.1-0.2c0-0.1-0.1-0.1-0.2-0.1
	c-0.4-0.4-1.1-0.3-1.6-0.1c-0.1,0-0.2,0-0.3,0.1c-0.1,0-0.2,0-0.2-0.1c-0.1-0.1-0.1-0.3-0.1-0.4c-0.1-0.1-0.2-0.1-0.3,0
	c-0.1,0.3,0,0.5,0.2,0.7C90,36,90.3,36,90.5,35.9L90.5,35.9z M95.3,39.3c-0.4,0.1-0.9,0.3-1.4,0.3c-0.2,0.1-0.5,0-0.7,0
	c-0.2,0-0.5-0.1-0.7-0.1c-0.2,0-0.3,0-0.5,0c-0.2,0-0.3,0-0.5,0.1c-0.3,0-0.6,0.1-1,0c-0.1,0-0.2,0-0.3-0.1c0,0-0.1,0-0.1-0.1
	c0,0-0.1,0-0.1,0c-0.1,0-0.1,0-0.2,0.1c0,0.1,0,0.1,0,0.2c0,0,0,0,0,0.1c0,0,0,0,0,0.1c0.4,0.4,1.1,0.4,1.7,0.3
	c0.2-0.1,0.4-0.1,0.6-0.1c0.2,0,0.4,0,0.6,0c0.4,0.1,0.8,0.1,1.2,0c0.4-0.1,0.8-0.2,1.1-0.3c0.1,0,0.2,0,0.2-0.1
	c0.1,0,0.2-0.1,0.2-0.2C95.6,39.3,95.5,39.2,95.3,39.3L95.3,39.3z M96.9,38.1c0,0-0.1-0.1-0.1-0.1c-0.1-0.1-0.2-0.2-0.4-0.2l0,0
	c-0.2,0.1-0.1,0.2,0,0.3l0,0c0,0,0,0,0,0c-0.2,0.1-0.5,0.2-0.7,0.2c-0.3,0.1-0.6,0-0.9-0.1l-0.5-0.1c-0.2,0-0.3-0.1-0.5-0.1
	c-0.2,0-0.4,0.1-0.5,0.2c-0.1,0-0.1,0.1-0.2,0.1c-0.1,0-0.1,0-0.2,0.1c-0.2-0.1-0.4-0.2-0.6-0.2c-0.2-0.1-0.5-0.1-0.7,0
	c-0.2,0-0.4,0.1-0.6,0.1c-0.2,0-0.4,0.1-0.5,0.1c-0.2,0-0.4,0-0.5,0c-0.1,0-0.2,0-0.4-0.1c0,0,0-0.1,0-0.1c0-0.1,0-0.1-0.1-0.1
	c-0.1-0.1-0.3,0-0.3,0c0,0-0.1,0.1-0.1,0.1l0,0l0,0l0,0c0,0,0,0.1-0.1,0.1c0,0-0.1,0.1-0.1,0.1c-0.1,0.1-0.1,0.2-0.1,0.3
	c0,0.1,0.1,0.2,0.3,0.1l0,0l0.1-0.1c0,0,0.1-0.1,0.1-0.1c0.1,0,0.1,0,0.2,0c0.4,0.2,0.8,0.2,1.2,0.1c0.2,0,0.4-0.1,0.5-0.2
	c0.2-0.1,0.4-0.1,0.6-0.1c0.2,0,0.3,0,0.5,0c0.2,0.1,0.3,0.2,0.5,0.2c0.2,0.1,0.3,0,0.5,0c0.1,0,0.1-0.1,0.2-0.1
	c0.1,0,0.1-0.1,0.2-0.1c0.2-0.2,0.5-0.1,0.7,0c0.4,0.3,0.9,0.3,1.4,0.2c0.2-0.1,0.4-0.1,0.6-0.1c0.2,0,0.4-0.1,0.5-0.2l0.2,0.1
	c0.1,0.1,0.2,0,0.3-0.1l0-0.1c0-0.1-0.1-0.2-0.2-0.3C96.9,38.2,96.9,38.1,96.9,38.1L96.9,38.1z M92.2,35.4c0.1,0,0.2,0.1,0.3,0.1
	c0.1,0,0.2,0,0.3,0.1c0.2,0,0.4-0.1,0.7-0.2l0-0.1v-0.1c0,0,0-0.1-0.1-0.2c-0.1,0-0.3,0-0.4,0c-0.1,0-0.3,0-0.4,0
	c-0.4,0-0.6-0.3-0.7-0.6c-0.2-0.5-0.1-0.9,0-1.3c0-0.2,0.1-0.4,0.2-0.7c0-0.2,0.1-0.4,0.1-0.7c0-0.3-0.1-0.6-0.1-1
	c0-0.3,0-0.7,0.1-1c0-0.3,0-0.5,0-0.7c0-0.2,0-0.5,0-0.7c0-0.1,0-0.2,0-0.2c0,0,0-0.1,0-0.1c0,0,0-0.1,0-0.1l0,0c0,0,0-0.1-0.1-0.1
	l0,0h0c0,0-0.1,0-0.1,0l0,0l-0.1,0.1l0.1,0l0,0c0,0.5,0,0.9,0,1.3c0,0.3-0.1,0.6-0.1,0.8c0,0.3,0,0.5,0,0.8c0,0.2,0,0.4,0,0.5
	c0,0.2,0,0.4,0,0.5c0,0.2-0.1,0.4-0.1,0.6c0,0.2-0.1,0.4-0.1,0.5c-0.1,0.6-0.2,1.3,0.2,1.9C91.8,35.2,92,35.3,92.2,35.4L92.2,35.4z
	 M103.2,8.4l0.1,0.1c0.6,0.4,1.2,0.7,1.9,1C104.6,9.1,103.9,8.7,103.2,8.4L103.2,8.4z M95.3,30.9c0,0,0.1,0,0.1-0.1
	c0-0.1,0-0.2-0.1-0.3c0-0.1-0.2-0.2-0.2-0.3c-0.2-0.4-0.3-0.8-0.4-1.2c0-0.1-0.1-0.2-0.2-0.2c0,0-0.1,0.1-0.1,0.1
	c0,0.3,0.1,0.7,0.2,1C94.9,30.3,95,30.7,95.3,30.9L95.3,30.9z M93.6,35.7C93.7,35.7,93.7,35.7,93.6,35.7c0.2,0,0.2,0,0.3,0h0.3
	c0.2,0,0.5,0,0.7,0c0.2,0,0.5-0.1,0.6-0.2c0.3-0.1,0.3-0.5,0.3-0.8l-0.1-0.1c-0.2,0-0.2,0.1-0.3,0.2c0,0.1,0,0.1,0,0.2
	c0,0,0,0.1,0,0.1c-0.3,0.4-0.8,0.4-1.2,0.3l-0.5,0.1c0,0,0,0,0,0l0,0C93.5,35.5,93.5,35.6,93.6,35.7L93.6,35.7L93.6,35.7z
	 M92.7,36.4c-0.1,0-0.1,0.1-0.1,0.2c0.3,0.1,0.6,0.3,0.9,0.1c0-0.1,0.1-0.1,0.1-0.2c0-0.1,0-0.1-0.1-0.1
	C93.3,36.5,92.9,36.5,92.7,36.4z M94.4,37.1c-0.1-0.1-0.2-0.1-0.3-0.2c-0.1-0.1-0.2-0.1-0.3-0.1c-0.2-0.1-0.3,0-0.5,0
	c-0.1,0-0.1,0.1-0.2,0.1c-0.1,0-0.1,0.1-0.2,0.1c-0.3-0.2-0.6-0.2-0.9,0c-0.1,0.1-0.3,0.1-0.4,0.2c-0.1,0.1-0.3,0.1-0.4,0.2
	c0,0-0.1,0-0.1,0c0,0-0.1,0-0.2,0c-0.1,0-0.2,0-0.3,0.1c0,0,0,0.1,0,0.1c0,0,0,0,0,0.1c0.3,0.1,0.6,0.1,0.8,0c0.1,0,0.2-0.1,0.2-0.1
	c0.1,0,0.1-0.1,0.2-0.1c0.1-0.1,0.3-0.1,0.4-0.1l0,0c0,0,0.1,0,0.2,0l0.1,0c0,0,0.1,0,0.1,0c0,0,0,0,0.1,0c0,0,0.1,0,0.1,0
	c0.1,0,0.1,0,0.2,0c0.3-0.2,0.6-0.2,0.8-0.1c0.1,0.1,0.3,0.1,0.4,0.2c0.2,0,0.3,0.1,0.5,0.1l0,0l0.1,0c0,0,0,0,0.1,0
	c0,0,0,0,0.1-0.1c0-0.1,0-0.2-0.1-0.2C94.8,37.4,94.6,37.3,94.4,37.1L94.4,37.1z M120.2,23.8c0-0.4-0.1-0.7-0.2-1.1
	c-0.1-0.1-0.1-0.3-0.1-0.5c0-0.4-0.3-0.6-0.3-1c-0.2-0.5-0.5-1-0.8-1.5c0-0.4-0.1-0.7-0.2-1.1c-0.1-0.1-0.1-0.1-0.1-0.2
	c0-0.1-0.1-0.1-0.1-0.2c0,0,0-0.1-0.1-0.2c-0.2-0.3-0.4-0.7-0.6-0.9c-0.3-0.4-0.7-0.8-1-1.2c-0.1-0.1-0.2-0.1-0.3-0.2
	c-0.4-0.4-0.9-0.7-1.3-1.1c-0.1,0-0.2-0.1-0.3-0.2c-0.3-0.2-0.5-0.3-0.8-0.5c-0.6-0.2-1.1-0.5-1.7-0.7c-0.3-0.1-0.7-0.3-1.1-0.3
	c-0.3,0-0.6-0.2-0.9-0.3c-0.3-0.1-0.4-0.3-0.7-0.4c-0.2-0.2-0.5-0.3-0.7-0.5c-0.2-0.1-0.4-0.2-0.5-0.4c-0.6-0.5-1.1-1.3-1.9-1.7
	c-0.5-0.1-1-0.4-1.4-0.3c-0.7-0.3-1.3-0.6-1.8-1c-0.2-0.2-0.4-0.3-0.6-0.5c-0.8-0.8-1.8-1.4-3-1.4c-0.2,0-0.4,0.1-0.6,0.1
	c-0.5-0.9-1.6-1-2.4-1.3c-0.4-0.2-0.7-0.6-0.9-1c0-0.1-0.1-0.2-0.1-0.3c0-0.1-0.1-0.2-0.2-0.2c-0.1-0.1-0.3,0-0.4,0.1
	c-0.1,0.3-0.1,0.6-0.2,0.8c-0.1,0.2-0.2,0.4-0.3,0.6c-0.2,0.3-0.6,0.6-0.9,0.6c-0.3-0.2-0.6-0.2-0.9-0.3c-0.1,0-0.3,0-0.4,0
	c-0.7,0-1.4,0.2-2,0.5c-0.5,0.2-0.9,0.5-1.3,0.7c-0.4,0.3-0.8,0.5-1.2,0.8c-0.3,0.2-0.4,0.3-0.7,0.4c-0.6,0.4-1.5,0.8-2.3,0.7
	c-0.3,0-0.6-0.2-0.9-0.4c0,0-0.1-0.1-0.1-0.1c-0.3-0.1-0.3-0.4-0.4-0.6c-0.1-0.1,0-0.2-0.2-0.3c-0.1,0-0.2,0-0.3,0
	C82.7,7.7,82.2,8,82,8.5c-0.2,0.5-0.4,1-0.3,1.5c-0.2,0.2-0.4,0.3-0.7,0.4c-0.1,0.1-0.4,0.2-0.5,0.4c-0.2,0.2-0.4,0.4-0.5,0.7
	c0,0.1,0,0.1-0.1,0.1c-0.5,0-1,0-1.5,0.1c-0.7,0.1-1.3,0.4-2,0.6c-0.6,0.3-1.3,0.6-1.8,0.9c-0.3,0.1-0.5,0.3-0.8,0.5
	c-0.3,0.3-0.7,0.5-1,0.8c-0.2,0.2-0.4,0.4-0.5,0.7c0.1,0.2-0.2,0.4,0,0.5c-0.1,0.2-0.4,0.4-0.5,0.6c-0.9,0.4-1.6,0.9-2.3,1.5
	c-0.7,0.6-1.4,1.3-1.8,2.1c-0.1,0.1,0,0.2-0.2,0.2c0,0.1-0.1,0.1-0.1,0.2c-0.2,0.4-0.4,0.7-0.5,1.1c-0.1,0.1-0.1,0.3-0.2,0.4
	c0,0.1,0,0.1-0.1,0.2l-0.1,0.3c0,0.1,0,0.2-0.1,0.2c0,0.1-0.1,0.2,0,0.3c0,0.2,0.1,0.4,0.1,0.5c0,0.1-0.2,0.2-0.2,0.4
	c-0.1,0.1-0.2,0.3-0.3,0.4c-0.1,0.2,0.1,0.4,0.2,0.5c0.3,0.1,0.6,0,0.9-0.1c0.4-0.1,0.7-0.3,1.1-0.5c0.1,0.4,0.2,1,0.6,1.3
	c0.2,0.1,0.5,0.2,0.7,0.2c0.3,0.1,0.4-0.1,0.6-0.2c0,0,0,0,0,0c-0.1,0.5,0.1,1,0.4,1.4c0.3,0.2,0.6,0.4,0.9,0.6c0,0.3,0,0.5,0.1,0.7
	c0.1,0.1,0.1,0.3,0.2,0.4c0.3,0.6,0.9,1,1.5,1.3c0.4,0.2,0.8,0.2,1.3,0.1c0,0,0.1,0,0.1,0c0.1,0.3,0.2,0.7,0.4,1
	c0.1,0.1,0.2,0.2,0.2,0.3c0.1,0.2,0.2,0.3,0.4,0.5c0.2,0.3,0.5,0.3,0.7,0.6c0.1,0.4,0.5,0.7,0.9,0.9c0,0.1,0.2,0,0.2,0.2
	c-0.1,0.1-0.1,0.4-0.2,0.5c0,0.3,0,0.8,0.1,1.1c0,0.1,0.1,0.2,0.1,0.3c0,0,0,0,0.1,0c0.1,0.3,0.3,0.4,0.5,0.6
	c0.1,0.3,0.3,0.5,0.5,0.7c0.1,0.1,0.3,0.1,0.5,0.2c0,0.1,0,0.2,0,0.2c0,0.2,0.1,0.5,0.2,0.7c0,0.2,0.1,0.3,0.2,0.5
	c0.1,0.2,0.2,0.3,0.3,0.4c-0.1,0.2-0.2,0.3-0.2,0.5c-0.1,0.5-0.2,0.8,0,1.3c0,0.1,0,0.1,0.1,0.2c0.2,0.5,0.7,0.9,1.2,1.2
	c0.1,0.2,0.2,0.4,0.2,0.6c0.1,0.4,0,0.7-0.1,1.1c0,0.2,0,0.4-0.1,0.6c0,0,0,0.1,0,0.1c0,0.3-0.1,0.5-0.1,0.8c0,0.1,0,0.1,0,0.2
	c0,0.4-0.1,0.8,0,1.2c0,0.4,0.2,0.7,0.2,1.1c0.3,0.4,0.5,0.9,0.9,1.3c0.1,0,0.1,0.1,0.2,0.1c0,0,0.1,0,0.1,0.1
	c0.4,0.3,0.9,0.6,1.4,0.8c0.3,0.1,0.6,0.1,0.8,0.2c0.5,0,1.1,0.1,1.6-0.1c1.4-0.3,2.4-1.3,3.7-1.9c0.4-0.1,0.8-0.4,1.3-0.3
	c0.1,0.1,0.1,0.3,0.2,0.3c0.1,0.3,0.4,0.5,0.7,0.6c0.2,0.1,0.5,0.1,0.8,0.1c0.3,0,0.7-0.1,1-0.2c0.2,0,0.2-0.2,0.4-0.3
	c0.3,0.2,0.7,0.3,1.1,0.3c0.2,0.1,0.4,0.1,0.6,0.1c0.4-0.1,0.7-0.4,0.9-0.8c0.1-0.1,0.2,0,0.2,0.1c0.1,0,0.1,0.1,0.2,0.1
	c0.4,0.3,0.7,0.6,1.1,0.9l0.5,0.3c0.2,0,0.4,0.2,0.6,0.2c0.3,0.1,0.5,0.2,0.8,0.2c0,0,0.1,0,0.1,0c0.2,0,0.4,0.1,0.5,0.1
	c0.3,0,0.5,0.1,0.8,0c0.1,0,0.2,0,0.4,0c0.3,0,0.6-0.1,0.9-0.1c0.2,0,0.4-0.2,0.7-0.2c0.5-0.2,1-0.6,1.4-1c0.2-0.1,0.2-0.4,0.4-0.5
	c0.1-0.3,0.2-0.6,0.4-0.8c0,0,0-0.1,0-0.1c0-0.2,0.1-0.3,0.1-0.4c0-0.2,0.1-0.4,0.2-0.7c0.1-0.6,0.2-1.3,0.2-1.8
	c0.1-0.3,0-0.5,0.1-0.7c0-0.1,0-0.3,0-0.4c0-0.2,0-0.3,0.1-0.5c0.1-0.2,0.1-0.3,0.2-0.5c0-0.1,0.1-0.2,0.1-0.3
	c0.2-0.3,0.3-0.6,0.6-0.9c0-0.1,0.1-0.2,0.1-0.3c0.1-0.2,0.2-0.4,0.2-0.6c0-0.1,0-0.2,0-0.2c0-0.3,0-0.6,0-0.9
	c0-0.3-0.2-0.5-0.2-0.8c0.2-0.2,0.3-0.5,0.4-0.8c0-0.2,0.1-0.4,0.1-0.7c0.1-0.1,0.2-0.2,0.2-0.3c0.1-0.4,0.2-0.8,0.1-1.2
	c0-0.2-0.1-0.3-0.1-0.4c0.1,0,0.3,0.1,0.4,0.1c0.4,0,0.8,0.1,1.1,0c0.2-0.1,0.3,0.1,0.6,0c0.2-0.1,0.3,0.1,0.6,0
	c0.1,0,0.1-0.2,0.1-0.3c-0.3-0.2-0.3-0.4-0.5-0.7c-0.2-0.4,0.1-0.8,0.2-1.2c0,0,0.1-0.1,0-0.1c0.2-0.3,0.2-0.6,0.4-0.9
	c0-0.1,0.1-0.1,0.1-0.2c0.1-0.2,0.2-0.4,0.3-0.6c0.1-0.2,0.1-0.5,0.2-0.7c0.1-0.3,0.1-0.7,0.1-1c0-0.3-0.1-0.6-0.2-0.9
	c0,0-0.1-0.1-0.1-0.2c0,0,0.1,0,0.2,0c0.5,0,0.9-0.4,1.2-0.8c0,0,0-0.1,0-0.1c0-0.1,0.1-0.2,0.2-0.4c-0.1-0.3,0.2-0.3,0.3-0.5
	c0.2-0.4,0.4-0.9,0.3-1.4c0-0.1,0.2-0.1,0.2-0.2c0,0,0.1,0,0.1,0c0,0,0.1,0,0.2,0.1c0.3,0.3,0.5,0.7,1,0.5c0.3,0,0.6-0.2,0.8-0.4
	c0-0.1,0.2-0.1,0.2-0.3c0-0.1,0-0.2,0.1-0.2c0.1,0.1,0.2,0.2,0.2,0.3c0.3,0.3,0.6,0.6,1,0.8c0.2,0.1,0.4,0.1,0.6,0.1
	c0.2-0.1,0.4-0.1,0.6-0.1c0.1,0.1,0.3,0.3,0.5,0.3c0.1,0,0.2,0.1,0.3,0.1c0.2,0,0.4-0.1,0.6-0.1c0.1-0.1,0.2-0.1,0.3-0.2
	c0-0.1,0.1-0.2,0.1-0.2c0.1,0.1,0.2,0.2,0.3,0.2c0.1,0.1,0.1,0,0.2-0.1C120.4,24.7,120.2,24.3,120.2,23.8L120.2,23.8z M110,13.4
	c0.4,0.2,1.4,0,2.2,0.4c0.7,0.4,1.5,0.6,2.2,1.1c0.4,0.3,0.8,0.6,1.2,0.9c0.3,0.3,0.8,0.7,1.1,1c0.4,0.3,0.6,0.8,0.9,1.1
	c0.1,0.2,0.3,0.3,0.3,0.6c0.1,0.1,0.1,0.2,0.2,0.2c0.1,0.2,0.2,0.4,0.2,0.6c-1.4-1.2-2.5-2.6-4.3-3.4c-2.9-1.8-9-0.9-10.4-3v-0.1
	c1.5,0.9,2.9,0.6,4.5,0.6c0.3,0,0.6,0,0.9,0C109.3,13.3,109.8,13.3,110,13.4L110,13.4z M109.4,12.9c-0.8,0.1-5.7,0.5-5.6-0.9
	c1.1-0.3,2.3-0.5,3.4-0.4C107.6,11.4,109.2,12.5,109.4,12.9z M107.4,11c-0.4,0.1-0.9,0-1.3,0.1c-0.6,0.1-1.2,0.2-1.7,0.3
	c-0.2,0-1.2,0.3-1.2,0.3c0,0,0.1,0.5,0.2,0.6c-0.3,0.4-1.3,0.8-1.8,0.7c-0.6,0-1.1-0.3-1.6-0.3c-1.2,0.1-1.9,0.7-2.9,0.9
	c0.4-0.6,1.1-1.3,1.7-1.7c2.4-2,2.6-0.3,5.1-1.4C105.2,9.8,106.2,9.7,107.4,11L107.4,11z M112.1,19.6c-0.1,0.1-0.3,0.1-0.4,0.2
	c-0.1-0.4-0.4-0.4-0.7-0.6c0.3,0,1.3,0.1,1.5,0.4C112.4,19.5,112.2,19.6,112.1,19.6z M114.2,21.8c-1.3,0-1.8,1.2-2.9,1.6
	c0-0.8-0.7-1.5,0-2.6c0.1-0.2,0.4-0.4,0.6-0.5C113.3,19.5,113.9,20.7,114.2,21.8L114.2,21.8z M109.5,18.4
	C109.5,18.4,109.5,18.4,109.5,18.4c-0.4-0.2-1.4-0.1-1.8,0c-2.2,0.6-4.1-0.8-5.4-2.3c-0.2-0.2-0.4-0.3-0.6-0.5
	c0.7-0.2,1.4-0.5,2.1-0.5c0.8,0,1.6,0.3,2.4,0.4c0.8,0.1,1.6,0.1,2.4,0.1c0.6,0,1.6,0.3,2.1,0.6c0.2,0.2,0.6,0.3,0.7,0.5
	c0.4,0.5,0.7,1,1.3,1.4C111.9,18.9,110.5,18.7,109.5,18.4L109.5,18.4z M103.4,17.8c0.3,0.2,0.6,0.4,0.8,0.6c0.7,0.4,2.9,1,3.6,0.5
	c0,0,0,0,0,0c1.2-0.3,2.8,0.1,3.4,1.2c-0.6,0.5-1.1,3-0.3,3.4c-1.3,1-1.7-1.5-3.4-1.3c-0.2-0.3-1.2-1-1.5-0.9
	c-0.2,0.1-0.3,0.3-0.5,0.4c-0.4,0.2-1.8,0.1-2.1-0.2c-0.1-0.1-0.1-0.4-0.1-0.6c-0.1-0.4-0.9-2.9-1.1-3.3c-0.3-0.6-0.8-1-1.1-1.6
	C101.9,16.2,102.8,17.2,103.4,17.8L103.4,17.8z M103.9,23.2c-0.3-0.1-0.4-0.3-0.7-0.5c0-0.2,0.1-0.6,0.2-0.8
	c0.8,0.4,2.2,0.5,2.9-0.2c0.2,0.1,0.8,0.6,0.9,0.7c0,0.1,0.1,0.2,0.2,0.3c0.1,0.1,0.1,0.2,0.2,0.3c0.1,0.2,0.1,0.4,0.1,0.6l-0.1,0.1
	c-0.3-0.3-0.5-0.6-0.8-0.9c-0.1-0.1-0.3-0.2-0.4-0.3l-0.2-0.1c-0.2,0.1-0.2,0.3-0.3,0.4C106.1,23.3,104.3,23.5,103.9,23.2
	L103.9,23.2z M103.9,38.8c0.1,0,0.2,0,0.2-0.1c0.3-0.3,0.5-0.8,0.8-1.1c0.1,0.1,0,0.2-0.1,0.3c0,0.2-0.2,0.4-0.3,0.6
	c-0.1,0.2-0.3,0.5-0.4,0.7c-0.4,0.5-0.8,1-1.2,1.5c-0.2,0.2-0.3,0.4-0.5,0.6c0,0.1-0.1,0.1-0.1,0.2c-0.1,0.1-0.2,0.2-0.3,0.3
	c0,0.1,0,0.2,0.1,0.2c0.1,0,0.2,0,0.3,0c0.6-0.6,1.1-1.4,1.6-2c0.2-0.1,0.3-0.4,0.4-0.6c0.2-0.3,0.4-0.5,0.5-0.8
	c0.1,0,0.1,0.1,0,0.2c0,0.2-0.1,0.3-0.2,0.4c-0.2,0.3-0.4,0.6-0.5,0.8c-0.3,0.4-0.6,0.7-0.8,1.1c-0.3,0.4-0.5,0.7-0.9,1
	c-0.2,0.3-0.5,0.6-0.7,0.8c-0.4,0.4-0.8,0.9-1.2,1.2c-0.1,0.1-0.3,0.2-0.4,0.4c-0.2,0.3-0.6,0.4-0.8,0.7c-0.2,0.1-0.3-0.1-0.5-0.1
	c-0.1-0.1-0.3-0.1-0.3-0.3c0.3-0.2,0.7-0.5,0.9-0.8c0.3-0.3,0.6-0.6,0.9-0.9c0-0.1,0.1-0.2,0.1-0.3c-0.1-0.1-0.1-0.1-0.2-0.1
	c-0.3,0.3-0.7,0.8-1.1,1.1c-0.1,0.1-0.2,0.2-0.3,0.3c0,0.1-0.1,0.1-0.1,0.1c-0.2,0.2-0.4,0.3-0.5,0.4c-0.2,0.1-0.4-0.1-0.6-0.1
	c-0.1,0-0.4-0.1-0.4-0.2c0.4-0.3,0.7-0.6,1.1-0.9c0.5-0.3,0.8-0.9,1.3-1.2c0.8-0.8,1.4-1.6,2.1-2.5c0.5-0.7,0.9-1.4,1.4-2.1
	c0-0.1,0.1-0.2,0.2-0.3c0-0.1,0.1-0.2,0.1-0.4c0.1-0.2,0.1-0.3,0.2-0.5c0-0.1,0.1-0.2,0.2-0.2c0.1,0.1,0.1,0.1,0.2,0.2
	c0.2,0.2,0.4,0.4,0.6,0.7c0,0.2-0.2,0.3-0.2,0.5c-0.2,0.3-0.4,0.7-0.6,1.1C103.8,38.7,103.8,38.7,103.9,38.8L103.9,38.8z M103.8,44
	c0,0.5-0.1,1-0.2,1.5c-0.1,0.1-0.1,0.1-0.1,0.2c0,0.1,0,0.1-0.1,0.2c-0.1,0.2-0.2,0.5-0.5,0.5c-0.4,0-0.9,0-1.2-0.1
	c-0.2,0-0.3-0.1-0.5-0.2c-0.4-0.2-0.9-0.5-1.2-0.7c0.3-0.2,0.5-0.4,0.7-0.7c0.7-0.5,1.3-1.2,1.8-1.8c0.4-0.5,0.8-0.9,1.1-1.4
	c0.2-0.2,0.4-0.5,0.5-0.7c0,0.2-0.1,0.2-0.1,0.4c-0.1,0.2-0.2,0.4-0.2,0.7c0,0.3-0.1,0.7-0.1,1C103.7,43.3,103.8,43.7,103.8,44
	L103.8,44z M85.7,44.3c0.1,0.2,0.2,0.4,0.4,0.5c0.3,0.3,0.7,0.7,1,1c0,0.1-0.1,0.1-0.2,0.1c-0.2,0-0.3-0.1-0.5-0.2
	c-0.3-0.3-0.6-0.3-0.8-0.6c-0.1-0.1-0.3-0.3-0.4-0.4c0-0.1,0,0-0.1-0.1c-0.1-0.1-0.2-0.2-0.4-0.4c-0.1-0.1-0.2-0.3-0.4-0.4
	c0-0.1-0.1-0.1-0.1-0.1c-0.2-0.2-0.3-0.3-0.4-0.5c-0.2-0.2-0.3-0.4-0.4-0.5c-0.1-0.2-0.3-0.5-0.4-0.7c0-0.1-0.1-0.2-0.1-0.2
	c-0.1-0.1-0.1-0.2-0.1-0.2c0-0.2-0.2-0.4-0.3-0.7c-0.1-0.2-0.1-0.4-0.2-0.6c-0.1-0.2-0.2-0.5-0.2-0.6c0.1-0.1,0.2-0.2,0.2-0.4h0.1
	c0.1,0.4,0.3,0.7,0.4,1.1c0.2,0.4,0.4,0.8,0.6,1.2c0.1,0,0.2,0.2,0.3,0.2c0.1,0,0.1-0.1,0.2-0.2c0-0.2-0.1-0.3-0.2-0.4
	c0-0.2-0.1-0.3-0.2-0.5c0-0.1-0.1-0.1-0.1-0.2c0-0.1-0.1-0.3-0.1-0.4c-0.1-0.2-0.2-0.5-0.3-0.7c0-0.2-0.1-0.3-0.1-0.5
	c0.3-0.2,0.5-0.5,0.8-0.7c0.1,0.1,0,0.3,0.2,0.4c0.2,0.8,0.6,1.4,0.9,2.1c0.6,0.9,1.2,1.8,2,2.6c0.4,0.5,0.9,1,1.5,1.4
	c0.2,0.2,0.4,0.3,0.6,0.5c0,0,0,0.1,0,0.1c-0.2,0.1-0.5,0.3-0.7,0.4c0,0-0.1,0-0.1,0c-0.1,0-0.1,0.1-0.1,0.1c-0.1,0.1-0.2,0-0.3,0
	c-0.3-0.2-0.5-0.4-0.8-0.7c-0.1-0.1-0.2-0.2-0.3-0.3c-0.1-0.1-0.2-0.2-0.3-0.3c-0.1,0-0.2-0.1-0.4-0.1
	C85.7,44.2,85.7,44.2,85.7,44.3L85.7,44.3z M83,43.5c0-0.3-0.1-0.6,0-0.9l0,0c0.4,0.5,0.7,1,1.1,1.5c0.2,0.3,0.4,0.5,0.7,0.7
	c0.4,0.4,0.8,0.9,1.3,1.2c0.1,0.1,0.2,0.1,0.3,0.2c-0.1,0.2-0.3,0.2-0.5,0.3c-0.1,0.1-0.2,0.1-0.3,0.1c-0.4,0.1-0.7,0.4-1.1,0.5
	l-0.1,0.1c-0.3,0.1-0.7,0.1-1,0c-0.1,0-0.1-0.1-0.2-0.1c0,0-0.1-0.1-0.2-0.1c-0.2-0.5-0.2-1.1-0.2-1.7C83,44.8,82.9,44.1,83,43.5
	L83,43.5z M81.3,39.4c0-0.2,0.1-0.3,0.1-0.5c0.1-0.3,0.2-0.5,0.4-0.7c0,0,0-0.1,0.1-0.1c0.4-0.6,1-1.1,1.6-1.6l0.1,0v0.4
	c0,0.1,0,0.2-0.1,0.2v0c0,0-0.1,0.1-0.1,0.1c-0.4,0.6-1.2,1-1.6,1.6c-0.1,0.1-0.2,0.3-0.3,0.5c-0.1,0.1,0,0.2-0.1,0.3
	c0,0.1,0,0.1,0,0.2c-0.1,0,0,0.1-0.1,0.1C81.2,39.9,81.3,39.6,81.3,39.4L81.3,39.4z M88.6,44c-0.6-0.5-1.2-1.1-1.7-1.7
	c-0.6-0.7-1.2-1.4-1.6-2.2c-0.3-0.6-0.5-1-0.7-1.6c-0.1-0.2-0.1-0.4-0.2-0.6c-0.1-0.4-0.3-0.7-0.2-1.1c0-0.2,0-0.3,0-0.5
	c0-0.1-0.1-0.2,0-0.3l0,0l0,0c0,0,0,0.1,0,0.1c0,0,0.1,0.1,0.1,0.2c0.2,0.5,0.5,1,0.7,1.5c0.2,0.4,0.5,0.8,0.8,1.2
	c0.1,0.1,0.2,0.3,0.3,0.3c0.2,0,0.2,0.2,0.3,0.3c0.6,0.7,1.4,1.1,2.1,1.7c0.3,0.3,0.6,0.5,0.9,0.8c0.3,0.3,0.6,0.6,1,0.9
	c0.7,0.7,1.8,0.5,2.7,0.6c0.8,0,1.6-0.2,2.2-0.5c0.3,0,0.5-0.2,0.8-0.3c0.3-0.2,0.5-0.4,0.7-0.7l0.1,0c0.3-0.3,0.6-0.6,0.9-0.9
	c0.4-0.3,0.8-0.7,1.1-1c0.3-0.2,0.6-0.5,0.8-0.8c0.5-0.4,0.8-0.9,1.2-1.4c0.2-0.3,0.4-0.5,0.5-0.8c0.1-0.2,0.2-0.5,0.4-0.6
	c0.1,0.1,0,0.2,0.1,0.3c0.1,0.1,0.1,0.2,0.2,0.3c0,0.1,0.1,0.3,0.2,0.4c0,0.2,0.2,0.4,0,0.5c-0.3,0.6-0.8,1.1-1.2,1.7
	c-0.3,0.3-0.5,0.6-0.8,1c-0.4,0.5-0.9,1-1.4,1.5c-0.4,0.6-1,1-1.5,1.4c-0.2,0.1-0.3,0.2-0.5,0.3c-0.2,0.1-0.3,0.3-0.5,0.3
	c-0.7,0.1-1.5,0.2-2.1,0.6c-0.2,0-0.4-0.1-0.6-0.2c-0.4-0.1-0.7-0.1-1,0.1c-0.2,0-0.3-0.2-0.4-0.2c-0.4-0.2-0.9-0.3-1.3-0.2
	c-0.3,0-0.7,0.1-1,0.2c-0.2,0.1-0.3-0.1-0.5-0.1C89.1,44.3,88.9,44.1,88.6,44L88.6,44z M103.3,36.1
	C103.2,36.1,103.3,36.1,103.3,36.1c-0.1,0.1-0.2,0.2-0.2,0.4c-0.1,0.2-0.2,0.3-0.2,0.5c0,0.1-0.1,0.2-0.2,0.3
	c-0.1-0.1-0.2-0.2-0.3-0.4c-0.1-0.2-0.1-0.4-0.2-0.5c-0.1-0.2,0-0.4-0.1-0.7c0.1-0.2,0.2-0.5,0.3-0.7c0-0.1,0.1-0.3,0.2-0.4l0,0
	c0,0,0,0.1,0.1,0.1c0.1,0.3,0.4,0.7,0.6,1C103.4,35.9,103.3,36,103.3,36.1L103.3,36.1z M102.8,30.8c0,0.5-0.1,1-0.2,1.5
	c-0.1,0.3-0.1,0.6-0.2,0.9c-0.1,0.4-0.2,0.8-0.3,1.2l-0.2,0.6c-0.1,0.1-0.1,0.3-0.2,0.4c-0.1,0.2-0.2,0.4-0.3,0.6
	c0,0.1-0.1,0.1-0.1,0.2c-0.2,0.3-0.4,0.6-0.5,0.9c0,0.1-0.1,0.1-0.1,0.2c-0.1,0-0.1,0.1-0.1,0.2c0,0.1-0.1,0.1-0.1,0.2
	c-0.5,0.6-0.8,1.2-1.4,1.7c-0.1,0.2-0.3,0.3-0.4,0.5c-0.1,0.1-0.1,0.1-0.2,0.1c-0.4,0.4-0.8,0.7-1.2,1c-0.5,0.4-1,1-1.6,1.4
	c-0.4,0.3-0.8,0.5-1.3,0.6c-1,0.3-2.1,0.2-3.1,0.2c-0.5-0.1-0.8-0.4-1.1-0.7c-0.2-0.2-0.5-0.5-0.7-0.7c-0.3-0.3-0.7-0.6-1-0.9
	c-0.1-0.1-0.2-0.1-0.3-0.2c-0.1-0.1-0.3-0.2-0.4-0.3c-0.6-0.4-1-0.9-1.5-1.4c-0.2-0.1-0.2-0.2-0.3-0.3c0-0.1-0.2-0.2-0.2-0.4
	c-0.1-0.1-0.2-0.3-0.2-0.4c0-0.1-0.1-0.1-0.1-0.2c-0.2-0.3-0.3-0.7-0.5-1c-0.1-0.2-0.2-0.5-0.3-0.7c-0.1-0.2-0.2-0.4-0.3-0.6
	c-0.1-0.2-0.2-0.4-0.3-0.6c-0.3-0.9-0.6-1.8-0.7-2.8c0,0,0-0.1-0.1-0.2c-0.1-0.5-0.1-0.8-0.1-1.3c-0.1-0.5,0-1.1,0-1.6
	c0.4-0.1,0.7-0.3,1-0.6c0.2-0.1,0.3-0.3,0.4-0.4c0.1,0,0.2,0,0.3-0.1c0,0.1-0.2,0.3-0.2,0.4c-0.2,0.3-0.5,0.6-0.5,1
	c0.1,0.1,0.2,0.2,0.3,0.2c0.2,0,0.3,0,0.5,0c-0.1,0,0,0.1,0,0.2c0.1,0.1,0.2,0,0.3,0c0,0,0,0.1,0,0.2c0.6,0.7,1.4,1.1,2.4,1.1
	c0,0.1,0.1,0,0.2,0c0,0,0.1,0,0.1,0c0.8-0.2,1.5-0.5,2.3-0.7c0.2-0.1,0.4-0.2,0.4-0.4c-0.3-0.4-0.8-0.7-1.2-0.9
	c-0.3-0.1-0.6-0.2-0.9-0.3c-0.5-0.1-1.2,0-1.7,0.1c-0.6,0.2-1.1,0.5-1.6,0.7c0,0-0.1,0-0.1,0c0,0,0.1-0.1,0.1-0.1
	c0.4-0.3,0.4-0.3,0.8-0.5c0,0,0.5-0.3,0.6-0.4c0.5-0.2,0.7-0.4,1.4-0.3c0.2,0.1,0.4,0.1,0.6,0.2c0.1,0,0.1,0,0.1-0.1
	c0-0.2-0.1-0.3-0.2-0.4c-0.3-0.1-0.6-0.2-1-0.2c-0.3,0.1-0.6,0.1-0.9,0.2c-0.2,0.1-0.3,0.1-0.5,0.2c-0.3,0.1-0.3,0.3-0.6,0.4
	c-0.1,0.1-0.4,0.3-0.5,0.4c-0.1,0-0.4,0.1-0.5,0.1c0-0.1,0.1-0.2,0.2-0.3c0,0,0.1-0.1,0.1-0.1c0.1-0.1,0.2-0.3,0.3-0.4
	c0.3-0.2,0.4-0.4,0.8-0.6c0.6-0.2,1.2-0.2,1.6-0.2c1,0.1,1.6,0.2,2.2,0.2c0.4-0.1,0.9-0.1,1.3-0.4c0.1-0.1,0.1-0.2,0.1-0.2
	c-0.1-0.1-0.2-0.1-0.3,0c-0.6,0.3-0.8,0.2-1.3,0.3c-0.5,0-0.9,0-1.2,0c-0.5-0.1-0.9-0.2-1.4-0.1c-0.2,0-0.5,0.2-0.7,0.1
	c0-0.5,0.5-1,0.8-1.5c0.3-0.2,0.7-0.5,1-0.6c0.2-0.2,0.5-0.3,0.7-0.6c0.2-0.2,0.4-0.4,0.5-0.7c0.1-0.1,0.1-0.2,0.1-0.4l0-0.1
	c0.4-0.2,0.7-0.5,1.1-0.8c0,0,0.1-0.1,0.1-0.1c0.2-0.1,0.4-0.3,0.5-0.5c0.1-0.1,0.2,0,0.3,0.1c0.1,0.1,0.2,0.2,0.3,0.2
	c0.2,0.1,0.4,0.1,0.7,0.2c0.7,0,1.4,0.1,2.1,0.1h0.1c0.4,0.1,0.9,0.1,1.4,0.2c0.7,0.1,1.3,0.2,2,0.4c0.5,0.1,1.1,0.3,1.6,0.5
	c0.2,0.1,0.5,0.2,0.7,0.4c0.4,0.3,0.8,0.6,1.2,0.9c0.1,0.1,0.2,0.2,0.2,0.3c0.2,0.2,0.3,0.4,0.4,0.6c0.1,0.2,0.2,0.3,0.3,0.5
	c0.1,0.1,0,0.2,0.1,0.3c0,0.1,0.1,0.1,0.2,0.2l0.1,0c0,0.5,0.1,1.1,0.1,1.7c0.1,0.9-0.1,1.7-0.1,2.6
	C102.8,30.6,102.8,30.7,102.8,30.8L102.8,30.8z M83.1,27.1c0.1-0.4,0.9-2.1,1.4-2.2c0.1,0,0,0.1,0,0.2c-0.1,0.2-0.1,0.5-0.2,0.7
	c-0.1,0.3-0.1,0.6,0,1c0.1,0.4-0.5,0.7-0.6,0.8c-0.1,0.1-0.5,0.4-0.5,0.1l0-0.1C83.3,27.5,83,27.4,83.1,27.1z M82.6,30.3
	c0,0,0-0.1,0-0.1c-0.1-0.2-0.2-0.5-0.3-0.7c-0.1,0,0-0.1-0.1-0.1c0-0.1,0.1-0.2,0.1-0.3c0,0,0,0,0.1,0l0.1,0c0,0,0,0.1,0,0.1
	c0,0,0,0,0-0.1c0,0,0,0,0,0c0,0,0,0,0,0v0c0,0,0,0,0.1,0c0,0,0,0,0.1,0c0.1,0.1,0,0.2,0.1,0.3c0,0.4,0,0.7,0,1.1c0,0.1,0,0.2,0,0.4
	c0,0.1-0.1,0-0.1,0C82.6,30.7,82.7,30.5,82.6,30.3L82.6,30.3z M82.5,27.8c-0.2,0.1-0.3,0.4-0.6,0.4c-2,0-0.8-2,0.1-1.9
	c0.2,0,0.5,0.1,0.8,0.1l0,0.1C82.7,26.7,82.6,27.6,82.5,27.8L82.5,27.8z M82.8,23.2c-0.3,0.4-0.5,0.7-0.7,1.1c0,0-0.1,0-0.1,0
	c0-0.1,0-0.3,0-0.4c0.3-2.3,3.7-2.3,5.4-2.3c0.5,0,1-0.2,1.5-0.1c0.6,0.1,1.2-0.2,1.8-0.4c0,0.2-0.2,0.3-0.3,0.4l-0.1,0.1
	c-0.1,0.1-0.4,0.3-0.4,0.3C87.8,24.1,84.4,20.9,82.8,23.2z M88.8,23.2c-0.4,0.7-1,0.9-1.6,1.3c-0.7-0.2-1.4,2.4-2.2,2.4l-0.1-0.1
	c-0.2-1.3,0.6-3.3,2.1-3.5C87.6,23.2,88.1,23.4,88.8,23.2L88.8,23.2z M83.1,21.7c-1.3,0.9-3.9,2.1-5.2,0.6c1-0.1,1.4-0.1,2.4-0.7
	c1.2-0.8,3.2-2.6,4.8-1.8l0,0c0.5,0,1.6,0.7,2.1,1C86.4,21.4,84.6,20.8,83.1,21.7L83.1,21.7z M82.5,25.7c-0.2-0.1,0-0.7,0.1-0.9
	c0.7-1.7,1.2-1.9,2.9-1.9v0c0.2,0,0.4,0,0.5,0.1c-0.1,0.1-0.2,0.1-0.3,0.2c-0.3,0.1-0.3,0.4-0.6,0.5c-0.8,0.5-1.2,1.2-1.9,1.8
	C83,25.5,82.7,25.9,82.5,25.7L82.5,25.7z M85.7,29.3c0.1,0,0.2-0.1,0.3,0v0.3c0,0-0.1,0-0.1,0C85.9,29.4,85.8,29.4,85.7,29.3z
	 M89.4,29.4c0,0.1,0,0.2,0,0.3c0,0,0,0.1-0.1,0.1C89.2,29.9,89.1,30,89,30c-0.1,0-0.3,0.1-0.4,0.1c-0.5,0.2-1.2,0.1-1.7-0.1
	c-0.1,0-0.1-0.1-0.2-0.1c0,0-0.1,0-0.1-0.1c0-0.1,0-0.1,0-0.2c0-0.1,0-0.2-0.1-0.3c0,0,0-0.1,0-0.1c0,0,0-0.1,0-0.1
	c0.4-0.3,0.9-0.5,1.5-0.5c0.3,0,0.5,0,0.7,0.1c0.2,0,0.4,0.1,0.6,0.2c0,0-0.1,0.1-0.1,0.1C89.3,29.1,89.4,29.2,89.4,29.4z
	 M89.8,29.2c0-0.1,0-0.1-0.1-0.2c0.2,0.1,0.5,0.3,0.7,0.5c0,0,0,0,0,0c0,0,0,0-0.1,0c0,0,0,0-0.1,0c-0.1,0-0.1,0-0.2,0.1l-0.2,0
	c0-0.1,0-0.2,0-0.2C89.8,29.4,89.8,29.3,89.8,29.2L89.8,29.2z M96.6,20.2c1.8,0.9,3.8,0.3,5.1,2c0.5,0.6,0.9,1.4,0.8,2.2l0,0.1
	l0,0.1l-0.1,0.1c-0.3-0.2-0.5-0.5-0.8-0.8c-1.8-1.7-3.8-2.1-6.2-2.4c-0.5-0.1-3.6-0.2-3.7-0.6c0,0,0.8-1.5,0.9-1.8
	c0.1-0.1,0.1-0.3,0.2-0.4c0-0.2,0.1-0.3,0.1-0.5l0.1-0.3c0.7,0.3,1.4,1.9,3.1,1.7C96.2,20,96.5,20,96.6,20.2z M96.4,19
	c2.4,0.2,2.7-0.8,5.3,0.3c0.5,0.2,1,0.6,1.1,1.1c0.1,0.5,0.2,1.7-0.2,2.1c-0.2-0.4-0.6-0.8-0.8-1.1C100.7,20,96.7,20.6,96.4,19
	L96.4,19z M101.2,16.9c0.2,0.2,0.4,0.3,0.5,0.6c0.1,0.2,0.6,1.4,0.6,1.6c-1.2-0.5-2.1-1-3.5-0.7c-1.5,0.3-3.6,0.5-4.3-1.2
	c-0.2-0.4-0.5-1.9-0.5-1.9c0-0.3,0-0.5,0.1-0.8c0.2,0.2,0.3,0.4,0.5,0.6c0.3,0.3,0.7,0.5,1.1,0.6c1.7,0.5,3.9-0.7,5.3,0.8
	C101,16.6,101.1,16.7,101.2,16.9z M94.2,13.7c0-0.1-0.1-0.2-0.1-0.3c0.3-0.7,0.7-1.2,0.9-2c0.4-1.5,0.1-1.6,0-2.9
	c0.7-0.3,2.2,1.1,2.2,1.8c-0.1,0.4-0.1,0.8-0.1,1.3C97.1,12.9,95.6,15.1,94.2,13.7z M103.1,8.9c0.4,0.3,0.8,0.5,1.2,0.8l-0.1,0.1
	c-1,0.4-2.3,1.1-3.5,0.6c-1,0.2-1.6,0.4-2.3,1.1c-0.3,0.2-0.5,0.5-0.8,0.6c0.2-1.1,0.1-2.3,0.5-3.4C99.3,5.5,101.4,7.6,103.1,8.9
	L103.1,8.9z M95.4,5.4c0.1-0.1,0.1-0.3,0.2-0.4c0.1,0,0.2,0.2,0.3,0.3c0.8,0.9,2.2,0.5,2.8,1.5c0,0,0,0.1,0,0.1
	c-0.5,0.4-0.8,0.9-0.9,1.5l-0.2,0.6c-0.1,0-0.2-0.1-0.2-0.1c-0.4-0.4-1.4-0.9-2-1c-0.3,0-0.6,0.1-0.9,0C92.4,7.4,95,5.9,95.4,5.4
	L95.4,5.4z M93.4,6.3L93.4,6.3c-0.1,0.5-0.3,0.5-0.3,1c0,0.5,0.8,1.4,1.4,1.2c0.7,0.9-0.1,3.2-0.5,4.1c-0.3,0.4-1.1,0.2-1.4-0.2
	c0-0.1-0.2-0.2-0.2-0.3c-0.2-0.5-0.6-0.8-1.1-1c-0.4-0.2-0.8,0-1-0.5c-0.2-0.4-0.3-0.8-0.6-1.1c-0.5-0.6-2-0.7-2.1-1
	C89.5,7.3,90.8,5.9,93.4,6.3L93.4,6.3z M87.2,9.4c0-0.1,0.1,0,0.2,0c0.3,0.1,0.7,0.2,1,0.3c0.9,0.2,1.1,1.3,1.8,2
	c0.2,0.2,0.6,0.1,0.8,0.2l-0.1,0.1c-0.6,0.4-1.6,0.7-2-0.2c-0.3-0.6-1.4-0.3-1.7-1.5C87.2,10,87.1,9.6,87.2,9.4L87.2,9.4z M86.6,9.1
	l0,0.3c0,0.1-0.1,0.1-0.1,0.1c-0.1,0-0.1-0.1-0.2-0.1c-0.1,0-0.2-0.1-0.2-0.1C86.3,9.2,86.5,9.1,86.6,9.1L86.6,9.1z M82.1,10.7
	c0.2-0.1,0.2-0.5,0.1-0.6c0-0.3,0-0.5,0.1-0.8l0-0.1c0.2-0.6,0.5-0.8,1-1.2c0.2,0.2,0.2,0.4,0.4,0.5c0.6,0.5,1.3,0.6,1.8,1
	c0.2,0.1,1,0.5,1.2,0.5c0.1,0.3,0.1,0.7,0.3,1c0.5,0.6,0.7,0.7,1.4,1c0.5,0.9,1.6,1.2,2.4,0.7c0.1-0.1,0.6-0.5,0.7-0.5
	c0.2,0.2,0.5,0.2,0.5,0.5c0.4,0.7,0.9,0.9,1.7,0.8c0,0.1,0,0.2,0,0.3c0,0.1,0,0.2-0.1,0.4c-0.2,1.1,0.2,3.1,1,4
	c0.5,0.5,0.8,0.6,1.4,0.8C96,19,96.1,19.2,96,19.3c-1.5-0.2-2.3-1.5-2.5-1.5c-0.2-0.2-0.3-0.4-0.3-0.6c0.2-2.1-2.8-2.4-3.8-1
	c-0.1,0.2-1-0.1-1.3-0.2c-0.2-0.5-1.4-0.9-1.8-1.2c0-1.7-2.4-4.3-4.2-3.1c-0.1,0.2-0.3,0.4-0.4,0.6c0,0-0.8-0.4-1.1-0.5l-0.1-0.1
	C81.1,11.1,81.4,11,82.1,10.7L82.1,10.7z M87.1,16.5c0.5-0.1,1.1,0,1.6,0.2c0.2,0.1,0.4,0.6,0.7,0.3c0.1-0.1,0.2-0.2,0.3-0.4
	c0.4-0.6,1.9-1.1,2.5-0.5c0.1,0.1,0.3,0.3,0.3,0.4c0,0,0,0-0.1,0l0,0c-0.2-0.1-0.4,0-0.6,0.1c-2.4,0.7-1.3,3.5-5.3,1.9
	c-0.2-0.1-1.1-0.5-1.3-0.6C85.8,17.4,86.3,16.7,87.1,16.5L87.1,16.5z M85.1,17.2c-0.6,0.4-2.5-0.7-3.3-0.8c0.3-0.4,1.2-1,1.7-0.9
	c0.7,0.1,2-0.4,2.5-0.2c0.4,0.2,0.8,0.4,1.2,0.6C85.6,16.3,86.1,16.6,85.1,17.2z M81.6,13.6l-0.1,0c-0.6-0.1-1.1-0.4-1.6-0.4
	c-1.4-0.2-3,0-4.3,0.5c-0.6,0.2-1.2,0.6-1.8,0.9C74.3,13.4,80.9,10.5,81.6,13.6z M79.7,13.7c0.4,0,1.8,0.5,1.9,0.5l0,0.1
	c-1.5,2.6-4.6,2-7.1,1.8c-0.6,0-1.1,0-1.7,0C74.8,14.3,76.9,13.5,79.7,13.7L79.7,13.7z M67.1,22.8c0-1.1,0.8-2.2,1.4-3
	c0.8-1.1,2.4-2.4,3.7-2.9c2.7-1.1,7.7,1.9,9.9-2.2c0-0.4,0.3-0.8,0.2-1.2c-0.1-0.3-0.3-0.6-0.3-0.9c0.4,0,0.4-0.6,0.8-0.6
	c1.6-0.2,2.7,1.3,3.1,2.7c-0.6,0-1.2,0.3-1.8,0.3c-1.1,0-2.1,0.2-2.7,1.2c-0.1,0-0.6,0.6-0.6,0.7c-0.2,0.1,0,0.4,0.3,0.4
	c0.4-0.1,0.7-0.3,1.2-0.2c0.7,0.2,1.3,0.6,1.9,0.7c0,0.2,0.1,0.4,0.3,0.5c0.4,0.2,0.8,0.2,1.2,0.4c1.1,0.6,3.1,1.5,4.2,0.5
	c0.4-0.3,2.5-2.9,3.1-1.7l-0.1,0.2c-0.4,1.7-1.8,3.4-3.8,3.1c-2.5-0.3-3.5-2.6-6.5-1.3c-1.8,0.8-2.6,2.6-4.8,2.2
	c-0.4-0.1-0.8-0.2-1.1-0.5c0.5-1.5,1.1-2.7,2.6-3.4c0.3-0.2,0.9-0.5,1.3-0.4c0.1-0.1,0.1-0.2,0.1-0.3L80.3,17
	c-0.7,0.1-1,0.3-1.6,0.5c-0.3,0.3-0.7,0.3-1.1,0.5c-0.1,0.1-0.7,0.3-0.7,0.3c-1,0-1.6-0.6-3-0.4c-0.4,0.1-1,0.2-1.3,0.4
	c-0.9,0.6-1.8,1-2.7,1.6C68.9,20.5,67.2,22.7,67.1,22.8L67.1,22.8z M69.9,24.8c-0.2,0-0.6,0-0.7-0.2c-0.2-0.3-0.2-0.6-0.2-1
	c0.2-0.1,0.2-0.3,0.4-0.4c0.1-0.1,0.2-0.2,0.3-0.3c0.1-0.1,0.1-0.2,0.3-0.3c-0.2,0.4-0.2,0.9-0.2,1.3C69.7,24.2,69.9,24.5,69.9,24.8
	L69.9,24.8z M70.4,24.1c-0.3-2,1.2-1.6,1.5-1.9c0.3,0.3,0.3,0.6,0.7,0.8c-0.9-0.5-1.8,0.8-1.2,1c0.3,0.1,0.5-0.6,0.9-0.4
	c0.5,0.3-0.3,1.3-1,1.2C70.9,24.9,70.5,24.5,70.4,24.1L70.4,24.1z M71.7,21.5c-0.4,0.1-0.8,0.2-1.1,0.5c-0.1,0-0.1,0.1-0.1,0
	c0.2-0.3,0.4-0.5,0.6-0.7c0.2-0.1,0.3-0.3,0.5-0.5l0,0C71.6,21.1,71.6,21.3,71.7,21.5L71.7,21.5z M71.1,25.6
	c1.5,0.2,2.3-1.3,1.5-2.5c0.6,0.3,1.6,0.7,1.7,1.3C75,27.2,71.1,27.4,71.1,25.6z M74.8,29.2c-1,0.3-2.4-0.8-2.3-1.8
	c2.2,0.4,3.3-3,1.8-4.1c-0.5-0.4-1.3-0.5-1.7-1.1c-1.5-2,1.2-2.4,1.3-2.6c0-0.1,0-0.3-0.1-0.4c-0.5-0.5-3,1.5-3.4,1.9
	c-0.1,0.2-0.3,0.2-0.3,0.4c-0.8,0.7-1.5,2.3-2.8,2.4c1-2.2,5.4-5.9,7.9-5.5c0.7,0.1,1.4,0.4,2.1,0.4v0.1c-0.3,0.3-1,1.8-1,2.2
	c-0.5,0.4,0.7,0.9,0.9,1c0.1,0.2,0.3,0.3,0.5,0.5c-1.4,0.3-1.7-1.8-2.5-1c-0.3,0.3-0.2,0.6-0.3,1c0,0.3,0.3,0.8,0.4,1.1
	c0.4,0.4,0.6,0.9,0.9,1.4c0,0.9,0.6,0.9,0,2.5c0,0.1-0.2,0.3-0.2,0.4C75.6,28.4,75.3,29.1,74.8,29.2L74.8,29.2z M77.1,31.8
	c-0.5-0.5-1.7-1.6-1.4-2.4c0.1-0.2,0.6-0.7,0.7-1.2c0.3-1,0.6-1.8,0.3-2.8c-0.3-1-1.1-1.7-1.4-2.7c0.1-0.2,0-0.4,0.1-0.5l0.1-0.1
	c0.3,0.3,0.4,0.7,0.8,1c0.5,0.3,1.3,0.5,1.8,0.1c1,0.6,2.8,0.7,3.8,0.1h0c-0.2,1-0.3,1.4,0,2.4c-1.5,0.4-2.1,2.7-0.7,3.1
	c0.1,0.2,0.4,0.2,0.6,0.2c0,0.1-0.2,0.4-0.3,0.5c-0.4,0.7-0.4,2.1-1.5,2.1c-0.9,0-0.7-2.2-1.8-1.8c-1.3,0.5-0.2,2,0.9,2.1
	c0.1,0,0.2,0,0.3,0c0,0.6-0.6,1.1-1.2,0.8C77.4,32.7,77.4,32.1,77.1,31.8L77.1,31.8z M78.8,31.3c0,0-0.1,0-0.1,0
	c-0.3-0.2-0.4-0.4-0.5-0.7c0-0.2,0.1-0.2,0.3-0.3c0.2,0,0.2,0.4,0.3,0.5C78.7,30.9,78.7,31.1,78.8,31.3z M78.4,34.5
	c0,0.1-0.1,0.1-0.1,0.2c0,0.1,0,0.1-0.1,0.1c0,0-0.1-0.1-0.1-0.2c-0.1-0.3-0.1-0.8,0.1-1.2c0-0.1,0-0.1,0.1-0.2c0.3,0,0.7,0,1-0.1
	c0.2-0.1,0.4-0.3,0.5-0.6c0-0.1,0.1-0.1,0.1-0.2c0,0,0.1-0.1,0.1-0.1c0-0.1,0-0.2,0-0.3c0.4,0,0.8-0.1,1-0.3
	c0.4-0.4,0.7-0.9,0.8-1.4c0.1,0,0.1-0.1,0.1-0.2c0,0,0.1,0,0.1,0c0,0.1,0.1,0.2,0.1,0.3c0,0.4,0,0.7-0.2,1c-0.2,0.3-0.6,0.6-0.8,0.9
	c-0.2,0.2-0.4,0.3-0.6,0.4c-0.4,0.3-0.8,0.6-1.2,0.9C79,33.9,78.6,34.2,78.4,34.5L78.4,34.5z M79.5,35.4c-0.1,0.2-0.1,0.3-0.2,0.5
	c0,0.1,0,0.1-0.1,0.2c-0.1,0-0.2,0-0.3-0.1c0-0.1-0.1-0.1-0.1-0.2c-0.1-0.2-0.2-0.4-0.1-0.7c0.2-0.5,0.6-0.8,1-1.2
	c0.4-0.3,0.8-0.6,1.2-0.9c0.2,0,0.2-0.2,0.4-0.3c0.3-0.3,0.6-0.6,0.9-0.9c0.1-0.1,0.2-0.3,0.3-0.5c0.2,0,0.3,0.2,0.4,0.3
	c0.1,0.3,0.2,0.7,0,1c0,0-0.1,0.1-0.1,0.1c-0.3,0.4-0.8,0.5-1.3,0.7c-0.4,0.2-0.8,0.3-1,0.6C80.1,34.6,79.6,34.8,79.5,35.4z
	 M79.9,37.5c0-0.1,0-0.2-0.1-0.3c0-0.3-0.1-0.5,0-0.8c0-0.2,0.1-0.4,0.2-0.6c0,0,0,0,0,0c0.1-0.1,0.1-0.2,0.1-0.3
	c0.4-0.5,0.9-1.1,1.6-1.3c0.4-0.1,0.7-0.3,1-0.5c0-0.1,0.2-0.1,0.2-0.2c0.1-0.1,0.2-0.2,0.3-0.3c0,0,0.1,0.1,0.1,0.2
	c0.1,0.4,0.2,0.7,0.3,1c0,0.2,0.2,0.5,0.1,0.7c0,0.2,0,0.4-0.2,0.6c-0.1,0.2-0.3,0.3-0.5,0.4c0,0.1-0.1,0.1-0.1,0.1
	c-0.8,0.5-1.4,1.3-1.9,2.1v0.1c0,0-0.1,0.1-0.1,0.1c-0.1,0.2-0.1,0.4-0.2,0.5c0,0,0,0-0.1,0c0,0,0,0,0,0c-0.1-0.1-0.1-0.2-0.1-0.4
	c-0.1-0.2,0-0.6-0.3-0.7C80.1,37.9,79.9,37.7,79.9,37.5L79.9,37.5z M90.8,45.7c-0.3,0-0.6,0.2-0.9,0.3c-0.2,0.2-0.5,0.2-0.8,0.4
	c-0.4,0.1-0.7,0.4-1,0.6c-0.3,0.1-0.5,0.3-0.8,0.4c0,0,0,0-0.1,0c-0.3,0.1-0.5,0.3-0.7,0.4c-0.1,0.1-0.2,0.1-0.3,0.2
	c-0.1,0-0.2,0.1-0.3,0.1c-0.1,0-0.2,0-0.3,0c-0.3,0-0.5,0.1-0.8,0.2c-0.1,0-0.2,0.1-0.1,0.2c0,0,0,0,0.1,0c0.2,0.1,0.4,0.2,0.6,0.1
	c0.4-0.1,0.8-0.1,1.2-0.3c0.5-0.3,1-0.5,1.5-0.7c0.1,0,0.2-0.1,0.3-0.1c0.1-0.1,0.2-0.1,0.2-0.2c0.5-0.4,1.2-0.6,1.7-0.9
	c0.1,0,0.2-0.1,0.4-0.1c0,0-0.1,0.1,0,0.1c-0.1,0.1-0.1,0.3-0.1,0.4v0.2c-0.3,0.1-0.6,0.2-0.9,0.3c-0.3,0.1-0.6,0.3-0.9,0.4
	c0,0.1-0.2,0.1-0.2,0.1c-0.5,0.2-0.8,0.5-1.2,0.7c0,0.1-0.1,0.1-0.2,0.1c-0.2,0.1-0.4,0.2-0.5,0.3C86.5,49,86.3,49,86,49.1
	c-0.7,0.2-1.4,0.2-2.1,0.1c-0.3,0-0.6-0.2-0.9-0.3c-0.3-0.3-0.8-0.4-1-0.9c-0.1-0.1-0.2-0.3-0.3-0.3c0-0.1-0.1-0.1-0.1-0.2
	c-0.3-0.3-0.3-0.7-0.4-1c0-0.4-0.2-0.9,0-1.3c0-0.2,0-0.5,0.1-0.8c0.1-0.3,0.1-0.7,0.2-1c0,0,0-0.1,0-0.1c0-0.2,0.1-0.3,0.1-0.4
	c0-0.1,0-0.1,0.1-0.2c0,0,0,0,0,0c0.1,0.1,0.2,0.2,0.3,0.2c0.1,0,0.2-0.2,0.2-0.3c0,0,0-0.1,0-0.1c0,0,0-0.2-0.1-0.2
	c-0.1-0.5-0.7-0.9-1.2-1.1c-0.5-0.2-0.9-0.7-0.9-1.3c0-0.1,0-0.2,0-0.3c0,0,0.1,0,0.1,0c0,0.2,0.2,0.5,0.4,0.7
	c0.2,0.1,0.2,0.3,0.4,0.3c0.3,0.3,0.8,0.4,1,0.7c0.2,0.2,0.3,0.4,0.4,0.7c0.1,0.3,0.1,0.6,0.1,0.9c0,0.3,0.1,0.7,0,1
	c0,0.1,0,0.1,0,0.2c-0.1,0,0,0.1,0,0.2c0,0.2,0,0.4,0,0.6c0.1,0.6-0.2,1.2,0.1,1.8c0,0.1,0.1,0.2,0.1,0.4c0.1,0.2,0.1,0.4,0.3,0.5
	c0,0.1,0,0.2,0.1,0.1c0.1,0.1,0.1,0.2,0.2,0.2c0.2,0,0.5,0.1,0.7,0.1c0.9-0.2,1.7-0.7,2.5-1c0.6-0.4,1.2-0.7,1.8-1
	c0.5-0.3,1.1-0.5,1.6-0.7c0.3-0.1,0.6-0.1,0.9-0.2c0.3,0,0.7-0.1,1,0.1c0.2,0,0.3,0.1,0.5,0.2c0,0.2,0,0.5,0.1,0.6
	C91.8,45.9,91.4,45.5,90.8,45.7L90.8,45.7z M91.8,47.7c-0.1-0.1-0.3-0.2-0.3-0.3c-0.2-0.2-0.3-0.5-0.3-0.8c0.4-0.3,1-0.3,1.4-0.2
	c0.1,0.1,0.1,0.3,0.3,0.5c0,0.1,0.1,0.1,0.1,0.2c0.2,0.2,0.3,0.4,0.6,0.6C93.1,47.9,92.3,47.9,91.8,47.7L91.8,47.7z M96.2,47.2
	c-0.1,0.1-0.1,0.2-0.1,0.3c-0.2,0.2-0.4,0.3-0.6,0.3c-0.8,0-1.4-0.4-1.9-0.9c-0.3-0.3-0.4-0.5-0.6-0.9c-0.1-0.2-0.2-0.5-0.1-0.7
	c0.3-0.1,0.6-0.1,0.8,0.1c0.1,0,0.1,0.1,0.1,0c0.5,0.2,0.8,0.8,1.3,1.1c0,0.1,0.1,0.1,0.2,0.1c0.3,0.2,0.6,0.3,0.9,0.4
	C96.2,47.1,96.2,47.1,96.2,47.2L96.2,47.2z M105.9,41c-0.2,0.3-0.3,0.7-0.5,1c0,0.3-0.2,0.5-0.1,0.8c0.1,0.7,0,1.3-0.1,2
	c-0.1,0.5-0.2,1-0.3,1.4c-0.2,0.3-0.2,0.7-0.5,1c-0.1,0.4-0.4,0.7-0.7,1c-0.2,0.2-0.4,0.2-0.6,0.4c-0.5,0.2-1.1,0.4-1.8,0.3
	c-0.5,0-1-0.2-1.6-0.2c-0.4-0.2-0.9-0.3-1.3-0.5c-0.3-0.2-0.6-0.4-0.8-0.6c-0.4-0.3-0.7-0.7-1.1-0.9c-0.4-0.3-0.7-0.5-1.1-0.7
	c-0.1,0-0.1-0.1-0.1-0.1c0,0,0.1,0,0.2,0c0.1-0.1,0.3,0.1,0.4,0c0,0.1,0.1,0,0.1,0c0.3,0.1,0.6,0.2,0.8,0.4c0.1,0,0.1,0.1,0.2,0.2
	c0.1,0.2,0.3,0.3,0.5,0.4c0.2,0.2,0.4,0.3,0.7,0.5c0.2,0.2,0.5,0.3,0.8,0.5c0.2,0,0.3,0.2,0.5,0.2c0.7,0.3,1.5,0.5,2.4,0.5
	c0.2,0,0.5,0,0.7-0.1c0.2-0.2,0.5-0.3,0.5-0.6c-0.2-0.2-0.4,0.1-0.6,0c-0.6,0.1-1.2,0-1.7-0.1c-0.2,0-0.4-0.1-0.7-0.2
	c-0.2-0.1-0.4-0.2-0.7-0.3c-0.4-0.2-0.7-0.4-1.1-0.7c-0.3-0.2-0.5-0.3-0.7-0.5c-0.2-0.2-0.4-0.4-0.7-0.5c-0.4-0.2-1-0.4-1.5-0.4
	c-0.3,0-0.5,0-0.7,0.1c-0.1,0-0.2-0.1-0.3-0.2c0,0,0,0,0-0.1c0.2-0.1,0.5-0.2,0.7-0.2c0.2-0.1,0.5-0.1,0.7-0.2
	c0.6-0.1,1.1,0.1,1.6,0.3c0.6,0.2,1.2,0.5,1.7,0.8c0.9,0.4,1.7,1,2.7,1.2c0,0,0,0,0,0c0.1,0,0.1,0,0.2,0c0.1,0,0.2,0.1,0.3,0
	c0.1,0,0.2,0,0.3-0.1c0.2,0,0.4,0,0.5-0.2c0.1-0.3,0.3-0.5,0.4-0.8c0.1-0.1,0-0.3,0.2-0.4c0.2-0.7,0.2-1.4,0.3-2.2
	c0-0.1,0-0.3,0-0.4c0-0.2,0-0.3,0-0.5c0.1-0.1,0.1-0.3,0.1-0.4c0.1-0.5,0.3-0.9,0.5-1.3c0.1-0.3,0.2-0.7,0.3-1c0-0.1,0-0.1,0.1-0.2
	c0.1-0.2,0.2-0.4,0.4-0.4c0.3-0.2,0.5-0.4,0.7-0.6c0,0.1,0,0.2,0,0.2C106.7,39.6,106.4,40.4,105.9,41L105.9,41z M106.5,37.6
	c-0.1,0.2-0.3,0.4-0.4,0.6c-0.2,0.1-0.3,0.2-0.5,0.4c0-0.1,0-0.1,0-0.2c0-0.2-0.1-0.4-0.2-0.7c-0.2-0.6-0.6-1-1-1.5
	c-0.5-0.5-1-1.1-1.3-1.8c-0.1-0.3-0.2-0.6-0.3-0.9c0.1-0.6,0.3-1.2,0.4-1.9c0-0.3,0.1-0.6,0.1-0.8c0,0,0,0,0,0c0,0,0,0,0-0.1l0,0
	v0.1c0,0.2,0.1,0.4,0.1,0.6c0.1,0.2,0,0.3,0.1,0.5c0,0.2,0.1,0.3,0.1,0.4c0.1,0.4,0.4,0.7,0.7,1c0.2,0.2,0.4,0.4,0.6,0.5
	c0.4,0.4,0.8,0.8,1.2,1.3c0.2,0.3,0.4,0.6,0.5,0.9C107,36.5,106.9,37.2,106.5,37.6L106.5,37.6z M106.5,30.1c0,0.1,0.1,0.3-0.1,0.3
	c-0.5,0-1-0.5-1.4-0.7c-0.3,0.2-0.6,1-0.5,1.3c0,0.3-0.1,0.6-0.1,0.9c0,0,0,0.1,0,0.1c-0.6-0.8,0.1-2.9-0.5-3.7
	c0.4-0.9,0.6-0.6,0.9-1c1.1,0,1.7,0.5,2.2,1.4c-0.2,0.2-0.2,0.5-0.5,0.6C106.3,29.6,106.4,29.9,106.5,30.1L106.5,30.1z M107.2,35.6
	C107.2,35.5,107.2,35.5,107.2,35.6c-0.3-0.6-1.4-1.7-1.9-2.2c0-0.3-0.6-1.1-0.4-1.3C105.8,33,107.5,34,107.2,35.6z M107.2,33.5
	c-0.3-0.7-1.5-1.2-2-2.3c0-0.2-0.1-0.3,0-0.4c0.1-0.2-0.2-0.2-0.1-0.3c0.4,0.1,0.6,0.4,1,0.5c0.3,0.1,0.5,0,0.8,0.1
	c0.3-0.2,0.1-0.6,0.2-0.9c1.3,0.2,1,2,1.2,2.8c0.1,0.4,0.4,0.7,0.5,1C108.3,34.1,107.4,34,107.2,33.5L107.2,33.5z M110.6,29.6
	c-0.1,0.8-0.6,1.4-0.8,2.1c-0.1,0.7-0.8,1.3-0.3,2.1c-0.7-0.1-0.7-2.1-0.8-2.6c-0.1-0.3-0.2-0.6-0.4-0.9c-0.1-0.2-0.6-0.6-0.9-0.7
	c-0.2-0.1-0.4,0-0.5-0.2c0.1-0.3,0.3-0.5,0.4-0.7c0.4-0.9-0.3-1.2,0.8-1.9C109.5,26.5,110.9,28.2,110.6,29.6L110.6,29.6z M108,26.4
	c-0.2,0.2-0.4,0.2-0.6,0.4c-0.1,0.1-0.2,0.3-0.3,0.4c0,0.1,0,0.1-0.1,0.2l-0.1,0.1l-0.1,0.2c-0.1,0-0.3-0.1-0.3-0.2
	c-0.2-0.4-1.6-0.8-2-0.7c-0.3,0.1-0.7,0.6-1,0.7l-0.1,0l0-0.1l0,0.1c-0.1-0.8-0.2-2.9-0.4-3.6c0.1-0.1,0.1-0.1,0.1-0.2
	c0.1,0,0.2,0.2,0.4,0.2c0.8,0.5,2.2,0.3,2.8-0.6c0.1,0,0.3,0.1,0.3,0.2c0.4,0.2,0.5,0.7,0.7,1.1c0,0.2,0.1,0.3,0.1,0.5l0.2,0.1
	c0.3-0.1,0.3-0.4,0.5-0.6c0.1-0.6,0.1-1-0.1-1.6c0.4,0,1.1,0.5,1.1,0.9c0,0.7,0.7,2.6,1.4,2.8c0.1,0.1,0.2,0,0.3,0.2
	c0.2,0.1,0.4,0.1,0.6,0.1c0.2-0.1,0.3,0,0.5-0.1C110.8,28.2,109.4,25.8,108,26.4L108,26.4z M114.6,24.4c-0.4,0.1-0.6-0.6-1-0.7
	c-0.2,0-0.7,0.2-0.8,0.4c-0.1,0.4,0,1.1-0.3,1.4c-0.8,1-2.2,0.7-2.6-0.5c-0.2-0.5-0.3-0.6-0.3-1.1c0.9,0.2,1.1,0.4,2.1-0.2
	c0.8-0.4,2.1-1.9,3-1.4c0.2,0,0.5,0.8,0.6,0.9C115.1,23.8,115.3,24.3,114.6,24.4L114.6,24.4z M119,25c-0.8-0.1-0.5-0.4-1.4-0.3
	l-0.2,0c-1.1,0-2.9-3.5-3.4-4.4c-0.4-0.8-1.5-1.1-1.8-1.4c0.2-0.1,1.1-0.8,1.1-0.9c-1.1-0.6-1.1-1.1-1.9-1.7
	c1.6,0.3,3.3,2.7,4.1,4.1c0.3,0.5,1,1.3,1.2,1.8c0.4,0.3,0.8,0.8,1.2,1.2c0.5,0.3,0.9,0.7,1.4,1.1C119.6,24.6,119.3,25,119,25z
	 M119.7,24.1c-0.1,0-0.9-0.7-1-0.9c-0.1-0.1-0.3-0.1-0.3-0.2c-0.1,0-0.2-0.1-0.3-0.2c-0.1-0.2-0.3-0.2-0.4-0.4
	c-0.6-0.4-0.8-1.1-1.3-1.5c0-0.1-0.7-1.1-0.7-1.2c0-0.2-0.3-0.3-0.3-0.5c-0.2-0.2-0.2-0.6-0.5-0.7c-0.9-1.3-1.8-2.2-3.4-2.7
	c-0.4-0.1-0.8-0.2-1.2-0.4c-0.9-0.3-1.6-0.4-2.5-0.4c-1.4,0-3-0.5-4.1-0.4c-0.8,0.1-2.8,0.8-3.1,0.8c-0.2,0.1-0.4-0.1-0.6-0.2
	c-1-0.4-5,0.3-5.2-0.8c0.2,0.1,0.4,0.1,0.7,0.1c1.3,0,2.6-1.1,4-1.4c1.2-0.2,1.8,0.9,3.6-0.2c4.1,3.8,8.4-0.3,14.5,6.1
	c1.3,1.4,2,2.8,2.2,4.7L119.7,24.1L119.7,24.1z"/>
</svg>
