<svg xmlns="http://www.w3.org/2000/svg" viewBox="0 0 200 100"><defs><style>.cls-1{fill-rule:evenodd;}</style></defs><g id="Bimba"><path class="cls-1" d="M29.42,53.57c0,.67-.34,1.68-.34,2.35-.33.33-.67,1-1.34,1.34a2.89,2.89,0,0,1-2,1,10.2,10.2,0,0,1-3.35.34H15V40.83h7.71c1,0,2,.33,2.68.33l2,1c.67.34.67.67,1.34,1.34v2.35a5,5,0,0,1-.67,2.35,7.49,7.49,0,0,1-1.68,1h0a4.08,4.08,0,0,1,3,4.36m-5.37-7c0-.67-.33-1-.33-1.34-.34,0-.67-.34-1.34-.34H19.69v3h2.69c.67,0,1-.34,1.34-.34s.33-.67.33-1m.34,6.71c0-.68-.34-1-.34-1.35-.33-.33-.67-.33-1.67-.33H19.69v3.35h3c.67,0,1-.33,1.34-.33.34-.34.34-.67.34-1.34m7.38-12.41h5V58.6h-5Zm13.41,0,3.69,9.05.67,1.68h0l.67-1.68,3.69-9.05h5.36V58.6H54.57V49.21h0l-.67,1.68L51.21,58.6H47.86l-3-7.71-.67-1.68h0v9.73H39.81V40.83ZM76,53.57c0,.67-.34,1.68-.34,2.35a3.29,3.29,0,0,1-1.34,1.67c-.34,0-1,.67-2,.67a7.36,7.36,0,0,1-3,.34H61.61V40.83h7.71c1,0,2,.33,2.68.33a11,11,0,0,1,2,1,2.67,2.67,0,0,1,1.35,1.34,4.31,4.31,0,0,1,.33,2A4.79,4.79,0,0,1,75,47.87a3.35,3.35,0,0,1-1.68,1.34h0c1.68.67,2.69,2,2.69,4.36m-5.37-7c0-.67-.33-1-.33-1.34-.34,0-.68-.34-1.35-.34H66.3v3H69c.67,0,1-.34,1.35-.34a1.23,1.23,0,0,0,.33-1M71,53.24c0-.68-.34-1-.34-1.35-.33-.33-.67-.33-1.34-.33H66.64v3.35h3c.68,0,1-.33,1.35-.33V53.24m17.1,2.34H82.4l-.67,3H76.36l6-17.77h6l6,17.77h-5.7Zm-3.36-8.72-1.34,4.7h3.69l-1.34-5-.34-1.68h0Zm19.79-6,2.34,6,.67,1.68h0l.68-1.68,2.34-6h5.37l-6,12.41v5.7h-5.36v-5.7l-6-12.41Zm30.84,13.75v4.36H123.64V40.83h5V54.58Zm17.11-4.7c0,1.68-.34,3-.34,4.36-.34,1.34-.67,2.35-1.34,2.68a7.41,7.41,0,0,1-2.68,1.68,12,12,0,0,1-3.69.67c-2.68,0-5-.67-6-2.35-1.34-1.67-2-3.68-2-7,0-1.67.34-3,.34-4a6.29,6.29,0,0,1,1.34-3,7.33,7.33,0,0,1,2.68-1.68,10.5,10.5,0,0,1,7.38,0,12.19,12.19,0,0,1,2.68,1.68,4.15,4.15,0,0,1,1.34,2.68c0,1.34.34,2.69.34,4.36m-5.37,0a5.09,5.09,0,0,0-.33-2.35,3.43,3.43,0,0,0-.34-1.34c-.34-.33-.67-.67-1-.67-.33-.67-.67-.67-1.34-.67a2,2,0,0,0-1.34.34c-.33.33-.67.33-.67.67-.33.33-.33.67-.33,1.67,0,.68-.34,1.35-.34,2.35a4.91,4.91,0,0,0,.34,2.35,15.07,15.07,0,0,0,.33,1.68c.34.33.67.67,1,.67s.67.33,1,.33c.67,0,1,0,1.34-.33s.67-.34.67-.67a2.56,2.56,0,0,0,.68-1.68,5,5,0,0,0,.33-2.35m18.78,4.7v4.36H154.15V40.83h5V54.58Zm12.74,1h-5.7l-.67,3h-5.37l6-17.77h6l6,17.77h-5.7Zm-3-8.72-1.34,4.7H178l-1.34-5-.34-1.68h0Z"/></g></svg>