<?xml version="1.0" encoding="utf-8"?>
<!-- Generator: Adobe Illustrator 25.1.0, SVG Export Plug-In . SVG Version: 6.00 Build 0)  -->
<svg version="1.1" id="Layer_1" xmlns="http://www.w3.org/2000/svg" xmlns:xlink="http://www.w3.org/1999/xlink" x="0px" y="0px"
	 viewBox="0 0 3526.5 711.6" style="enable-background:new 0 0 3526.5 711.6;" xml:space="preserve">
<g>
	<path d="M218.9,12.1c4.4,0.5,8.8,1.3,13.3,1.5c40,2.1,79.5,7.4,118.3,17.6c38.1,10.1,74.3,24.6,107.4,45.9
		c49.9,32,86.8,74.9,110.1,128.8c14.1,32.5,22.2,66.5,26,101.6c2.3,21.3,3.6,42.6,2.6,63.9c-3.8,84-33.2,157.4-95.4,216.6
		c-30.5,29.1-66.1,50.5-105.4,66.2c-42.9,17.2-87.6,27.2-133.6,30.9c-23.1,1.9-46.4,3-69.6,3.1c-61,0.4-121.9,0.1-182.9,0.1
		c-3.2,0-6.5-0.3-9.7-0.4c0-222.3,0-444.7,0-667c7.9-0.9,15.8-2.3,23.7-2.7c34.9-1.7,69.8-3.2,104.6-4.8c7.2-0.3,14.4-0.9,21.5-1.4
		C172.9,12.1,195.9,12.1,218.9,12.1z M166.4,148.9c0,136.5,0,272.1,0,408.2c4.3,0.2,7.7,0.6,11.1,0.5c16.2-0.1,32.5-0.6,48.7-0.5
		c19.6,0.1,38.9-2.4,57.7-7.6c65.2-18.2,109.4-57.9,129.4-122.2c6.5-20.7,9.1-42.1,9.8-63.8c1-31.2-2.3-61.7-12.4-91.3
		c-25.3-74.3-88.7-117.2-162.7-124.7c-25-2.5-49.9-0.8-74.8,0.5C171.1,148,168.9,148.5,166.4,148.9z"/>
	<path d="M1688.3,698.2c-9.4-0.9-18.8-1.7-28.2-2.8c-41.3-4.8-79.8-17.6-114.4-40.6c-49.2-32.9-80.7-78.3-95.4-134.6
		c-16.3-62.4-12.6-124.1,11.8-184c21.3-52.5,57.2-92.8,108.6-119c26.1-13.3,54.1-21.5,83.3-25.5c33.6-4.7,67.2-5.1,100.8-0.1
		c49.2,7.3,92.9,26.2,129,60.5c24.8,23.6,42.8,51.6,55.3,83.1c20.5,51.4,24.2,104.3,15.1,158.4c-5.4,32.6-16.3,63.2-34,91.3
		c-26.1,41.3-62.5,70.9-107.7,90.2c-30.8,13.1-63,20.3-96.5,22.1c-2.7,0.2-5.4,0.7-8.1,1.1C1701.3,698.2,1694.8,698.2,1688.3,698.2z
		 M1610.2,442.4c-0.1,18.2,1.7,36.2,6,53.9c5.4,21.7,14.1,41.8,30.2,58.2c28.8,29.3,77.7,29.9,106.1-0.9
		c12.5-13.6,20.7-29.4,25.7-46.8c11.6-40.2,11.9-80.8,1.9-121.3c-4.5-18.3-12-35.2-24-50.2c-29-36.2-83.5-31.7-109-5.5
		c-10,10.3-17.6,21.9-23,34.9C1613.9,389.6,1610.4,415.7,1610.2,442.4z"/>
	<path d="M3297.2,698.2c-9.9-0.9-19.8-1.7-29.7-2.8c-46.9-5.2-90.8-18.6-129.9-45.2c-45.2-30.7-74.3-72.6-89.1-124.3
		c-8.3-28.8-11.4-58.3-10.3-88.1c1.8-48.5,12.7-94.7,37.7-137c34.4-58.2,84.9-94.9,152.2-108.2c48.6-9.6,96.9-7.5,144,8.7
		c47.3,16.3,82.6,46.7,106.7,89.7c16.7,29.9,25.7,62,30,95.7c3.4,26.4,3.9,52.8,1.2,79.3c-0.9,9.5-2.7,18.9-4.1,29
		c-102.4,0-204.3,0-307.4,0c0.9,4.1,1.4,7.4,2.3,10.5c7,24.2,23.1,40.7,45.5,51.9c17.8,8.9,36.9,13.4,56.7,15.6
		c49,5.3,96.6-1.2,143.2-16.4c2.6-0.8,5.1-1.6,8.5-2.6c8.2,37.3,16.4,74.1,24.6,111.3c-2.1,1-3.8,1.9-5.6,2.6
		c-34,13.5-68.9,23.1-105.5,26.7c-11.4,1.1-22.9,1.7-34.3,2.5c-2.7,0.2-5.4,0.7-8.1,1C3316.2,698.2,3306.7,698.2,3297.2,698.2z
		 M3359.4,385.6c-0.8-6.5-1.1-12.6-2.4-18.5c-3.9-18.7-12-35.2-26.7-48.2c-26.2-23.2-68.9-22.3-95.9-5.6
		c-25.2,15.5-36.9,39-39.3,67.5c-0.1,1.6,0.3,3.2,0.5,4.9C3250.3,385.6,3304.4,385.6,3359.4,385.6z"/>
	<path d="M905.6,698.2c-9.4-0.9-18.8-1.7-28.2-2.8c-49.5-5.5-95.5-20.3-135.9-49.8c-45.9-33.5-74-78.6-85.9-133.1
		c-13.2-61-8.7-121.1,14.7-179.2c20.6-50.9,54.2-91.2,103.5-117.9c25.4-13.8,52.7-22,81.5-25.7c34.5-4.5,68.8-3.3,102.7,4.5
		c63.1,14.5,108.8,50.5,137,107.8c14.1,28.6,21.5,58.9,25,90.4c2.5,22,2.7,44.1,1.2,66.1c-0.7,11-2.9,21.9-4.5,32.8
		c-0.2,1.2-0.9,2.2-1.6,3.8c-101.6,0-203.2,0-305.5,0c0.3,8,2.9,14.8,5.9,21.5c8.8,19.3,23.8,32.4,42.8,41.5
		c24,11.5,49.8,15.5,76.2,16.5c42.2,1.6,83.1-5.2,123-18.2c1.9-0.6,3.8-1.2,5.7-1.8c0.4-0.1,0.9,0.1,2.2,0.2
		c8.1,36.5,16.2,73.3,24.4,110.5c-1.8,0.8-3.2,1.6-4.8,2.2c-27.2,10.7-54.9,19.9-83.9,23.9c-18.5,2.6-37.2,3.8-55.8,5.7
		c-2.7,0.3-5.4,0.7-8.1,1C926.6,698.2,916.1,698.2,905.6,698.2z M805.2,385.6c55.7,0,109.7,0,164.4,0c0-2.5,0.2-4.7,0-6.8
		c-1.1-10.8-3.5-21.3-8-31.2c-11.9-26.5-31.7-42.9-61.7-45.8c-47.3-4.6-82.3,23.1-91.6,63.6C806.8,371.7,806.3,378.3,805.2,385.6z"
		/>
	<path d="M2483,698.2c-9.8-1.5-19.7-2.6-29.5-4.5c-42.6-8.2-76.5-28.9-98.3-66.8c-11.1-19.3-17.2-40.1-20.6-61.9
		c-2.5-15.5-3.1-31.2-3.1-46.9c0.1-63.1,0-126.1,0-189.2c0-2.9,0-5.8,0-9.8c-21.7-0.1-42.7-0.2-64-0.3c0-40.6,0-80.3,0-120.4
		c7-1.5,14-0.5,20.9-0.7c7-0.2,14,0,21,0c7,0,14,0,22,0c0.4-22.4,0.1-44.3,0.1-66.3c0-22.1,0-44.1,0-67c54.4-6,108.4-12,163.3-18.1
		c0,50.7,0,100.6,0,151.3c36.2,0,71.6,0,107.3,0c0,40.7,0,80.5,0,121.2c-35.5,0-70.9,0-106.8,0c-0.2,2.9-0.5,5-0.5,7.2
		c0,56.9,0,113.8,0,170.8c0,10.4,1.6,20.5,5.2,30.3c7.3,19.6,21.9,30.3,42.3,34.2c14.7,2.8,29.4,1.3,44-0.8c9.8-1.4,19.6-3.3,29.4-5
		c2,5.9,3.4,115,1.5,126.9c-10.6,2.3-21.5,5.2-32.5,6.8c-20,3-40.1,5.2-60.1,7.8c-1.9,0.3-3.9,0.8-5.8,1.2
		C2507,698.2,2495,698.2,2483,698.2z"/>
	<path d="M2869.9,698.2c-10.1-1.5-20.3-2.6-30.3-4.5c-33.6-6.5-62.7-21-84.8-47.5c-15.3-18.4-24.6-39.7-30.2-62.6
		c-4.5-18.2-6.6-36.7-6.7-55.4c-0.1-66.2-0.1-132.5-0.1-198.7c0-3.1,0-6.3,0-10.4c-21.7,0-42.5,0-63.7,0c0-40.7,0-80.4,0-121
		c6.9-0.7,13.8-0.3,20.7-0.3c7-0.1,14,0,21,0c7,0,14,0,22,0c0-9.2,0.1-17.9,0.1-26.7c0-8.8,0-17.7,0-26.5c0-8.8,0-17.7,0-26.5
		c0-8.8,0-17.7,0-26.5c0-8.8,0-17.6,0-27.1c54.4-6,108.1-12,163-18.1c0.4,8.8,0.1,17.1,0.2,25.3c0,8.3,0,16.7,0,25s0,16.7,0,25
		s0,16.7,0,25s0,16.7,0,25c0,8.3,0,16.6,0,25.8c36,0,71.4,0,107.1,0c0,40.8,0,80.7,0,121.5c-35.5,0-70.9,0-106.7,0
		c-0.2,3.6-0.4,6.2-0.4,8.8c0,54.2-0.1,108.5,0,162.7c0,12.5,0.8,25,5.4,36.9c7.5,19.5,22.2,30.1,42.7,33.9
		c14.5,2.6,28.9,1.3,43.2-0.8c10.1-1.5,20.1-3.4,31-5.2c0.5,42.2,0.9,84,1.4,126.7c-8.8,2-17.2,4.1-25.7,5.8
		c-22.5,4.5-45.2,8-68.2,9.3c-2.2,0.1-4.4,0.7-6.6,1.1C2892.8,698.2,2881.3,698.2,2869.9,698.2z"/>
	<path d="M1198.8,23.9c55.3,0,110.1,0,165.5,0c0,221.2,0,442.2,0,663.5c-55.1,0-110,0-164.9,0C1197.8,682.3,1197.1,38.5,1198.8,23.9
		z"/>
	<path d="M2033.3,687.2c0-163.1,0-325.9,0-489c55.3,0,110.1,0,165,0c1.7,5.6,2.5,468.7,0.9,488.3
		C2194,688.2,2049.4,688.9,2033.3,687.2z"/>
	<path d="M2198.8,150.5c-55.2,0-110.1,0-165.5,0c0-42.1,0-83.9,0-126.2c55.1,0,110,0,164.9,0C2199.8,29.4,2200.5,135.9,2198.8,150.5
		z"/>
</g>
</svg>
