<svg xmlns="http://www.w3.org/2000/svg" viewBox="0 0 200 100"><g id="Facebook"><path d="M108.48,44.32a7.09,7.09,0,0,0-6.62,2.75V33.28l-6.75.84V66h6.75V64.11a13,13,0,0,0,2.84,1.82c4,1.4,9.13.28,11-5a18,18,0,0,0,.28-10.29A8,8,0,0,0,108.48,44.32Zm1,13.79a3.42,3.42,0,0,1-4,3,5.28,5.28,0,0,1-1.35-.28,4.68,4.68,0,0,1-2.24-3.44h0c-.09-1.49-.23-4.61.51-6.1a3.55,3.55,0,0,1,3.12-1.82c2-.05,3.59.93,3.87,3A17.48,17.48,0,0,1,109.45,58.11Z"/><path d="M132.42,44.69a13.6,13.6,0,0,0-7.08,0,8.52,8.52,0,0,0-6.62,6.71,21.16,21.16,0,0,0-.37,6,9.11,9.11,0,0,0,7.41,8.76l.18,0h0c.19,0,.33,0,.51.1h.19c.23,0,.46,0,.74.09a14.84,14.84,0,0,0,2.84.05h.14a9.37,9.37,0,0,0,8.9-7.41,15.51,15.51,0,0,0,0-7.17A9.11,9.11,0,0,0,132.42,44.69Zm.32,13.09a1.27,1.27,0,0,1-.09.42,3.56,3.56,0,0,1-3.82,3,3.61,3.61,0,0,1-3.73-3.4,29,29,0,0,1,0-4.56,3.87,3.87,0,0,1,7.59-.84A23.66,23.66,0,0,1,132.74,57.78Z"/><path d="M30.88,44.6H26V41.39c.37-3,5.35-2.47,5.35-2.47V33.7h0c-.18-.05-10-2.37-11.92,5.08h0v0a37.23,37.23,0,0,0-.28,5.78H15v5.73h4.42V65.88H25.9V50.33h4.94l.55-5.73Z"/><path d="M46.3,47.35a1.06,1.06,0,0,0-.23-.24h0l0,0a.82.82,0,0,1-.14-.19c-1.54-1.53-2.1-2-3.31-2.28a8.27,8.27,0,0,0-10.48,5.68,18.5,18.5,0,0,0-.32,8.62c1.11,6.24,5.73,8.29,10.66,7.26a6.24,6.24,0,0,0,3.68-2.56.89.89,0,0,0,.19-.32V66h6.33V44.6H46.3v2.75Zm-.56,10.76A3.44,3.44,0,0,1,42,61.18a3.58,3.58,0,0,1-3.63-3,18.28,18.28,0,0,1,.14-6.05,3.42,3.42,0,0,1,3.68-2.61,3.34,3.34,0,0,1,3.49,3.07A23.53,23.53,0,0,1,45.74,58.11Z"/><path d="M71.92,64.49c-.28-1.07-.61-2.14-.94-3.17l-.32-1.12S62.74,64,61.53,56.8a15.81,15.81,0,0,1,.09-3.58,4,4,0,0,1,3.82-3.64,8.83,8.83,0,0,1,2.19.1c1,.18,2,.46,3,.74.37-1.16.74-2.28,1.12-3.4a3.63,3.63,0,0,1,.14-.46h0l.18-.7a.74.74,0,0,0-.28-.28h0a4.73,4.73,0,0,0-1-.47,2.29,2.29,0,0,0-.56-.18,1.36,1.36,0,0,1-.27-.1h0a16.54,16.54,0,0,0-6.39-.42c-4.56.47-7.68,3.17-8.52,7.64a17.42,17.42,0,0,0,.09,7.08,8.21,8.21,0,0,0,6.25,6.75,15.57,15.57,0,0,0,6.89.33,18.62,18.62,0,0,0,3.35-1l.37-.14-.13-.56Z"/><path d="M92.73,56.1a34,34,0,0,0-.23-4.42,7.89,7.89,0,0,0-6.94-7.17,18.67,18.67,0,0,0-4.61-.1c-4.19.42-7.36,3-8,6.9a24.89,24.89,0,0,0-.14,7.26c.46,3.59,2.23,5.87,5.26,6.94h0c1.39.42,8.1,2.19,14.06-.79L92,63.84h0c-.28-1.17-.61-2.33-.93-3.5l0-.09a2.81,2.81,0,0,1-.33.09h0a5.06,5.06,0,0,0-.79.24l-.14,0a31.71,31.71,0,0,1-3.54.75,17.19,17.19,0,0,1-3.44,0c-1.91-.33-3.36-1.31-3.26-3.73H92.78V57.5Zm-6.1-2.88H79.32c.05-1.45.23-2.8,1.49-3.64a4.09,4.09,0,0,1,4.29-.14C86.59,50.24,86.68,51.68,86.63,53.22Z"/><polygon points="185 44.83 177.83 44.83 171.59 54.57 171.59 34.26 171.59 34.12 171.59 33.28 164.83 34.12 164.83 66.03 171.59 66.03 171.59 56.24 177.83 66.03 185 66.03 178.25 55.41 185 44.83"/><path d="M155.52,44.69a13.6,13.6,0,0,0-7.08,0,8.54,8.54,0,0,0-6.62,6.71,21.54,21.54,0,0,0-.37,6,9.11,9.11,0,0,0,7.41,8.76l.18,0h.05c.19,0,.33,0,.51.1h.19c.23,0,.46,0,.74.09a15,15,0,0,0,2.85.05h.14A9.35,9.35,0,0,0,162.41,59a15.51,15.51,0,0,0,0-7.17A9.17,9.17,0,0,0,155.52,44.69Zm.28,13.09a1.29,1.29,0,0,1-.1.42,3.56,3.56,0,0,1-3.82,3,3.6,3.6,0,0,1-3.72-3.4,30.25,30.25,0,0,1,0-4.56,3.64,3.64,0,0,1,4-3.68,3.6,3.6,0,0,1,3.63,2.84A19.42,19.42,0,0,1,155.8,57.78Z"/></g></svg>