<svg xmlns="http://www.w3.org/2000/svg" viewBox="0 0 200 100"><g id="Guerlain"><path d="M35.08,45.28l2.75-1.47s-3.74-5.5-12-4.76a11.82,11.82,0,0,0-10.37,7.59s-2.66,8.13,5,12.52c0,0,7.84,4.2,14.93-.9a10.93,10.93,0,0,0,4.08-8.81H31.14l.06,2.74h4.67s-1.5,5.81-8.61,5.75-8.7-5.24-8.7-5.24S16,45.17,23.83,42.39c0,0,6.46-2.27,11.25,2.89"/><path d="M53.52,60.58C64.34,60.69,64,53.92,64,53.92V40.72H61.23V52.93s.51,5.27-7.71,5c-8.24.23-7.71-5-7.71-5V40.72H43.07v13.2s-.37,6.77,10.45,6.66"/><polygon points="68.34 41 85.17 41 85.17 43.55 71.14 43.55 71.14 48.85 82.16 48.85 82.16 51.48 71.14 51.48 71.14 57.55 85.17 57.55 85.17 60.21 68.34 60.21 68.34 41"/><path d="M104,52.53a5.51,5.51,0,0,0,4.56-5.66c0-6.09-5.3-6.07-5.3-6.07l-14.11,0,0,19.41h2.55l0-7.51h9.12l4.73,7.51h3ZM102.28,50H91.71V43.41l10.82,0a3,3,0,0,1,3.32,3.32c0,3.65-3.57,3.28-3.57,3.28"/><polygon points="112.25 40.8 115.03 40.8 115.03 57.52 129.36 57.52 129.36 60.21 112.25 60.21 112.25 40.8"/><path d="M144.94,40.8h-3.57l-9.23,19.41H135l2-4.48,12.18,0,2,4.45h2.92ZM138.4,53l4.73-9.86L147.86,53Z"/><rect x="157.21" y="40.8" width="2.61" height="19.41"/><polygon points="164.29 40.8 167.94 40.8 182.17 57.09 182.17 40.8 185 40.8 185 60.21 181.4 60.21 167.09 43.86 167.09 60.21 164.29 60.21 164.29 40.8"/></g></svg>