<svg xmlns="http://www.w3.org/2000/svg" viewBox="0 0 200 100"><g id="Ikea"><path d="M27.47,74.88H172.53v-50H27.47ZM100,26.18c39.48,0,71.49,10.61,71.49,23.7s-32,23.7-71.49,23.7S28.51,63,28.51,49.88,60.52,26.18,100,26.18Z"/><path d="M48.08,59.39c-.18.2,0,.34.3.34H60.55c.34,0,.48-.14.3-.34a6.13,6.13,0,0,1-.39-2.4V43.53a6.13,6.13,0,0,1,.39-2.4c.18-.2,0-.34-.3-.34H48.38c-.34,0-.48.14-.3.34a5.94,5.94,0,0,1,.39,2.4V57A5.94,5.94,0,0,1,48.08,59.39Z"/><path d="M66.87,59.39c-.18.2,0,.34.3.34H79c.34,0,.48-.14.3-.34a5.94,5.94,0,0,1-.39-2.4V52.45l3.8,5.81c.18.18,0,1.15,0,1.26s0,.21.09.21H97.42c.16,0,.09-.12,0-.21l-6.8-10.75a.63.63,0,0,1,0-.86l5-6.91c.07-.09.14-.21,0-.21h-12c-.09,0-.09.09-.09.21s.09.36-.09.54l-4.43,6v-4a5.94,5.94,0,0,1,.39-2.4c.18-.2,0-.34-.3-.34H67.17c-.34,0-.48.14-.3.34a6.13,6.13,0,0,1,.39,2.4V57A6.13,6.13,0,0,1,66.87,59.39Z"/><path d="M101.29,59.22c-.18.21-.05.34.29.34h21.17V54c0-.34-.14-.47-.34-.29a6,6,0,0,1-2.37.38h-6.72a.32.32,0,0,1-.34-.34v-1a.32.32,0,0,1,.34-.34H118a11.45,11.45,0,0,1,2.37.09c.15.15.33,0,.33-.23V47.68c0-.28-.18-.37-.33-.22a12.2,12.2,0,0,1-2.37.09h-4.68a.32.32,0,0,1-.34-.34v-.92a.32.32,0,0,1,.34-.34H120a6,6,0,0,1,2.37.38c.2.18.34,0,.34-.29V40.79H101.58c-.34,0-.47.17-.29.37a6,6,0,0,1,.38,2.37V56.85A6,6,0,0,1,101.29,59.22Z"/><path d="M125.77,59.56h10.12c.24,0,.29-.11.21-.28a1.31,1.31,0,0,1,0-.82l.54-1.8a.75.75,0,0,1,.86-.58H142a.73.73,0,0,1,.85.58l.55,1.8a1.23,1.23,0,0,1,0,.82c-.07.17,0,.28.22.28h12.65s-7-16.71-7.13-17a1.73,1.73,0,0,1,0-1.18c.18-.43,0-.53-.27-.53H132.4c-.3,0-.46.1-.28.53a1.68,1.68,0,0,1,0,1.18C132,42.85,125.77,59.56,125.77,59.56Zm12.45-7.46,1.1-2.6c0-.07.07-.15.16-.15s.12.08.16.15l1.1,2.6c0,.11,0,.28-.13.29h-2.26C138.19,52.38,138.18,52.21,138.22,52.1Z"/></g></svg>