<?xml version="1.0" encoding="utf-8"?>
<!-- Generator: Adobe Illustrator 25.1.0, SVG Export Plug-In . SVG Version: 6.00 Build 0)  -->
<svg version="1.1" id="Layer_1" xmlns="http://www.w3.org/2000/svg" xmlns:xlink="http://www.w3.org/1999/xlink" x="0px" y="0px"
	 viewBox="0 0 187.1 40" style="enable-background:new 0 0 187.1 40;" xml:space="preserve">
<style type="text/css">
	.st0{fill-rule:evenodd;clip-rule:evenodd;}
</style>
<g>
	<path class="st0" d="M55.7,35.9v-2h3.1c0.8,0,1.5,0,1.5,1c0,0.9-0.8,1-1.5,1H55.7L55.7,35.9z M54.3,40h1.4V37h2.7
		c1.3,0,3.3,0,3.3-2.2c0-2.3-2-2.3-3.3-2.3h-4.1V40L54.3,40z"/>
	<path class="st0" d="M66.5,37l1.5-3.3l1.5,3.3H66.5L66.5,37z M63.5,40h1.5l0.8-1.7H70l0.8,1.7h1.5l-3.6-7.4h-1.7L63.5,40L63.5,40z"
		/>
	<path class="st0" d="M77.5,35.9v-2.2h2.8c1.2,0,1.8,0.3,1.8,1c0,0.9-0.6,1.2-1.8,1.2H77.5L77.5,35.9z M76.1,40h1.4V37h2.3L82,40
		h1.8l-2.3-3.1c1.2,0,2-0.8,2-2.2c0-1.8-1.3-2.2-2.9-2.2h-4.5V40L76.1,40z"/>
	<polygon class="st0" points="88.1,32.5 89.5,32.5 89.5,40 88.1,40 88.1,32.5 	"/>
	<path class="st0" d="M99.9,34.8c-0.3-0.8-0.9-1.3-2.7-1.3c-1,0-1.9,0.3-1.9,0.9c0,0.4,0.1,0.6,1.7,0.9l1.8,0.3
		c1.7,0.3,2.6,0.9,2.6,2c0,1.8-1.7,2.4-3.6,2.4c-3.2,0-4-1.5-4.2-2l1.4-0.5c0.3,0.5,0.9,1.3,2.8,1.3c1.2,0,2.2-0.4,2.2-1
		c0-0.4-0.5-0.8-1.7-0.9l-1.8-0.3c-1.7-0.1-2.7-0.9-2.7-2c0-2.2,2.9-2.2,3.5-2.2c3.2,0,3.8,1.4,4,1.9L99.9,34.8L99.9,34.8z"/>
	<path class="st0" d="M134.2,23.9c0.4,3.8,2.3,3.2,2.4,3.6h-7.4c-0.1-0.1,2-0.1,1.7-3.3L129,9.6c-0.1-0.4-0.1-0.8-0.4-0.8
		C128.4,9,122,24.6,122,24.6c-0.1,0.3-0.3,0.4-0.5,0c-0.1-0.3-6-13.2-6-13.2c-0.3-0.6-0.8-1.7-0.9-1.9c-0.1-0.3-0.4-0.3-0.4,0.8
		L112.7,25c-0.4,2.6,2,2.4,2,2.6h-5.4c0-0.1,1.8,0.1,2.2-2.6l1.8-16.3c-0.1-3.2-2.3-3.1-2.3-3.3h5.6v0.3l5.9,12.9
		c0.1,0.1,0.3,0.3,0.3,0.3c0.1,0.4,0.1,0.6,0.4,0.3L129,5.4h5.4c0,0.3-2.2,0.1-2.2,2.8L134.2,23.9L134.2,23.9z"/>
	<path class="st0" d="M11.5,26.8H8.6c-1,0-2.3,0.1-2.3-1V8.6c0-2.7,2.9-2.7,3.1-2.9H0.3C0.1,5.9,3.1,5.9,3.1,8.7v16.5
		c0,2.2-3.1,2.2-3.1,2.3h16l0.9-4.7C16.5,22.8,16.8,26.6,11.5,26.8L11.5,26.8z"/>
	<path class="st0" d="M144.4,16.6V22V25c0,1.7-0.1,1.8,1,1.8h5.9c4.7-0.3,3.8-3.6,4.2-3.7l-0.1,4.5c-2.4,0-16.5,0-16.5,0
		c-0.1-0.1,2.4,0.3,2.4-3.3V8.8c0-3.6-2.3-3.1-2.3-3.3c0,0,14,0,16.4,0l0.1,4.4c-0.3,0,0.6-3.5-4.4-3.7h-5.4
		c-0.9,0.3-1.4-0.4-1.4,1.8v4.7v1c0,0.8,0.1,0.9,1.2,0.9h5.4c2.6,0,2.3-2.4,2.4-2.4v5.8c-0.1,0,0.1-2.7-2.3-2.6h-5.4
		c-1.2,0-1.3,0.4-1.3,1.2V16.6L144.4,16.6z"/>
	<path class="st0" d="M45.7,25.2c0.3,2.7,2.3,2,2.3,2.3h-5.8c0-0.3,2.3,0,2.3-2.4V8.5c0-2.8-2.4-2.8-2.6-3.1h5.9l12,15L59.8,8.2
		c0-2.9-2.3-2.7-2.3-2.8h6c0,0.1-2.3,0.1-2.4,2.8V27c0,0,0.1,1.4-0.8,0.3C59.9,26.8,45.8,9,45.8,9c-0.1-0.3-0.1,0-0.1,0.4V25V25.2
		L45.7,25.2z"/>
	<path class="st0" d="M37.9,24.7L29.8,5.5c-0.6-0.6-0.9,0.1-0.9,0.1c-0.8,1.8-8.2,19.6-8.2,19.6c-1,2.4-2.3,2.2-2.3,2.3h5.3
		c0-0.3-2.8,0.1-1.8-2.3l2.7-6.8c0.4-0.5,0.4-0.6,1-0.6c1.2,0,4.7,0,5.3,0c0.6,0,0.6,0,1,0.6l2.6,6.5c0.8,2.6-1.5,2.4-1.5,2.6h7.4
		C40.5,27.3,39.2,28,37.9,24.7L37.9,24.7z M26.1,16.8c-0.5,0-0.5-0.4-0.3-0.9c0,0,1.9-5,2.2-5.5c0.4-0.8,0.6-0.6,0.9,0l1.9,5.6
		c0.3,0.5,0.5,0.8-0.1,0.8C30.2,16.8,26.4,16.8,26.1,16.8L26.1,16.8z"/>
	<polygon class="st0" points="106.4,4.4 97.4,0 88.6,4.4 97.4,1.7 106.4,4.4 	"/>
	<path class="st0" d="M97.6,5c-7,0-11.5,5.5-11.5,11.4c0,5.9,4.5,11.1,11.4,11.1S109,22.3,109,16.4C109,10.5,104.5,5,97.6,5L97.6,5z
		 M97.4,26.8L97.4,26.8L97.4,26.8L97.4,26.8c-4.4,0-7.2-4.1-7.2-10.2c0-7.2,2.9-10.6,7.2-10.6l0,0c4.2,0,7.2,3.5,7.2,10.6
		C104.6,22.7,101.7,26.6,97.4,26.8L97.4,26.8z"/>
	<path class="st0" d="M76.3,26.6c5.1,0,7.3-3.6,7.8-3.7c0.1,0-2.6,4.6-7.8,4.6c-11.9,0-11.8-10.9-11.8-10.9
		C64.9,9.1,71.1,4.5,77,5.1c1.7,0.3,2.3,0.5,3.5,0.8c0.5,0.3,2,1,2.6,0.8c0.4-0.1,0.8-1,0.9-1v5.9c-0.4,0-1.8-5.6-7.4-5.6
		c-4.6,0-8.2,5.3-8.1,10.5C68.5,25.1,74.5,26.6,76.3,26.6L76.3,26.6z"/>
	<path class="st0" d="M170.3,27.3h0.5c0.8-3.3,1.9-7,4.6-8.5c-0.1-0.3-1.3-1.4-1.5-1.4c-0.6,2.2-1.2,2.9-2,4.9
		C171,24.3,170.4,26.5,170.3,27.3L170.3,27.3z"/>
	<path class="st0" d="M171.2,22.4c-0.8-1.7-2.9-4.4-3.5-4.7v-0.4c0.9,0.3,2.6,1.3,3.2,2.3C171.6,20.7,171.6,21.9,171.2,22.4
		L171.2,22.4z"/>
	<path class="st0" d="M167.9,18.8c0.9,0.8,2.6,3.5,2.7,4.1c0.1,0.5-0.1,0.4-0.5,0.4c-0.3,0-1.3,0-1.8-1.5
		C167.9,20.2,167.9,18.8,167.9,18.8L167.9,18.8z"/>
	<path class="st0" d="M172.6,24.8c1.7-0.5,5.1-0.9,5.6-0.9l0.3-0.3c-0.8-0.4-2.2-0.8-3.5-0.5C173.8,23.3,172.7,24.1,172.6,24.8
		L172.6,24.8z"/>
	<path class="st0" d="M177.5,24.7c-1.3-0.1-4.4,0.5-5,0.8c-0.3,0.1-0.1,0.4,0.1,0.8c0.3,0.3,0.9,1,2.4,0.3
		C176.7,25.7,177.5,24.7,177.5,24.7L177.5,24.7z"/>
	<path class="st0" d="M173.1,17.3L173.1,17.3c-0.1-4-2.4-6.8-4-8.6c1.8-1.4,3.3-3.8,3.7-4.2c0.5-0.5,1.2-0.6,1.8,0
		c1,1,1.4,2.8,1.4,3.3c-0.1,0.4-0.6,1-0.9,1.3c-0.3-0.6-0.6-1.4-0.8-1.7l-0.5,0.5C175.3,10.9,174.9,15.5,173.1,17.3L173.1,17.3z"/>
	<path class="st0" d="M174.3,16.8c0.5,0.4,1.3,1,1.4,1.2c0-3.6,2.2-4.6,3.7-4.9c-0.1-1,0.4-3.1,0.9-4c-0.3-1.2-1.2-4-2.2-5.5
		c-0.1,2.6-1,4.4-2.8,6.3C175.6,11.4,175.8,14.7,174.3,16.8L174.3,16.8z"/>
	<path class="st0" d="M176.7,19.1c-0.8-3.3,0.9-5.3,3.3-5.4c1.9,0,5.4,0.9,6.9,1.9C184.4,17.5,180.3,18.6,176.7,19.1L176.7,19.1z"/>
	<path class="st0" d="M180.7,7.4l1.7-0.5c0.5,0.8,1,1.5,1,2.7c0.1,0.1,0.5,0.5,0.5,0.6c-0.8,0.6-1.4,1.3-1.4,1.3
		c-0.1,1-0.5,1.7-0.5,1.7c1.3,0.1,3.5,0.8,4.2,1.2c0.6-0.4,0.9-0.5,0.9-0.9c0-0.5-1-1.8-2-5c-0.9-3.1-0.3-4.2-0.9-4.6
		c-0.6-0.5-3.7,0.6-4.4,1.4C179.8,5.3,180.3,6.4,180.7,7.4L180.7,7.4z"/>
	<path class="st0" d="M182.7,9.9c0.5,0.4,0.4,0.4,0.1,0.5c-0.3,0.3-0.4,0.3-0.4,0.3s0-0.5-0.1-1C182.5,9.6,182.6,9.6,182.7,9.9
		L182.7,9.9z"/>
	<path class="st0" d="M182.1,8.2C182,7.9,182,7.8,182,7.8c0.3-0.3,0.9,1,0.8,1.3c-0.1,0.1-0.1,0-0.1,0c-0.1-0.1-0.3-0.1-0.4-0.3
		c0,0,0,0,0-0.1C182.2,8.6,182.1,8.2,182.1,8.2L182.1,8.2z"/>
	<path class="st0" d="M180.2,13.1L180.2,13.1c-0.1-1.3,0.3-2.7,0.9-3.8c0-0.1,0-0.3,0-0.3s0,0,0-0.1c-0.1-0.5-0.3-0.8-0.3-0.8
		l0.5-0.1c0,0,0.1,0.3,0.1,0.4c0.1,0.4,0.6,1.9,0.5,2.9c-0.1,0.9-0.3,1.3-0.8,1.8C180.8,13.1,180.4,13.1,180.2,13.1L180.2,13.1z"/>
</g>
</svg>
