<svg xmlns="http://www.w3.org/2000/svg" viewBox="0 0 200 100"><defs><style>.cls-1{fill-rule:evenodd;}</style></defs><g id="Layer_8" data-name="Layer 8"><path class="cls-1" d="M75.89,67.26V65.08h3.39c.88,0,1.64,0,1.64,1.09s-.87,1.09-1.64,1.09Zm-1.53,4.49h1.53V68.47h3c1.42,0,3.6,0,3.6-2.41s-2.18-2.51-3.6-2.51H74.36v8.2Z"/><path class="cls-1" d="M87.7,68.47l1.64-3.61L91,68.47Zm-3.28,3.28h1.64l.88-1.86h4.59l.87,1.86H94l-3.93-8.09H88.25l-3.83,8.09Z"/><path class="cls-1" d="M99.73,67.26v-2.4h3.06c1.31,0,2,.33,2,1.09,0,1-.66,1.31-2,1.31ZM98.2,71.75h1.53V68.47h2.51l2.41,3.28h2l-2.51-3.39A2.14,2.14,0,0,0,106.29,66c0-2-1.43-2.4-3.17-2.4H98.2v8.2Z"/><polygon class="cls-1" points="111.31 63.55 112.85 63.55 112.85 71.75 111.31 71.75 111.31 63.55"/><path class="cls-1" d="M124.22,66.06c-.33-.87-1-1.42-3-1.42-1.09,0-2.07.33-2.07,1,0,.44.11.66,1.86,1l2,.33c1.86.32,2.85,1,2.85,2.18,0,2-1.86,2.63-3.94,2.63-3.5,0-4.37-1.64-4.59-2.19l1.53-.55c.33.55,1,1.43,3.06,1.43,1.31,0,2.4-.44,2.4-1.1,0-.44-.54-.87-1.85-1l-2-.33c-1.86-.11-3-1-3-2.19,0-2.4,3.17-2.4,3.82-2.4,3.5,0,4.16,1.53,4.38,2.08l-1.53.54Z"/><path class="cls-1" d="M161.71,54.15c.44,4.15,2.52,3.49,2.63,3.93h-8.09c-.11-.11,2.18-.11,1.86-3.61l-2.08-16c-.11-.44-.11-.87-.44-.87-.22.22-7.21,17.27-7.21,17.27-.11.33-.33.44-.55,0s-6.56-14.43-6.56-14.43c-.33-.66-.87-1.86-1-2.08s-.44-.33-.44.88l-1.64,16.07c-.44,2.84,2.19,2.62,2.19,2.84h-5.91c0-.11,2,.11,2.41-2.84l2-17.82c-.1-3.5-2.51-3.39-2.51-3.61h6.12v.33l6.45,14.1.33.33c.11.44.11.66.44.33L156,33.92h5.9c0,.33-2.4.11-2.4,3.06l2.18,17.17Z"/><path class="cls-1" d="M27.57,57.32H24.4c-1.09,0-2.51.11-2.51-1.1V37.42c0-3,3.17-3,3.39-3.17h-10c-.22.22,3.06.22,3.06,3.28v18C18.39,58,15,58,15,58.08H32.49l1-5.14c-.44,0-.11,4.16-5.91,4.38Z"/><path class="cls-1" d="M172.86,46.16v9.19c0,1.86-.1,2,1.1,2h6.45c5.14-.33,4.15-3.94,4.59-4l-.11,4.92h-18c-.11-.11,2.63.33,2.63-3.61V37.64c0-3.94-2.52-3.39-2.52-3.61h17.93l.11,4.81c-.33,0,.66-3.83-4.81-4h-5.9c-1,.32-1.53-.44-1.53,2V43c0,.88.1,1,1.31,1H180a2.48,2.48,0,0,0,2.62-2.63V47.7c-.1,0,.11-3-2.51-2.85h-5.9c-1.32,0-1.42.44-1.42,1.31h.1Z"/><path class="cls-1" d="M65,55.57c.33,3,2.52,2.18,2.52,2.51H61.14c0-.33,2.51,0,2.51-2.62V37.31c0-3.06-2.62-3.06-2.84-3.39h6.45l13.12,16.4V37c0-3.17-2.52-2.95-2.52-3.06h6.56A3,3,0,0,0,81.8,37V57.53s.11,1.54-.88.33l-15.85-20c-.11-.33-.11,0-.11.43V55.57Z"/><path class="cls-1" d="M56.43,55,47.58,34c-.66-.66-1,.11-1,.11-.87,2-9,21.43-9,21.43-1.09,2.62-2.51,2.4-2.51,2.51h5.79c0-.33-3.06.11-2-2.51l3-7.44c.44-.54.44-.65,1.1-.65h5.79c.66,0,.66,0,1.09.65l2.85,7.11c.87,2.84-1.64,2.62-1.64,2.84h8.09c.11-.22-1.31.55-2.74-3.06Zm-12.9-8.64c-.54,0-.54-.43-.32-1,0,0,2.07-5.47,2.4-6,.44-.88.66-.66,1,0l2.08,6.12c.33.55.55.87-.11.87Z"/><polygon class="cls-1" points="131.32 32.83 121.48 28.02 111.86 32.83 121.48 29.88 131.32 32.83"/><path class="cls-1" d="M121.7,33.48A12.34,12.34,0,0,0,109.13,46a12.52,12.52,0,0,0,25,0A12.32,12.32,0,0,0,121.7,33.48Zm-.22,23.84h0c-4.81,0-7.87-4.49-7.87-11.16,0-7.87,3.17-11.58,7.87-11.58h0c4.59,0,7.87,3.82,7.87,11.58,0,6.67-3.17,10.94-7.87,11.16Z"/><path class="cls-1" d="M98.41,57.1c5.58,0,8-3.94,8.53-4.05a10.23,10.23,0,0,1-8.53,5c-13,0-12.9-11.92-12.9-11.92C86,38,92.73,32.94,99.18,33.59c1.86.33,2.51.55,3.83.88.54.33,2.18,1.09,2.84.87.44-.11.87-1.09,1-1.09V40.7c-.43,0-2-6.12-8.09-6.12-5,0-9,5.79-8.85,11.48,0,9.4,6.56,11,8.52,11Z"/></g></svg>