<svg xmlns="http://www.w3.org/2000/svg" viewBox="0 0 200 100"><defs><style>.cls-1{fill-rule:evenodd;}</style></defs><g id="Loreal"><polygon class="cls-1" points="37.53 59.51 37.53 63.15 15 63.15 15 38.34 19.09 38.34 19.09 59.51 37.53 59.51"/><polygon class="cls-1" points="34.44 47.34 38.9 38.8 34.63 38.8 31.26 47.34 34.44 47.34"/><path class="cls-1" d="M71.33,42.43a16.23,16.23,0,0,0-6.08-5.54,17.71,17.71,0,0,0-8.27-2,18.22,18.22,0,0,0-8.27,2,16.4,16.4,0,0,0-6.09,5.54,14,14,0,0,0,0,15.27,16.33,16.33,0,0,0,6.09,5.54,17.65,17.65,0,0,0,8.27,2,18.25,18.25,0,0,0,8.27-2,16.29,16.29,0,0,0,6.08-5.54,14.39,14.39,0,0,0,2.28-7.64,14.12,14.12,0,0,0-2.28-7.63ZM67.79,56.15a12.32,12.32,0,0,1-4.54,4.36A13.71,13.71,0,0,1,57,62.15a12.68,12.68,0,0,1-6.27-1.64,11.77,11.77,0,0,1-4.54-16.35,12.24,12.24,0,0,1,4.54-4.36A13.71,13.71,0,0,1,57,38.16a12.68,12.68,0,0,1,6.27,1.64,11.76,11.76,0,0,1,6.18,10.35,10.89,10.89,0,0,1-1.64,6Z"/><path class="cls-1" d="M102,49.06a6.41,6.41,0,0,1-3.18,3.09,5.7,5.7,0,0,1-2.63.73h0L104,63.15H99.5l-7.72-9.91h-10v9.91H77.69V38.34H94.05a10.27,10.27,0,0,1,4.81,1.18,7.33,7.33,0,0,1,3.37,3.82,8.79,8.79,0,0,1-.28,5.72Zm-4.54-.18a4.23,4.23,0,0,0,1.36-3.09A3.75,3.75,0,0,0,94.32,42H81.78v7.63H94.23a4.86,4.86,0,0,0,3.18-.73Z"/><polygon class="cls-1" points="125.4 48.97 125.4 52.34 111.58 52.34 111.58 59.51 130.12 59.51 130.12 63.15 107.59 63.15 107.59 38.34 130.12 38.34 130.12 41.98 111.58 41.98 111.58 48.97 125.4 48.97"/><polygon class="cls-1" points="125.58 34.53 119.49 34.53 117.04 37.62 125.58 34.53"/><path class="cls-1" d="M138.12,56.88l-3.18,6.36h-4.09l12.63-24.81h4.09L160.2,63.24h-4.09l-3.18-6.36Zm7.36-14.54L139.66,53.7h11.63l-5.81-11.36Z"/><polygon class="cls-1" points="184.73 59.51 184.73 63.15 162.19 63.15 162.19 38.34 166.28 38.34 166.28 59.51 184.73 59.51"/><path class="cls-1" d="M183,43.34V42.7h0v-.36a.68.68,0,0,0-.18-.36c-.09-.09-.18-.09-.27-.18a1.83,1.83,0,0,0,.45-.37,1.3,1.3,0,0,0,.18-.63,2.12,2.12,0,0,0-.18-.73,1.41,1.41,0,0,0-1.18-.46H180v4.18h.73V42.25h1a1,1,0,0,1,.45.09c.28.27.19.73.19,1a1.2,1.2,0,0,0,.09.55h.81v-.1h0c-.27-.09-.27-.27-.27-.45Zm-.82-1.82a.55.55,0,0,1-.63.09h-1V40.34h1.27a.46.46,0,0,1,.45.37.82.82,0,0,1-.09.81Z"/><path class="cls-1" d="M184.55,40.07a2.86,2.86,0,0,0-1.28-1.27,4,4,0,0,0-1.72-.46,3.69,3.69,0,0,0-1.73.46,2.84,2.84,0,0,0-1.27,1.27,4.1,4.1,0,0,0-.46,1.73,3.77,3.77,0,0,0,.46,1.72,2.84,2.84,0,0,0,1.27,1.27,4,4,0,0,0,1.73.46,3.65,3.65,0,0,0,1.72-.46,2.86,2.86,0,0,0,1.28-1.27,3.53,3.53,0,0,0,0-3.45Zm-.46,3.27A3.08,3.08,0,0,1,183,44.43a2.89,2.89,0,0,1-1.45.36,3.87,3.87,0,0,1-1.46-.36A3.25,3.25,0,0,1,179,43.34a3,3,0,0,1-.45-1.45,4.34,4.34,0,0,1,.36-1.46A3.16,3.16,0,0,1,180,39.34a2.92,2.92,0,0,1,1.46-.36,3.82,3.82,0,0,1,1.45.36A3.16,3.16,0,0,1,184,40.43a2.92,2.92,0,0,1,.36,1.46,2.78,2.78,0,0,1-.27,1.45Z"/></g></svg>