<svg id="Mac" xmlns="http://www.w3.org/2000/svg" viewBox="0 0 200 100"><path d="M74.86,47.9a5,5,0,0,0,2.29.51,5.44,5.44,0,0,0,2.39-.51c.68-.33,1-.75,1-1.19s-.34-.84-1-1.19A5.05,5.05,0,0,0,77.15,45a4.54,4.54,0,0,0-2.29.51c-.69.33-.93.68-.93,1.19A1.32,1.32,0,0,0,74.86,47.9Zm47.35,0a5.16,5.16,0,0,0,2.38.51,4.58,4.58,0,0,0,2.3-.51c.68-.33.94-.75.94-1.19a1.3,1.3,0,0,0-.94-1.19,6.19,6.19,0,0,0-2.3-.51,5.19,5.19,0,0,0-2.38.51c-.69.33-.95.75-.95,1.19s.35.84.95,1.19Z"/><path d="M183.24,57.17H142.7c-8.51-1.11-9.27-4.76-9.53-6.13v-1.1c.76-4,3.83-6.21,9.44-6.81h40.54a1.7,1.7,0,0,0,0-3.4H142.26c-9.09.93-11.81,5.7-12.58,9.6a.9.9,0,0,0-.09.68l.09,1.53v.17a8.87,8.87,0,0,0,1.7,4l-7.65-4.25L102,39.22a1.83,1.83,0,0,0-2-.17L70.67,56.13V40.85a1.69,1.69,0,0,0-1.7-1.7,1.12,1.12,0,0,0-.51.08,1.6,1.6,0,0,0-.69.18l-26,12.4a1,1,0,0,0-.34.27l-2.8,1.36,3,1.53a1.25,1.25,0,0,0,.75.17A1.5,1.5,0,0,0,43.2,55l24-11.56V58.88a1.85,1.85,0,0,0,.6,1.28,1.8,1.8,0,0,0,2.21.42l10.37-6h.09l5.86-3.48,14.61-8.51,15.39,8.51h-27l-5.94,3.48h39.1l11.23,6.29a1.78,1.78,0,0,0,2.38-.68,1.43,1.43,0,0,0,.18-1,22.12,22.12,0,0,0,6.12,1.44h41a1.7,1.7,0,0,0,0-3.4ZM17.56,38.9a1.71,1.71,0,0,0-2.3.76,2.38,2.38,0,0,0-.17.75,1.1,1.1,0,0,0-.09.53V59a1.7,1.7,0,1,0,3.4,0V43.23l18.53,9.35,3.91-2Z"/></svg>