<svg xmlns="http://www.w3.org/2000/svg" viewBox="0 0 200 100"><g id="Nespresso"><path d="M169.67,39.28h-.17c-2.37,0-10.16.75-10.2,10.5,0,10.16,8.54,10.66,10.25,10.66h.08a11.06,11.06,0,0,0,7.46-2.83c1.87-1.83,2.79-4.5,2.79-7.83C179.83,40,172,39.28,169.67,39.28Zm3,17a4.45,4.45,0,0,1-3,1.08h-.29a4.45,4.45,0,0,1-3-1.08c-1.46-1.29-2.21-3.63-2.21-6.92,0-6.45,3.25-7.41,5.17-7.41h.29c1.92,0,5.12,1,5.17,7.41C174.92,52.69,174.17,55,172.71,56.32Z"/><path d="M46.58,63.61a18.2,18.2,0,0,1-6.25-4.67c-2-2.29-6.83-8.7-6.88-8.75l-2.2-2.91c-2.13-2.92-4.54-6.17-7-8.12V60.4h2.92v-11l0,.09c.79,1,1.62,2.08,2.45,3.16,1.38,1.75,2.75,3.58,3.92,4.92.79.91,2.87,3.12,3.46,3.62A17.36,17.36,0,0,0,53.7,64.52V64.4a12.48,12.48,0,0,1-2.17.21A16.46,16.46,0,0,1,46.58,63.61Z"/><path d="M28.21,40.82c2,2.25,7,8.67,7.08,8.75l2.2,2.92c2.13,2.91,4.55,6.16,6.92,8.12V39.28H41.54v11l-.09-.08c-.79-1-1.62-2.09-2.46-3.17-1.37-1.75-2.75-3.58-3.91-4.92-.79-.91-3-3.12-3.63-3.62a16.85,16.85,0,0,0-11.28-4.12,15.21,15.21,0,0,0-5.17.87v.13a9.12,9.12,0,0,1,2.21-.21,12.83,12.83,0,0,1,4.79,1A16.82,16.82,0,0,1,28.21,40.82Z"/><path d="M140.84,50.11c-2.37-2-5-2.54-7-3.91-1.38-1.13-1.34-2.63-.59-3.38,1.71-1.87,5.13-1.12,6-.92a11.57,11.57,0,0,1,2.54,1V40.53c-4.16-1.25-10.83-2.42-13.41,1.83A5.11,5.11,0,0,0,130,49.15c2.79,2.21,7.62,3.25,8.17,5.09a2.48,2.48,0,0,1-.71,2.62c-2.46,2.33-6.71.92-9.25-.25v2.54a15.78,15.78,0,0,0,9.41.92c2.13-.54,4.55-2.42,4.88-4.79S142.39,51.4,140.84,50.11Z"/><path d="M156.26,50.11c-2.38-2-5-2.54-7-3.91-1.38-1.13-1.33-2.63-.58-3.38,1.7-1.87,5.12-1.12,6-.92a11.46,11.46,0,0,1,2.55,1V40.53c-4.17-1.25-10.84-2.42-13.42,1.83a5.11,5.11,0,0,0,1.58,6.79c2.8,2.21,7.63,3.25,8.17,5.09a2.46,2.46,0,0,1-.71,2.62c-2.5,2.33-6.71.92-9.25-.25v2.54a15.8,15.8,0,0,0,9.42.92c2.12-.54,4.54-2.42,4.91-4.79S157.76,51.4,156.26,50.11Z"/><polygon points="113.23 59.86 126.6 59.86 126.6 57.44 117.85 57.44 117.85 50.78 124.85 50.78 124.85 48.45 117.85 48.45 117.85 42.28 126.6 42.28 126.6 39.86 113.23 39.86 113.23 59.86"/><path d="M74.82,50.11c-2.38-2-5-2.54-7-3.91-1.37-1.13-1.33-2.63-.58-3.38,1.71-1.87,5.12-1.12,6-.92a11.57,11.57,0,0,1,2.54,1V40.53C71.61,39.28,65,38.11,62.36,42.36A5.13,5.13,0,0,0,64,49.15c2.79,2.21,7.62,3.25,8.16,5.09a2.44,2.44,0,0,1-.71,2.62c-2.45,2.33-6.7.92-9.24-.25v2.54a15.78,15.78,0,0,0,9.41.92c2.12-.54,4.54-2.42,4.91-4.79S76.32,51.4,74.82,50.11Z"/><polygon points="47.24 59.86 60.66 59.86 60.66 57.44 51.87 57.44 51.87 50.78 58.86 50.78 58.86 48.45 51.87 48.45 51.87 42.28 60.66 42.28 60.66 39.86 47.24 39.86 47.24 59.86"/><path d="M87.32,39.66H78.53V60.11h4.66V58.86l-.08-6.25s7,.46,9.12-2.37c1.54-1.8,1.67-4.59,1-6.84C92.36,40.86,89.9,39.7,87.32,39.66Zm1,9.2c-1.25,1.38-3.38,1.17-5.21,1V42.28s3.75-.83,5.33,1.25A5.3,5.3,0,0,1,88.32,48.86Z"/><path d="M108.73,50.19c1.5-1.75,1.62-4.49,1-6.7-.84-2.46-3.25-3.63-5.79-3.67H95.31v20H99.9l-.05-7.37a16,16,0,0,0,2.21,0l4.42,7.41h5l-5.08-8.25A5.38,5.38,0,0,0,108.73,50.19ZM105,48.86c-1.25,1.33-3.33,1.17-5.08,1V42.4s3.66-.83,5.2,1.21A5.15,5.15,0,0,1,105,48.86Z"/><path d="M182.46,55.4a2.54,2.54,0,1,0,0,5.08A2.52,2.52,0,0,0,185,57.94,2.56,2.56,0,0,0,182.46,55.4Zm0,4.79a2.25,2.25,0,1,1,2.29-2.25A2.25,2.25,0,0,1,182.46,60.19Z"/><path d="M183.17,57.94a.81.81,0,0,0,.46-.71c0-.5-.34-.79-.92-.79h-1.38v2.84h.46V58.15h.79c.46,0,.59.21.59.71a.79.79,0,0,0,.08.46h.54a1.42,1.42,0,0,1-.12-.79C183.63,58.07,183.38,57.94,183.17,57.94Zm-.5-.21h-.84v-.91h.84c.25,0,.54,0,.54.46A.48.48,0,0,1,182.67,57.73Z"/></g></svg>