<svg xmlns="http://www.w3.org/2000/svg" viewBox="0 0 200 100"><g id="OUR_HOUSE"><path d="M89.91,67.92h-36v9c-1.31.13-2.6,0-4,.06a23.32,23.32,0,0,1-.07-3c0-1,0-2,0-3v-3h-9c-.1,1,0,2,0,2.94s0,2,0,3v3H36.76V54.81a12,12,0,0,1,4,0v8.78a53.35,53.35,0,0,0,9,.11v-9h4.12c0,1.52,0,3,0,4.52s0,2.94,0,4.47H90a11.55,11.55,0,0,1,5.94-8,11.16,11.16,0,0,1,7.69-1.16,11.56,11.56,0,0,1,.2,22.63C98.74,78.22,91.82,75.7,89.91,67.92Zm18.87-2.13a7.4,7.4,0,0,0-7.4-7.43,7.43,7.43,0,1,0,0,14.86A7.38,7.38,0,0,0,108.78,65.79Z"/><path d="M101.38,35.94v-4h64.51a11.87,11.87,0,0,1,0,4Z"/><path d="M56.94,33.92A11.47,11.47,0,0,1,45.42,45.44a11.53,11.53,0,0,1,0-23.06A11.49,11.49,0,0,1,56.94,33.92ZM45.52,26.51a7.43,7.43,0,1,0-.08,14.85,7.43,7.43,0,0,0,.08-14.85Z"/><path d="M82.38,22.87a4.37,4.37,0,0,1,.49-.07c2,0,4.06,0,6.08.05a9.06,9.06,0,0,1,4.41,1.28A5.41,5.41,0,0,1,95.72,27a6.68,6.68,0,0,1-3,8.36l-1,.6L98,44.88a10.77,10.77,0,0,1-2.63.12c-.83,0-1.65,0-2.54,0-.45-.7-.91-1.38-1.34-2.07C90.22,41,89,39.09,87.8,37.18c-.2-.32-.32-.82-1-.65,0,1.37,0,2.77,0,4.16V45H82.38Zm4.45,10a7.31,7.31,0,0,0,3.37-.48,2.65,2.65,0,0,0,1.59-2.54,2.59,2.59,0,0,0-1.38-2.65,6.56,6.56,0,0,0-3.58-.43Z"/><path d="M115.68,54.71h4.42v1.16c0,4,0,8.05,0,12.08a11.75,11.75,0,0,0,.18,2,3.61,3.61,0,0,0,3.61,3.19c2.16.12,3.6-.81,4.13-2.78a10.07,10.07,0,0,0,.29-2.45c0-4,0-8,0-12.07V54.73c.38,0,.65-.07.91-.08h3.46c0,.44.07.77.07,1.11,0,4.3,0,8.6,0,12.9a10,10,0,0,1-.47,3.25,7.33,7.33,0,0,1-4.88,4.93,9.68,9.68,0,0,1-6.77-.14,7.53,7.53,0,0,1-4.92-6.79c-.07-.65,0-1.3,0-2V54.71Z"/><path d="M73,22.84h4.35a5.29,5.29,0,0,1,.11.77c0,4.34,0,8.68,0,13a10,10,0,0,1-.79,4.23A7.31,7.31,0,0,1,71.93,45a10.63,10.63,0,0,1-5.4.19,7.67,7.67,0,0,1-6.14-7.12c0-.14,0-.28,0-.42q0-7.17,0-14.34a2.18,2.18,0,0,1,.08-.44h4.34V24c0,4,0,8.05,0,12.08a12.8,12.8,0,0,0,.18,2,3.69,3.69,0,0,0,3.85,3.19,3.6,3.6,0,0,0,3.94-2.93A8.13,8.13,0,0,0,73,36.26c0-4.06,0-8.12,0-12.18Z"/><path d="M153.4,54.71H166c.12,1.26.05,2.48.05,3.81h-8.29c-.05,1.56-.05,3,0,4.58h7.93a36.32,36.32,0,0,1,0,3.76c-2.61.1-5.17,0-7.71.07a23.74,23.74,0,0,0-.09,6.08H166c.11,1.32.05,2.54.05,3.74a113.6,113.6,0,0,1-12.57.14C153.28,76.17,153.19,56.69,153.4,54.71Z"/><path d="M149.83,57.83l-2.7,2.46c-.26-.3-.45-.53-.66-.75a3.69,3.69,0,0,0-3.1-1.35,3.42,3.42,0,0,0-1.46.42,1.86,1.86,0,0,0-.23,3.19,14.07,14.07,0,0,0,2.22,1.31c1,.51,2,.94,2.95,1.46a6.82,6.82,0,0,1,2.32,2c2.17,3,1.72,9.47-4.31,10.58a8.59,8.59,0,0,1-7.44-1.86,6.19,6.19,0,0,1-1.91-2.84l2.87-2.19c.34.47.62.9.94,1.29a4.51,4.51,0,0,0,3.83,1.87,2.53,2.53,0,0,0,2.5-1.66,2.58,2.58,0,0,0-.63-3,12.79,12.79,0,0,0-2.32-1.5c-1.08-.6-2.25-1.06-3.29-1.71a8,8,0,0,1-2-1.78,6,6,0,0,1,1.3-8,7.93,7.93,0,0,1,11,1.77A1.63,1.63,0,0,1,149.83,57.83Z"/></g></svg>