<svg xmlns="http://www.w3.org/2000/svg" viewBox="0 0 200 100"><g id="Swarovski"><path d="M16.07,54.84a6.78,6.78,0,0,0,7.08,5.53c2.65,0,5.62-1.49,5.62-4.85,0-3-1.72-3.66-4.22-4.17C18.36,50.05,15,48.89,15,44.24c0-3.77,3.75-7,9.55-7,1.52,0,4.7.42,6,1.25,0,1.76,0,3.54.15,5.27H30c-.5-3.3-3.45-4.4-6-4.4-3.89,0-5.89,1.93-5.89,4.34,0,2.74,1.4,3.15,5.87,4.1s7.94,1.91,7.94,7c0,4.22-3,7.79-9.76,7.79a11.85,11.85,0,0,1-6.57-1.78c0-2-.06-3.93-.21-5.89h.71Z"/><path d="M33.39,40.55c-.45-1.36-.9-2.29-2.23-2.43v-.54c1.13,0,2.17.24,3.24.24,1.34,0,2.68-.24,4-.24v.54c-.8.05-1.87.23-1.87,1a7.2,7.2,0,0,0,.45,2l5.14,16.57h.06c1.13-3.93,3.36-11,3.36-11.69a61.9,61.9,0,0,0-1.9-6.19c-.48-1.28-1.49-1.49-2.83-1.69v-.57c1.67,0,3.37.24,5,.24,1.16,0,2.32-.24,3.42-.24v.54c-1.45,0-2.14.56-2.14,1.22a7.94,7.94,0,0,0,.51,2.2L52.58,58h.06L57.1,42a12.35,12.35,0,0,0,.5-2.32c0-.83-.29-1.37-2.23-1.6v-.54c1.13,0,2.23.24,3.36.24s2-.24,2.92-.24v.54c-1.16.26-1.64,1-2.08,2.61L53.35,62.12H50.67l-4-13.71h-.06L42.85,62.12H40.29Z"/><path d="M56.47,61.59c1.22,0,1.55-.42,2.26-2.5l6.46-18.54a4.13,4.13,0,0,0,.21-1.24c0-.87-.36-1-1.16-1.19v-.54a21,21,0,0,0,2.74.24,10,10,0,0,0,1.87-.24,22,22,0,0,0,1.22,4.16l6.1,16.76c1,2.55,1.13,2.82,2.41,3.06v.53c-1,0-1.85-.23-2.77-.23-1.4,0-2.82.23-4.22.23v-.53c1.25-.12,1.66-.42,1.66-1.13a10.35,10.35,0,0,0-1-3.42l-1.49-4.17H63l-1.73,5.27a9.31,9.31,0,0,0-.56,2.56c0,.56.36.92,1.87.95v.53c-1,0-1.9-.23-2.85-.23s-2.18.23-3.25.23v-.56ZM70.16,51,67,41.54h-.06L63.67,51Z"/><path d="M80.54,40c0-1.07-.44-1.37-1.84-1.61v-.53H89.17c4.79,0,6.49,2.62,6.49,5.77,0,3.87-3.1,6.16-6.58,6.46l6.64,9c1.07,1.46,2,2.38,3,2.5v.53c-.65,0-1.25-.23-1.87-.23-1,0-1.88.23-2.77.23-.39-.11-.74-.71-3.69-5l-4.64-6.58a3.76,3.76,0,0,1-.72-1.1c0-.24.39-.39.69-.39,3.75,0,6.4-1.63,6.4-5,0-3.6-3.07-4.14-6.1-4.14h-2V60c0,1.07.45,1.37,1.85,1.61v.53c-.75,0-2.23-.23-3.6-.23s-2.86.23-3.6.23v-.53c1.4-.24,1.84-.54,1.84-1.61V40Z"/><path d="M108.93,37.22c8,0,11.18,6.82,11.18,12.35,0,6.54-4.58,12.94-11.72,12.94S97.08,56.8,97.08,49.93C97.08,42.49,103.33,37.22,108.93,37.22Zm.32,22.7c3.84,0,7.56-3,7.56-9,0-6.64-4.34-11.13-8.93-11.13-2.64,0-7.46,2.2-7.46,9.19C100.42,54.36,103.69,59.92,109.25,59.92Z"/><path d="M118.24,37.58c1.46,0,2.91.24,4.37.24,1,0,2-.24,3.15-.24v.54c-1.36,0-1.84.38-1.84,1.1a6.44,6.44,0,0,0,.39,1.63l5.77,16.87h.06l5.15-16.33a8.62,8.62,0,0,0,.47-2.14c0-.78-1-1-1.69-1.13v-.54c1.07,0,2.2.24,3.27.24.89,0,1.81-.24,2.71-.24v.54a2.59,2.59,0,0,0-2.18,2.05l-7.08,21.95h-2.41l-7.94-22.31a2.19,2.19,0,0,0-2.23-1.69v-.54Z"/><path d="M140.13,54.84a6.8,6.8,0,0,0,7.09,5.53c2.64,0,5.62-1.49,5.62-4.85,0-3-1.73-3.66-4.23-4.17-6.18-1.3-9.55-2.46-9.55-7.11,0-3.74,3.75-7,9.55-7,1.52,0,4.7.42,6,1.25,0,1.76,0,3.54.15,5.27H154c-.51-3.3-3.45-4.4-6-4.4-3.9,0-5.89,1.93-5.89,4.34,0,2.74,1.4,3.15,5.86,4.1s7.94,1.91,7.94,7c0,4.22-3,7.79-9.76,7.79a11.85,11.85,0,0,1-6.57-1.78c0-2-.06-3.93-.21-5.89h.71Z"/><path d="M165.19,48.65c1.48,1.54,3,2.91,4.46,4.7l5.59,6.75a3.25,3.25,0,0,0,2.41,1.49v.53c-1-.11-2.05-.23-2.83-.23a11.49,11.49,0,0,0-2.26.23l-4.28-5.35a83.09,83.09,0,0,0-6.58-7V60c0,1.07.45,1.37,1.85,1.61v.53c-.74,0-2.23-.23-3.6-.23s-2.86.23-3.6.23v-.53c1.4-.24,1.84-.54,1.84-1.61V39.72c0-1.07-.44-1.37-1.84-1.6v-.54c.74,0,2.23.24,3.6.24s2.86-.24,3.6-.24v.54c-1.4.23-1.85.53-1.85,1.6V49.3h.06l7.65-8.63c1-1.1,1.16-1.39,1.16-1.75,0-.51-.48-.72-1.58-.8v-.54c1.34,0,2.65.24,4,.24,1.07,0,2.14-.24,3.24-.24v.54a3.74,3.74,0,0,0-2.7,1.45Z"/><path d="M177.8,61.59c1.4-.24,1.84-.54,1.84-1.61V39.72c0-1.07-.44-1.37-1.84-1.6v-.54c.74,0,2.23.24,3.6.24s2.86-.24,3.6-.24v.54c-1.4.23-1.84.53-1.84,1.6V60c0,1.07.44,1.37,1.84,1.61v.53c-.74,0-2.23-.23-3.6-.23s-2.86.23-3.6.23Z"/></g></svg>