<svg xmlns="http://www.w3.org/2000/svg" viewBox="0 0 200 100"><defs><style>.cls-1{fill-rule:evenodd;}</style></defs><g id="Versace"><path class="cls-1" d="M168.37,33.57H185V36.2a4.54,4.54,0,0,0-1.54-.18h-9.54V48.38h9.26a8.46,8.46,0,0,0,1.73-.19v2.64a8.5,8.5,0,0,0-1.73-.18h-9.36V63.46h9.27a7.42,7.42,0,0,0,1.82-.27V66H168.37a8,8,0,0,0,.18-1.54V35.11a6.49,6.49,0,0,0-.18-1.54Z"/><path class="cls-1" d="M164.47,42h-4.82c-.27-2.73-1.82-5.36-5.18-5.82-7.27-.64-9.36,7.36-9.18,13.27.19,5.63,1.09,14.35,8.64,14.35,3.18,0,6.17-3.27,6.08-6h4.46c-.37,5.63-6.82,8.9-9.91,9-10.54.36-15-6.63-15.17-16.72-.18-9.08,3.54-17.17,13.9-17.17,9,.09,10.72,5.36,11.18,9.09Z"/><path class="cls-1" d="M89.51,62.37l3.18-2.64c1.63,2.73,3,4,6.36,4s6.17-2,6.17-5.63A5,5,0,0,0,103,53.83a32.27,32.27,0,0,0-4.81-2.64c-3.82-1.81-7.63-4.27-7.63-9.08-.09-6.09,5.08-8.82,10.54-9,3.27-.09,7.26,1.64,8.9,3.64l-3.27,2.45a6.84,6.84,0,0,0-5.91-3.54c-4.09,0-7.36,4.81-4,8.08a20.34,20.34,0,0,0,5.36,3.09c4.27,2,8,4.45,8,9.81a9.7,9.7,0,0,1-1.45,5.18c-1.91,3.18-5.09,4.73-9.63,4.73-5.18,0-6.18-1.18-9.63-4.18Z"/><path class="cls-1" d="M44.08,33.57H60.7V36.2A4,4,0,0,0,59.25,36H49.62V48.38h9.27a8.35,8.35,0,0,0,1.72-.19v2.64a8.39,8.39,0,0,0-1.72-.18H49.62V63.46h9.27a7.35,7.35,0,0,0,1.81-.27V66H44.08a8,8,0,0,0,.18-1.54V35.11a3.77,3.77,0,0,0-.18-1.54Z"/><path class="cls-1" d="M15,33.57h6.09v.27a3.21,3.21,0,0,0,.27,1.09L29.9,60.64l8.72-25.8a6.3,6.3,0,0,0,.19-1.27h2.9a8.44,8.44,0,0,0-.63,1.36l-10,29.8a8.82,8.82,0,0,0-.27,1.36h-5c-.09-.36-.18-.81-.36-1.36L15.73,35.2c-.09-.27-.37-.82-.73-1.63Z"/><path class="cls-1" d="M79.24,50.56c4-.82,7-3.82,7-8.18,0-5.72-4.72-8.81-10.08-8.81H66.43a9,9,0,0,1,.18,1.54V64.55a6.49,6.49,0,0,1-.18,1.54h5.81a8,8,0,0,1-.18-1.54V51l1.82.18,9.72,14.9h5.81L79.24,50.56Zm-1-2.55a6.6,6.6,0,0,1-3.73,1.09H72.06V35.93h2.18a6.25,6.25,0,0,1,4.45,1.45,6.7,6.7,0,0,1,2.18,5.27A6.33,6.33,0,0,1,78.24,48Z"/><path class="cls-1" d="M138.48,64.73l-10.9-30.07a4.71,4.71,0,0,1-.19-1.09h-4.72a5.45,5.45,0,0,1-.18,1.18L112,64.73a8.8,8.8,0,0,1-.64,1.36h3a6.22,6.22,0,0,1,.18-1.36l3.09-8.81h12l3.08,8.81a3.52,3.52,0,0,1,.28,1.36h6.27a4.85,4.85,0,0,1-.73-1.36Zm-20-11.17,5.09-14.72,5.18,14.72Z"/></g></svg>