<?xml version="1.0" encoding="utf-8"?>
<!-- Generator: Adobe Illustrator 25.1.0, SVG Export Plug-In . SVG Version: 6.00 Build 0)  -->
<svg version="1.1" id="Layer_1" xmlns="http://www.w3.org/2000/svg" xmlns:xlink="http://www.w3.org/1999/xlink" x="0px" y="0px"
	 viewBox="0 0 188.6 37.8" style="enable-background:new 0 0 188.6 37.8;" xml:space="preserve">
<style type="text/css">
	.st0{fill-rule:evenodd;clip-rule:evenodd;}
</style>
<g>
	<path class="st0" d="M169,1.3h18.3v2.9C186.7,4,186.2,4,185.6,4h-10.5v13.6h10.2c0.7,0,1.4-0.1,1.9-0.2v2.9
		c-0.5-0.1-1.1-0.2-1.9-0.2h-10.3v14.1h10.2c0.6,0,1.2-0.1,2-0.3v3.1H169c0.1-0.5,0.2-1.1,0.2-1.7V3C169.2,2.3,169.1,1.7,169,1.3
		L169,1.3z"/>
	<path class="st0" d="M164.7,10.6l-5.3,0c-0.3-3-2-5.9-5.7-6.4c-8-0.7-10.3,8.1-10.1,14.6c0.2,6.2,1.2,15.8,9.5,15.8
		c3.5,0,6.8-3.6,6.7-6.6l4.9,0c-0.4,6.2-7.5,9.8-10.9,9.9c-11.6,0.4-16.5-7.3-16.7-18.4c-0.2-10,3.9-18.9,15.3-18.9
		C162.3,0.7,164.2,6.5,164.7,10.6L164.7,10.6z"/>
	<path class="st0" d="M82.2,33l3.5-2.9c1.8,3,3.3,4.4,7,4.4c3.7,0,6.8-2.2,6.8-6.2c0-2-0.8-3.5-2.4-4.7c-0.7-0.6-2.5-1.5-5.3-2.9
		c-4.2-2-8.4-4.7-8.4-10C83.3,4,89,1,95,0.8c3.6-0.1,8,1.8,9.8,4l-3.6,2.7c-1.6-2.8-4.3-3.9-6.5-3.9c-4.5,0-8.1,5.3-4.4,8.9
		c1,0.9,2.9,2.1,5.9,3.4c4.7,2.2,8.8,4.9,8.8,10.8c0,2-0.5,3.9-1.6,5.7c-2.1,3.5-5.6,5.2-10.6,5.2C87.1,37.6,86,36.3,82.2,33
		L82.2,33z"/>
	<path class="st0" d="M32.2,1.3h18.3v2.9C50,4,49.4,4,48.9,4H38.3v13.6h10.2c0.7,0,1.4-0.1,1.9-0.2v2.9c-0.5-0.1-1.1-0.2-1.9-0.2
		H38.3v14.1h10.2c0.6,0,1.2-0.1,2-0.3v3.1H32.2c0.1-0.5,0.2-1.1,0.2-1.7V3C32.4,2.3,32.4,1.7,32.2,1.3L32.2,1.3z"/>
	<path class="st0" d="M0.2,1.3h6.7c0,0.1,0,0.2,0,0.3c0,0.3,0.1,0.7,0.3,1.2l9.4,28.3l9.6-28.4c0.1-0.5,0.2-0.9,0.2-1.4h3.2
		c-0.3,0.6-0.6,1.1-0.7,1.5l-11,32.8c-0.1,0.3-0.2,0.8-0.3,1.5h-5.5c-0.1-0.4-0.2-0.9-0.4-1.5L1,3.1C0.9,2.8,0.6,2.2,0.2,1.3
		L0.2,1.3L0.2,1.3z"/>
	<path class="st0" d="M70.9,20c4.4-0.9,7.7-4.2,7.7-9c0-6.3-5.2-9.7-11.1-9.7H56.8C56.9,1.9,57,2.4,57,3v32.4c0,0.7-0.1,1.3-0.2,1.7
		h6.4c-0.1-0.5-0.2-1.1-0.2-1.7V20.5l2,0.2l10.7,16.4h6.4L70.9,20L70.9,20z M69.8,17.2c-1.2,0.8-2.6,1.2-4.1,1.2h-2.7V3.9h2.4
		c2.1,0,3.7,0.5,4.9,1.6c1.6,1.4,2.4,3.4,2.4,5.8C72.6,13.9,71.7,15.9,69.8,17.2L69.8,17.2z"/>
	<path class="st0" d="M136.1,35.6L124.1,2.5c-0.1-0.4-0.2-0.8-0.2-1.2h-5.2c0,0.4-0.1,0.9-0.2,1.3l-11.6,33c-0.2,0.5-0.4,1-0.7,1.5
		h3.3c0-0.5,0.1-1.1,0.2-1.5l3.4-9.7h13.2l3.4,9.7c0.2,0.5,0.3,1,0.3,1.5h6.9C136.5,36.5,136.2,36,136.1,35.6L136.1,35.6z
		 M114.1,23.3l5.6-16.2l5.7,16.2H114.1L114.1,23.3z"/>
</g>
</svg>
